{"glyphs":{"0":{"ha":848,"x_min":45,"x_max":804,"o":"m 424 -14 q 220 49 307 -14 q 89 224 134 112 q 45 486 45 337 q 90 749 45 636 q 220 924 134 861 q 424 986 307 986 q 703 850 602 986 q 804 486 804 714 q 760 224 804 337 q 628 49 715 112 q 424 -14 542 -14 m 424 186 q 549 260 505 186 q 593 486 593 335 q 549 712 593 637 q 424 786 505 786 q 299 711 343 786 q 256 486 256 637 q 300 261 256 336 q 424 186 344 186 z "},"1":{"ha":544,"x_min":50,"x_max":471,"o":"m 471 972 l 471 0 l 267 0 l 267 690 l 50 524 l 50 770 l 334 972 l 471 972 z "},"2":{"ha":789,"x_min":39,"x_max":739,"o":"m 61 0 l 61 147 l 374 453 q 481 562 459 536 q 525 672 524 618 q 487 753 525 721 q 393 786 449 786 q 286 739 323 786 q 253 611 249 691 l 46 611 q 139 881 39 777 q 397 986 238 986 q 641 899 545 986 q 736 677 736 812 q 682 504 736 585 q 519 322 628 422 l 397 200 l 739 200 l 739 0 l 61 0 z "},"3":{"ha":768,"x_min":20,"x_max":729,"o":"m 244 575 l 431 775 l 47 775 l 47 972 l 721 972 l 721 838 l 490 600 q 662 512 595 590 q 729 321 729 433 q 628 80 729 174 q 371 -14 528 -14 q 197 25 275 -14 q 73 132 119 63 q 20 288 26 201 l 225 288 q 272 215 234 244 q 371 186 311 186 q 477 225 435 186 q 518 326 518 264 q 495 399 518 369 q 434 444 472 429 q 346 458 395 458 q 244 443 296 458 l 244 575 z "},"4":{"ha":842,"x_min":28,"x_max":812,"o":"m 812 386 l 812 200 l 710 200 l 710 0 l 504 0 l 504 200 l 28 200 l 28 339 l 366 972 l 599 972 l 286 386 l 504 386 l 504 615 l 710 615 l 710 386 l 812 386 z "},"5":{"ha":761,"x_min":20,"x_max":725,"o":"m 372 -14 q 201 21 279 -14 q 74 124 124 55 q 20 288 24 194 l 225 288 q 276 213 238 241 q 372 186 315 186 q 473 228 433 186 q 514 329 514 269 q 474 433 514 392 q 372 473 433 473 q 294 459 330 473 q 239 419 258 445 l 58 419 l 102 972 l 661 972 l 661 778 l 286 778 l 269 604 q 329 633 292 622 q 401 644 367 644 q 635 558 545 644 q 725 323 725 472 q 697 192 725 254 q 622 84 669 130 q 510 13 575 39 q 372 -14 444 -14 z "},"6":{"ha":758,"x_min":31,"x_max":728,"o":"m 416 650 q 639 557 550 650 q 728 326 728 465 q 681 156 728 235 q 553 32 633 78 q 379 -14 473 -14 q 205 32 286 -14 q 78 156 125 78 q 31 326 31 235 q 51 439 31 376 q 109 562 71 501 l 363 972 l 597 972 l 392 648 q 416 650 400 650 m 379 182 q 485 224 441 182 q 528 328 528 266 q 485 432 528 390 q 378 475 441 475 q 274 432 316 475 q 232 328 232 390 q 275 224 232 266 q 379 182 317 182 z "},"7":{"ha":728,"x_min":21,"x_max":700,"o":"m 21 972 l 700 972 l 700 835 l 301 0 l 72 0 l 446 774 l 21 774 l 21 972 z "},"8":{"ha":749,"x_min":33,"x_max":717,"o":"m 376 -11 q 130 72 227 -11 q 33 282 33 154 q 77 424 33 359 q 193 525 121 490 q 103 608 138 554 q 69 721 69 663 q 156 909 69 836 q 376 982 242 982 q 596 908 509 982 q 682 721 682 835 q 648 607 682 661 q 557 525 613 553 q 673 427 629 492 q 717 282 717 361 q 621 72 717 154 q 376 -11 526 -11 m 291 635 q 308 621 291 635 q 376 607 324 607 q 461 635 429 607 q 493 708 494 663 q 461 781 494 753 q 376 810 429 810 q 291 781 324 810 q 258 708 258 753 q 291 635 258 663 m 376 171 q 481 207 440 171 q 522 300 522 243 q 481 393 522 356 q 376 429 440 429 q 271 393 312 429 q 229 300 229 356 q 270 207 229 243 q 376 171 311 171 z "},"9":{"ha":758,"x_min":31,"x_max":728,"o":"m 379 986 q 554 940 473 986 q 681 815 634 894 q 728 646 728 737 q 652 411 728 532 l 396 0 l 161 0 l 367 325 q 342 323 359 323 q 119 415 208 323 q 31 646 31 507 q 78 815 31 737 q 205 940 125 894 q 379 986 286 986 m 380 497 q 484 540 442 497 q 526 644 526 583 q 484 748 526 706 q 379 790 441 790 q 274 748 317 790 q 231 644 231 706 q 274 540 231 583 q 380 497 317 497 z "}," ":{"ha":283,"x_min":0,"x_max":0,"o":""},"!":{"ha":395,"x_min":71,"x_max":325,"o":"m 93 972 l 301 972 l 296 301 l 100 301 l 93 972 m 197 -14 q 107 23 144 -14 q 71 111 71 59 q 107 199 71 163 q 197 235 144 235 q 288 199 251 235 q 325 111 325 163 q 288 23 325 59 q 197 -14 251 -14 z "},"\"":{"ha":605,"x_min":69,"x_max":536,"o":"m 83 624 l 69 972 l 264 972 l 253 624 l 83 624 m 354 624 l 342 972 l 536 972 l 524 624 l 354 624 z "},"#":{"ha":973,"x_min":28,"x_max":945,"o":"m 945 576 l 764 576 l 714 397 l 889 397 l 889 231 l 667 231 l 603 0 l 435 0 l 500 231 l 330 231 l 265 0 l 98 0 l 163 231 l 28 231 l 28 397 l 210 397 l 260 576 l 83 576 l 83 743 l 307 743 l 371 972 l 539 972 l 475 743 l 644 743 l 708 972 l 875 972 l 811 743 l 945 743 l 945 576 m 546 397 l 597 576 l 428 576 l 376 397 l 546 397 z "},"$":{"ha":826,"x_min":54,"x_max":779,"o":"m 779 286 q 703 95 779 176 q 503 -7 627 15 l 503 -167 l 315 -167 l 315 -1 q 126 116 198 28 q 54 322 54 203 l 257 322 q 303 219 257 258 q 422 180 349 180 q 533 210 490 180 q 575 286 575 239 q 557 334 575 313 q 510 367 540 354 q 443 390 481 380 q 362 412 404 401 q 277 437 319 423 q 196 472 235 450 q 129 523 158 494 q 81 596 99 551 q 64 699 64 642 q 133 880 64 804 q 315 978 203 956 l 315 1139 l 503 1139 l 503 975 q 686 863 623 948 q 749 663 749 777 l 536 663 q 496 755 535 720 q 392 791 457 791 q 299 767 334 791 q 265 700 265 743 q 283 655 265 674 q 330 625 300 637 q 398 603 360 613 q 479 583 437 593 q 565 558 522 572 q 646 522 608 545 q 714 470 684 500 q 762 393 744 439 q 779 286 779 346 z "},"%":{"ha":1023,"x_min":69,"x_max":956,"o":"m 488 774 q 428 620 488 681 q 278 558 368 558 q 129 620 189 558 q 69 774 69 682 q 129 926 69 865 q 278 986 189 986 q 428 926 368 986 q 488 774 488 865 m 757 972 l 913 972 l 267 0 l 111 0 l 757 972 m 338 707 q 350 720 338 707 q 361 774 361 732 q 338 841 361 815 q 278 867 316 867 q 218 841 240 867 q 196 774 196 815 q 218 707 196 732 q 278 681 240 681 q 338 707 316 681 m 956 201 q 896 48 956 109 q 746 -14 836 -14 q 596 48 656 -14 q 536 201 536 109 q 596 353 536 293 q 746 414 656 414 q 896 353 836 414 q 956 201 956 293 m 806 134 q 817 147 806 134 q 828 201 828 160 q 806 268 828 243 q 746 293 784 293 q 685 268 708 293 q 663 201 663 243 q 685 134 663 160 q 746 107 708 107 q 806 134 784 107 z "},"&":{"ha":1082,"x_min":68,"x_max":1004,"o":"m 1004 0 l 737 0 l 654 90 q 382 -14 528 -14 q 157 66 246 -14 q 68 268 68 146 q 82 360 68 319 q 123 431 96 401 q 180 483 151 462 q 250 525 210 505 q 175 722 175 618 q 254 909 175 833 q 449 986 334 986 q 641 909 562 986 q 720 722 720 833 q 706 638 720 676 q 668 572 693 600 q 615 524 644 544 q 550 485 587 503 l 668 358 l 757 456 l 1000 456 l 790 228 l 1004 0 m 353 726 q 374 672 353 701 q 436 603 395 643 q 514 656 487 627 q 542 726 542 685 q 515 791 542 765 q 449 817 489 817 q 380 791 408 817 q 353 726 353 765 m 389 165 q 532 220 464 165 l 361 403 q 287 348 313 378 q 261 275 261 318 q 298 197 261 228 q 389 165 335 165 z "},"'":{"ha":333,"x_min":69,"x_max":264,"o":"m 83 624 l 69 972 l 264 972 l 253 624 l 83 624 z "},"(":{"ha":477,"x_min":89,"x_max":518,"o":"m 89 411 q 174 825 89 630 q 403 1140 258 1021 l 518 1011 q 339 755 405 917 q 273 411 273 594 q 339 67 273 229 q 518 -187 405 -94 l 403 -317 q 174 -2 258 -197 q 89 411 89 193 z "},")":{"ha":477,"x_min":-40,"x_max":389,"o":"m 389 411 q 304 -2 389 193 q 77 -317 220 -197 l -40 -187 q 140 67 74 -94 q 205 411 205 228 q 140 756 205 595 q -40 1011 74 917 l 77 1140 q 304 825 220 1021 q 389 411 389 630 z "},"*":{"ha":724,"x_min":66,"x_max":657,"o":"m 657 747 l 463 682 l 597 514 l 500 432 l 363 603 l 224 432 l 126 514 l 262 682 l 66 747 l 110 869 l 297 807 l 297 1000 l 427 1000 l 427 807 l 614 869 l 657 747 z "},"+":{"ha":823,"x_min":69,"x_max":754,"o":"m 754 542 l 754 358 l 504 358 l 504 107 l 319 107 l 319 358 l 69 358 l 69 542 l 319 542 l 319 791 l 504 791 l 504 542 l 754 542 z "},",":{"ha":391,"x_min":71,"x_max":321,"o":"m 321 165 l 233 -187 l 71 -187 l 125 165 l 321 165 z "},"-":{"ha":519,"x_min":35,"x_max":485,"o":"m 35 269 l 35 453 l 485 453 l 485 269 l 35 269 z "},".":{"ha":395,"x_min":71,"x_max":325,"o":"m 197 -14 q 107 23 144 -14 q 71 111 71 59 q 107 199 71 163 q 197 235 144 235 q 288 199 251 235 q 325 111 325 163 q 288 23 325 59 q 197 -14 251 -14 z "},"/":{"ha":652,"x_min":7,"x_max":644,"o":"m 7 0 l 435 972 l 644 972 l 216 0 l 7 0 z "},":":{"ha":395,"x_min":71,"x_max":325,"o":"m 197 431 q 107 467 144 431 q 71 555 71 503 q 107 643 71 607 q 197 679 144 679 q 288 643 251 679 q 325 555 325 608 q 288 467 325 503 q 197 431 251 431 m 197 -14 q 107 23 144 -14 q 71 111 71 59 q 107 199 71 163 q 197 235 144 235 q 288 199 251 235 q 325 111 325 163 q 288 23 325 59 q 197 -14 251 -14 z "},";":{"ha":431,"x_min":71,"x_max":361,"o":"m 235 407 q 145 443 182 407 q 109 532 109 479 q 145 620 109 584 q 235 656 182 656 q 325 620 288 656 q 361 532 361 584 q 325 443 361 479 q 235 407 288 407 m 321 183 l 233 -170 l 71 -170 l 125 183 l 321 183 z "},"<":{"ha":744,"x_min":69,"x_max":675,"o":"m 675 131 l 69 404 l 69 554 l 675 828 l 675 629 l 332 481 l 675 332 l 675 131 z "},"=":{"ha":823,"x_min":69,"x_max":754,"o":"m 754 714 l 754 530 l 69 530 l 69 714 l 754 714 m 754 387 l 754 203 l 69 203 l 69 387 l 754 387 z "},">":{"ha":744,"x_min":69,"x_max":675,"o":"m 69 131 l 69 332 l 412 481 l 69 629 l 69 828 l 675 554 l 675 404 l 69 131 z "},"?":{"ha":729,"x_min":13,"x_max":700,"o":"m 367 986 q 604 902 509 986 q 700 693 700 818 q 686 595 700 640 q 651 520 673 551 q 603 465 629 490 q 550 420 576 440 q 501 383 523 401 q 465 344 479 365 q 450 300 451 323 l 250 300 q 263 391 250 351 q 298 457 277 431 q 344 504 319 483 q 395 542 370 525 q 441 577 420 559 q 476 618 463 594 q 489 671 489 642 q 454 756 489 726 q 361 786 419 786 q 258 743 295 786 q 222 632 221 699 l 16 632 q 58 812 13 730 q 185 940 103 893 q 367 986 267 986 m 354 -14 q 264 23 300 -14 q 228 111 228 59 q 264 199 228 163 q 354 235 300 235 q 444 199 407 235 q 481 111 481 163 q 444 23 481 59 q 354 -14 407 -14 z "},"@":{"ha":1304,"x_min":69,"x_max":1235,"o":"m 764 623 l 920 623 l 920 317 q 933 228 920 252 q 987 204 947 204 q 1055 260 1029 204 q 1080 399 1080 315 q 965 662 1080 568 q 646 757 850 757 q 478 725 556 757 q 344 637 399 693 q 256 504 288 582 q 224 338 224 427 q 255 175 224 251 q 341 44 287 98 q 471 -42 395 -11 q 633 -74 547 -74 q 749 -55 695 -74 q 821 -9 804 -37 l 1034 -9 q 877 -160 987 -104 q 633 -216 767 -216 q 348 -144 477 -216 q 144 55 219 -73 q 69 338 69 182 q 145 625 69 496 q 354 827 222 754 q 646 900 486 900 q 1079 767 923 900 q 1235 399 1235 634 q 1164 152 1235 245 q 978 60 1093 60 q 800 142 850 60 q 614 56 729 56 q 429 140 505 56 q 353 345 353 224 q 428 550 353 467 q 614 633 504 633 q 764 566 707 633 l 764 623 m 636 211 q 729 248 694 211 q 764 345 764 284 q 729 443 764 406 q 636 479 694 479 q 545 440 582 479 q 507 345 507 401 q 545 250 507 288 q 636 211 583 211 z "},"A":{"ha":957,"x_min":8,"x_max":949,"o":"m 725 0 l 664 163 l 289 163 l 227 0 l 8 0 l 395 972 l 561 972 l 949 0 l 725 0 m 357 339 l 596 339 l 478 650 l 357 339 z "},"B":{"ha":818,"x_min":74,"x_max":786,"o":"m 74 0 l 74 972 l 439 972 q 653 896 564 972 q 742 714 742 820 q 704 591 742 648 q 607 514 665 534 q 735 433 685 498 q 786 278 786 367 q 696 81 786 161 q 481 0 607 0 l 74 0 m 279 581 l 429 581 q 503 609 473 581 q 533 679 533 638 q 503 747 533 720 q 429 775 473 775 l 279 775 l 279 581 m 279 197 l 463 197 q 543 230 510 197 q 576 310 576 263 q 544 390 576 357 q 465 424 511 424 l 279 424 l 279 197 z "},"C":{"ha":1051,"x_min":47,"x_max":1006,"o":"m 541 -14 q 289 52 401 -14 q 112 231 176 117 q 47 486 47 346 q 112 741 47 627 q 289 921 176 856 q 541 986 401 986 q 755 940 654 986 q 923 813 856 895 q 1003 631 989 731 l 774 631 q 689 743 754 699 q 541 786 625 786 q 339 700 420 786 q 258 486 258 614 q 339 272 258 358 q 541 186 420 186 q 691 233 625 186 q 775 354 756 281 l 1006 354 q 848 89 978 192 q 541 -14 718 -14 z "},"D":{"ha":945,"x_min":74,"x_max":900,"o":"m 407 972 q 658 910 545 972 q 836 737 771 848 q 900 490 900 627 q 836 239 900 351 q 658 63 771 127 q 407 0 545 0 l 74 0 l 74 972 l 407 972 m 421 197 q 612 281 536 197 q 688 490 688 364 q 613 695 688 614 q 421 775 538 775 l 279 775 l 279 197 l 421 197 z "},"E":{"ha":722,"x_min":74,"x_max":669,"o":"m 74 972 l 669 972 l 669 775 l 279 775 l 279 600 l 627 600 l 627 403 l 279 403 l 279 197 l 669 197 l 669 0 l 74 0 l 74 972 z "},"F":{"ha":707,"x_min":74,"x_max":669,"o":"m 74 972 l 669 972 l 669 775 l 279 775 l 279 572 l 627 572 l 627 375 l 279 375 l 279 0 l 74 0 l 74 972 z "},"G":{"ha":1063,"x_min":47,"x_max":1017,"o":"m 1011 549 q 1017 454 1017 508 q 980 269 1017 356 q 881 120 944 182 q 730 22 819 58 q 542 -14 642 -14 q 290 52 403 -14 q 112 231 176 117 q 47 486 47 346 q 112 741 47 627 q 290 921 176 856 q 543 986 404 986 q 760 939 657 986 q 928 815 862 892 q 1007 650 994 738 l 775 650 q 686 749 751 711 q 543 786 621 786 q 340 700 421 786 q 258 486 258 614 q 340 272 258 358 q 542 186 421 186 q 723 242 654 186 q 798 380 792 299 l 798 382 l 528 382 l 528 549 l 1011 549 z "},"H":{"ha":972,"x_min":74,"x_max":900,"o":"m 693 972 l 900 972 l 900 0 l 693 0 l 693 404 l 279 404 l 279 0 l 74 0 l 74 972 l 279 972 l 279 602 l 693 602 l 693 972 z "},"I":{"ha":353,"x_min":74,"x_max":279,"o":"m 74 972 l 279 972 l 279 0 l 74 0 l 74 972 z "},"J":{"ha":468,"x_min":39,"x_max":401,"o":"m 39 186 q 74 184 47 184 q 164 216 133 184 q 195 318 195 247 l 195 972 l 401 972 l 401 262 q 326 64 401 140 q 136 -11 251 -11 q 39 -4 77 -11 l 39 186 z "},"K":{"ha":951,"x_min":74,"x_max":920,"o":"m 920 0 l 650 0 l 279 464 l 279 0 l 74 0 l 74 972 l 279 972 l 279 561 l 625 972 l 885 972 l 494 514 l 920 0 z "},"L":{"ha":760,"x_min":74,"x_max":725,"o":"m 74 972 l 279 972 l 279 197 l 725 197 l 725 0 l 74 0 l 74 972 z "},"M":{"ha":1198,"x_min":74,"x_max":1125,"o":"m 74 0 l 74 972 l 323 972 l 612 302 l 916 972 l 1125 972 l 1125 0 l 920 0 l 920 571 l 671 0 l 522 0 l 279 571 l 279 0 l 74 0 z "},"N":{"ha":923,"x_min":74,"x_max":850,"o":"m 74 972 l 249 972 l 644 406 l 644 972 l 850 972 l 850 0 l 677 0 l 279 567 l 279 0 l 74 0 l 74 972 z "},"O":{"ha":1086,"x_min":47,"x_max":1040,"o":"m 290 921 q 347 954 290 921 q 543 986 404 986 q 797 921 683 986 q 976 741 911 856 q 1040 486 1040 627 q 976 231 1040 346 q 797 52 911 117 q 543 -14 683 -14 q 290 52 404 -14 q 112 231 176 117 q 47 486 47 346 q 112 741 47 627 q 290 921 176 856 m 747 700 q 706 743 747 700 q 543 786 665 786 q 340 700 421 786 q 258 486 258 614 q 340 272 258 358 q 543 186 421 186 q 747 272 665 186 q 828 486 828 358 q 747 700 828 614 z "},"P":{"ha":808,"x_min":74,"x_max":774,"o":"m 444 972 q 681 884 587 972 q 774 661 774 796 q 681 435 774 525 q 444 346 587 346 l 279 346 l 279 0 l 74 0 l 74 972 l 444 972 m 444 543 q 532 577 497 543 q 567 661 567 610 q 532 743 567 710 q 444 775 497 775 l 279 775 l 279 543 l 444 543 z "},"Q":{"ha":1086,"x_min":47,"x_max":1072,"o":"m 1072 0 l 857 0 l 806 57 q 543 -14 690 -14 q 290 52 404 -14 q 112 231 176 117 q 47 486 47 346 q 112 741 47 627 q 290 921 176 856 q 543 986 404 986 q 797 921 683 986 q 976 741 911 856 q 1040 486 1040 627 q 928 163 1040 300 l 1072 0 m 543 186 q 665 214 611 186 l 454 450 l 669 450 l 785 322 q 828 486 828 394 q 747 700 828 614 q 543 786 665 786 q 340 700 421 786 q 258 486 258 614 q 340 272 258 358 q 543 186 421 186 z "},"R":{"ha":878,"x_min":74,"x_max":854,"o":"m 854 0 l 604 0 l 385 371 l 279 371 l 279 0 l 74 0 l 74 972 l 449 972 q 601 932 530 972 q 713 823 671 892 q 755 672 755 753 q 714 509 755 580 q 600 403 673 439 l 854 0 m 279 774 l 279 549 l 428 549 q 513 581 478 549 q 547 663 547 614 q 513 742 547 709 q 428 774 478 774 l 279 774 z "},"S":{"ha":826,"x_min":54,"x_max":779,"o":"m 422 -14 q 159 81 263 -14 q 54 322 54 176 l 257 322 q 303 219 257 258 q 422 180 349 180 q 533 210 490 180 q 575 286 575 239 q 557 334 575 313 q 510 367 540 354 q 443 390 481 380 q 362 412 404 401 q 277 437 319 423 q 196 472 235 450 q 129 523 158 494 q 81 596 99 551 q 64 699 64 642 q 159 905 64 823 q 399 986 254 986 q 527 969 469 986 q 626 921 585 951 q 694 850 667 891 q 735 762 722 809 q 749 663 749 715 l 536 663 q 496 755 535 720 q 392 791 457 791 q 299 767 334 791 q 265 700 265 743 q 283 655 265 674 q 330 625 300 637 q 398 603 360 613 q 479 583 437 593 q 565 558 522 572 q 646 522 608 545 q 714 470 684 500 q 762 393 744 439 q 779 286 779 346 q 678 72 779 157 q 422 -14 576 -14 z "},"T":{"ha":833,"x_min":31,"x_max":804,"o":"m 804 972 l 804 775 l 519 775 l 519 0 l 314 0 l 314 775 l 31 775 l 31 972 l 804 972 z "},"U":{"ha":918,"x_min":74,"x_max":844,"o":"m 460 -12 q 262 38 350 -12 q 124 177 174 88 q 74 376 74 266 l 74 972 l 279 972 l 279 376 q 331 241 279 295 q 460 187 382 187 q 588 241 537 187 q 639 376 639 295 l 639 972 l 844 972 l 844 376 q 794 177 844 266 q 657 38 745 88 q 460 -12 569 -12 z "},"V":{"ha":919,"x_min":11,"x_max":908,"o":"m 11 972 l 232 972 l 461 336 l 690 972 l 908 972 l 543 0 l 378 0 l 11 972 z "},"W":{"ha":1409,"x_min":11,"x_max":1397,"o":"m 1182 974 l 1397 974 l 1075 0 l 909 0 l 705 625 l 503 0 l 336 0 l 11 974 l 231 974 l 424 347 l 625 974 l 790 974 l 991 347 l 1182 974 z "},"X":{"ha":932,"x_min":11,"x_max":921,"o":"m 921 0 l 676 0 l 464 318 l 253 0 l 11 0 l 345 500 l 29 972 l 275 972 l 467 684 l 659 972 l 899 972 l 587 503 l 921 0 z "},"Y":{"ha":945,"x_min":11,"x_max":933,"o":"m 11 972 l 262 972 l 478 619 l 693 972 l 933 972 l 579 411 l 579 0 l 372 0 l 372 411 l 11 972 z "},"Z":{"ha":829,"x_min":35,"x_max":787,"o":"m 62 972 l 783 972 l 783 833 l 315 197 l 787 197 l 787 0 l 35 0 l 35 139 l 504 775 l 62 775 l 62 972 z "},"[":{"ha":494,"x_min":69,"x_max":453,"o":"m 248 979 l 248 -106 l 453 -106 l 453 -265 l 69 -265 l 69 1139 l 453 1139 l 453 979 l 248 979 z "},"\\":{"ha":648,"x_min":3,"x_max":640,"o":"m 640 0 l 431 0 l 3 972 l 212 972 l 640 0 z "},"]":{"ha":501,"x_min":49,"x_max":432,"o":"m 254 979 l 49 979 l 49 1139 l 432 1139 l 432 -265 l 49 -265 l 49 -106 l 254 -106 l 254 979 z "},"^":{"ha":836,"x_min":69,"x_max":766,"o":"m 766 380 l 567 380 l 418 724 l 268 380 l 69 380 l 343 986 l 493 986 l 766 380 z "},"_":{"ha":846,"x_min":28,"x_max":818,"o":"m 28 -197 l 28 -14 l 818 -14 l 818 -197 l 28 -197 z "},"`":{"ha":488,"x_min":69,"x_max":419,"o":"m 69 974 l 301 974 l 419 757 l 239 757 l 69 974 z "},"a":{"ha":837,"x_min":40,"x_max":770,"o":"m 574 682 l 770 682 l 770 0 l 574 0 l 574 97 q 357 -14 499 -14 q 197 34 270 -14 q 82 164 124 82 q 40 342 40 245 q 82 520 40 438 q 197 649 124 602 q 357 696 270 696 q 574 585 499 696 l 574 682 m 403 174 q 524 222 475 174 q 574 342 574 271 q 524 461 574 412 q 403 510 475 510 q 282 461 332 510 q 232 342 232 412 q 282 222 232 271 q 403 174 332 174 z "},"b":{"ha":837,"x_min":69,"x_max":798,"o":"m 481 696 q 641 649 568 696 q 755 520 713 602 q 798 342 798 438 q 755 164 798 245 q 641 34 713 82 q 481 -14 568 -14 q 265 96 338 -14 l 265 0 l 69 0 l 69 972 l 265 972 l 265 586 q 481 696 339 696 m 436 174 q 556 222 507 174 q 606 342 606 271 q 556 461 606 412 q 436 510 507 510 q 315 461 364 510 q 265 342 265 412 q 315 222 265 271 q 436 174 364 174 z "},"c":{"ha":769,"x_min":40,"x_max":729,"o":"m 395 -14 q 142 87 243 -14 q 40 340 40 189 q 142 594 40 492 q 395 696 243 696 q 618 618 523 696 q 728 422 714 540 l 529 422 q 481 485 519 460 q 395 509 444 509 q 278 461 325 509 q 232 340 232 413 q 278 222 232 270 q 395 174 325 174 q 482 199 444 174 q 530 265 520 225 l 729 265 q 675 121 722 185 q 554 22 628 57 q 395 -14 481 -14 z "},"d":{"ha":837,"x_min":40,"x_max":770,"o":"m 574 972 l 770 972 l 770 0 l 574 0 l 574 97 q 357 -14 499 -14 q 197 34 270 -14 q 82 164 124 82 q 40 342 40 245 q 82 520 40 438 q 197 649 124 602 q 357 696 270 696 q 574 585 499 696 l 574 972 m 403 174 q 524 222 475 174 q 574 342 574 271 q 524 461 574 412 q 403 510 475 510 q 282 461 332 510 q 232 342 232 412 q 282 222 232 271 q 403 174 332 174 z "},"e":{"ha":770,"x_min":40,"x_max":730,"o":"m 730 364 q 726 294 730 328 l 220 294 q 277 188 230 228 q 393 149 325 149 q 485 171 450 149 q 529 229 521 193 l 721 229 q 616 53 704 119 q 399 -14 528 -14 q 217 34 300 -14 q 87 163 135 81 q 40 345 40 245 q 143 594 40 493 q 395 696 245 696 q 563 652 486 696 q 685 532 640 609 q 730 364 730 456 m 229 419 l 526 419 q 481 504 522 470 q 386 538 441 538 q 288 508 328 538 q 229 419 247 478 z "},"f":{"ha":558,"x_min":33,"x_max":524,"o":"m 473 821 q 388 794 420 821 q 355 715 355 768 l 355 682 l 524 682 l 524 496 l 355 496 l 355 0 l 160 0 l 160 496 l 33 496 l 33 682 l 160 682 l 160 720 q 234 930 160 854 q 429 1007 307 1007 q 524 996 479 1007 l 524 815 q 473 821 505 821 z "},"g":{"ha":837,"x_min":40,"x_max":770,"o":"m 574 684 l 770 684 l 770 29 q 722 -136 770 -65 q 595 -244 675 -208 q 416 -281 515 -281 q 332 -275 374 -281 q 241 -251 290 -269 q 155 -206 192 -233 q 91 -133 117 -179 q 61 -26 64 -86 l 257 -26 q 304 -94 261 -71 q 410 -118 348 -118 q 525 -79 475 -118 q 574 21 574 -39 l 574 119 q 357 12 500 12 q 197 58 270 12 q 82 183 124 104 q 40 354 40 262 q 82 526 40 447 q 197 650 124 604 q 357 696 270 696 q 574 589 500 696 l 574 684 m 403 193 q 524 239 475 193 q 574 354 574 286 q 524 470 574 422 q 403 517 475 517 q 282 469 332 517 q 232 354 232 422 q 282 240 232 287 q 403 193 332 193 z "},"h":{"ha":798,"x_min":69,"x_max":730,"o":"m 450 696 q 656 613 581 696 q 730 386 730 531 l 730 0 l 534 0 l 534 361 q 497 468 534 427 q 400 509 460 509 q 302 468 339 509 q 265 361 265 428 l 265 0 l 69 0 l 69 972 l 265 972 l 265 593 q 450 696 333 696 z "},"i":{"ha":334,"x_min":47,"x_max":286,"o":"m 83 978 q 100 995 83 978 q 167 1013 118 1013 q 251 978 216 1013 q 286 895 286 943 q 251 810 286 846 q 167 775 216 775 q 83 810 118 775 q 47 895 47 846 q 83 978 47 943 m 69 682 l 265 682 l 265 0 l 69 0 l 69 682 z "},"j":{"ha":334,"x_min":-31,"x_max":286,"o":"m 83 978 q 100 995 83 978 q 167 1013 118 1013 q 251 978 216 1013 q 286 895 286 943 q 251 810 286 846 q 167 775 216 775 q 83 810 118 775 q 47 895 47 846 q 83 978 47 943 m -31 -86 q -19 -87 -27 -86 q -7 -87 -11 -87 q 69 -1 69 -87 l 69 682 l 265 682 l 265 -21 q 196 -200 265 -134 q 9 -265 127 -265 q -31 -262 1 -265 l -31 -86 z "},"k":{"ha":773,"x_min":69,"x_max":764,"o":"m 764 0 l 513 0 l 265 306 l 265 0 l 69 0 l 69 972 l 265 972 l 265 400 l 501 682 l 742 682 l 458 353 l 764 0 z "},"l":{"ha":334,"x_min":69,"x_max":265,"o":"m 265 972 l 265 0 l 69 0 l 69 972 l 265 972 z "},"m":{"ha":1205,"x_min":69,"x_max":1137,"o":"m 859 696 q 1060 621 982 696 q 1137 424 1137 547 l 1137 0 l 940 0 l 940 378 q 908 473 940 438 q 823 509 876 509 q 735 474 771 509 q 700 378 700 440 l 700 0 l 504 0 l 504 378 q 472 473 504 438 q 386 509 440 509 q 300 475 334 509 q 265 378 265 441 l 265 0 l 69 0 l 69 682 l 265 682 l 265 600 q 460 696 331 696 q 653 596 595 696 q 739 668 684 641 q 859 696 795 696 z "},"n":{"ha":798,"x_min":69,"x_max":730,"o":"m 450 696 q 656 613 581 696 q 730 386 730 531 l 730 0 l 534 0 l 534 361 q 497 468 534 427 q 400 509 460 509 q 302 468 339 509 q 265 361 265 428 l 265 0 l 69 0 l 69 682 l 265 682 l 265 593 q 450 696 333 696 z "},"o":{"ha":789,"x_min":40,"x_max":749,"o":"m 395 696 q 534 669 469 696 q 647 594 600 642 q 721 481 694 547 q 749 340 749 415 q 702 159 749 241 q 575 32 656 78 q 395 -14 494 -14 q 142 87 243 -14 q 40 340 40 189 q 142 594 40 492 q 395 696 243 696 m 395 509 q 278 461 325 509 q 232 340 232 413 q 278 222 232 270 q 395 174 325 174 q 510 222 463 174 q 557 340 557 270 q 510 461 557 413 q 395 509 464 509 z "},"p":{"ha":837,"x_min":69,"x_max":798,"o":"m 481 696 q 641 649 568 696 q 755 520 713 602 q 798 342 798 438 q 755 164 798 245 q 641 34 713 82 q 481 -14 568 -14 q 265 96 338 -14 l 265 -225 l 69 -225 l 69 682 l 265 682 l 265 586 q 481 696 339 696 m 436 174 q 556 222 507 174 q 606 342 606 271 q 556 461 606 412 q 436 510 507 510 q 315 461 364 510 q 265 342 265 412 q 315 222 265 271 q 436 174 364 174 z "},"q":{"ha":837,"x_min":40,"x_max":770,"o":"m 574 682 l 770 682 l 770 -225 l 574 -225 l 574 97 q 357 -14 499 -14 q 197 34 270 -14 q 82 164 124 82 q 40 342 40 245 q 82 520 40 438 q 197 649 124 602 q 357 696 270 696 q 574 585 499 696 l 574 682 m 403 174 q 524 222 475 174 q 574 342 574 271 q 524 461 574 412 q 403 510 475 510 q 282 461 332 510 q 232 342 232 412 q 282 222 232 271 q 403 174 332 174 z "},"r":{"ha":532,"x_min":69,"x_max":507,"o":"m 441 696 q 507 688 463 696 l 507 510 q 436 519 466 519 q 313 473 361 519 q 265 336 265 427 l 265 0 l 69 0 l 69 682 l 265 682 l 265 604 q 441 696 328 696 z "},"s":{"ha":651,"x_min":31,"x_max":618,"o":"m 346 -14 q 126 51 211 -14 q 31 231 41 116 l 218 231 q 254 175 221 196 q 336 154 288 154 q 404 168 380 154 q 428 205 428 181 q 407 242 428 228 q 352 263 386 256 q 277 277 318 271 q 195 296 236 284 q 121 328 155 309 q 66 384 87 347 q 45 472 45 420 q 118 632 45 569 q 315 696 192 696 q 515 636 432 696 q 611 468 599 576 l 414 468 q 384 514 412 495 q 311 533 356 533 q 255 521 276 533 q 233 486 233 509 q 255 453 233 465 q 310 434 276 440 q 385 422 344 428 q 466 403 425 416 q 541 369 507 390 q 596 306 575 347 q 618 207 618 264 q 539 50 618 113 q 346 -14 461 -14 z "},"t":{"ha":543,"x_min":14,"x_max":504,"o":"m 504 496 l 336 496 l 336 281 q 369 201 336 228 q 454 175 401 175 q 504 180 483 175 l 504 0 q 410 -11 462 -11 q 214 66 287 -11 q 140 278 140 142 l 140 496 l 14 496 l 14 682 l 140 682 l 140 861 l 336 861 l 336 682 l 504 682 l 504 496 z "},"u":{"ha":798,"x_min":69,"x_max":730,"o":"m 534 682 l 730 682 l 730 0 l 534 0 l 534 90 q 350 -14 470 -14 q 144 69 219 -14 q 69 297 69 152 l 69 682 l 265 682 l 265 322 q 302 214 265 254 q 400 174 338 174 q 497 214 460 174 q 534 322 534 254 l 534 682 z "},"v":{"ha":754,"x_min":11,"x_max":743,"o":"m 743 682 l 461 0 l 294 0 l 11 682 l 224 682 l 378 267 l 529 682 l 743 682 z "},"w":{"ha":1095,"x_min":11,"x_max":1084,"o":"m 257 0 l 11 682 l 221 682 l 335 309 l 471 682 l 624 682 l 761 309 l 873 682 l 1084 682 l 839 0 l 685 0 l 547 374 l 408 0 l 257 0 z "},"x":{"ha":760,"x_min":16,"x_max":743,"o":"m 743 0 l 507 0 l 378 184 l 249 0 l 16 0 l 261 351 l 31 682 l 267 682 l 379 521 l 493 682 l 726 682 l 496 353 l 743 0 z "},"y":{"ha":747,"x_min":11,"x_max":736,"o":"m 525 682 l 736 682 l 357 -227 l 147 -227 l 273 56 l 11 682 l 222 682 l 374 283 l 525 682 z "},"z":{"ha":700,"x_min":32,"x_max":652,"o":"m 647 682 l 647 543 l 317 187 l 652 187 l 652 0 l 32 0 l 32 139 l 364 496 l 57 496 l 57 682 l 647 682 z "},"{":{"ha":604,"x_min":28,"x_max":575,"o":"m 476 -265 q 249 -180 332 -265 q 165 56 165 -94 l 165 240 q 129 321 165 284 q 28 375 92 357 l 28 498 q 129 553 92 516 q 165 635 165 590 l 165 818 q 249 1052 165 966 q 476 1139 332 1137 l 575 1139 l 575 979 l 476 979 q 373 935 413 979 q 334 818 334 890 l 334 648 q 304 530 334 583 q 224 437 275 476 q 334 225 334 353 l 334 56 q 373 -61 334 -17 q 476 -106 413 -106 l 575 -106 l 575 -265 l 476 -265 z "},"|":{"ha":344,"x_min":69,"x_max":275,"o":"m 69 1111 l 275 1111 l 275 -227 l 69 -227 l 69 1111 z "},"}":{"ha":604,"x_min":29,"x_max":576,"o":"m 127 -265 l 29 -265 l 29 -106 l 127 -106 q 231 -61 191 -106 q 271 56 271 -16 l 271 225 q 379 437 271 352 q 271 648 271 521 l 271 818 q 231 935 271 890 q 127 979 191 979 l 29 979 l 29 1139 l 127 1139 q 355 1052 272 1137 q 439 818 439 966 l 439 635 q 475 553 439 590 q 576 498 512 516 l 576 375 q 476 321 513 357 q 439 240 439 284 l 439 56 q 355 -180 439 -94 q 127 -265 272 -265 z "},"~":{"ha":833,"x_min":69,"x_max":765,"o":"m 235 298 l 69 319 q 140 504 84 439 q 282 568 196 568 q 377 548 327 568 q 467 508 427 528 q 529 488 507 488 q 596 586 582 488 l 765 566 q 689 381 746 448 q 549 315 632 315 q 476 328 514 315 q 411 356 437 340 q 354 384 384 371 q 304 396 324 396 q 235 298 252 396 z "}," ":{"ha":283,"x_min":0,"x_max":0,"o":""},"¡":{"ha":395,"x_min":71,"x_max":325,"o":"m 197 986 q 288 950 251 986 q 325 861 325 913 q 288 773 325 809 q 197 737 251 737 q 107 773 144 737 q 71 861 71 810 q 107 950 71 913 q 197 986 144 986 m 93 0 l 100 672 l 296 672 l 301 0 l 93 0 z "},"¢":{"ha":769,"x_min":40,"x_max":729,"o":"m 729 265 q 653 95 720 167 q 486 -3 587 22 l 486 -167 l 290 -167 l 290 0 q 109 125 178 33 q 40 340 40 217 q 109 557 40 464 q 290 682 178 650 l 290 850 l 486 850 l 486 685 q 650 588 583 660 q 728 422 716 517 l 529 422 q 481 485 519 460 q 395 509 444 509 q 278 461 325 509 q 232 340 232 413 q 278 222 232 270 q 395 174 325 174 q 482 199 444 174 q 530 265 520 225 l 729 265 z "},"£":{"ha":854,"x_min":74,"x_max":817,"o":"m 390 380 q 367 282 390 330 q 300 197 343 235 l 800 197 l 800 0 l 74 0 l 74 197 q 156 274 127 227 q 184 376 184 321 l 184 401 l 77 401 l 77 567 l 184 567 l 184 661 q 270 896 184 806 q 501 986 355 986 q 721 909 633 986 q 817 708 810 833 l 606 708 q 576 763 604 741 q 507 785 549 785 q 419 742 448 785 q 390 624 390 700 l 390 567 l 603 567 l 603 401 l 390 401 l 390 380 z "},"¤":{"ha":1119,"x_min":69,"x_max":1050,"o":"m 977 493 q 920 286 977 383 l 1050 155 l 900 4 l 768 136 q 562 78 677 78 q 353 138 450 78 l 220 4 l 69 155 l 201 288 q 143 493 143 385 q 201 701 143 604 l 69 833 l 220 985 l 353 851 q 562 911 447 911 q 768 852 677 911 l 900 985 l 1050 833 l 920 703 q 977 493 977 606 m 562 272 q 718 336 654 272 q 782 493 782 401 q 718 652 782 587 q 562 717 654 717 q 404 651 469 717 q 338 493 338 585 q 404 337 338 402 q 562 272 470 272 z "},"¥":{"ha":945,"x_min":11,"x_max":933,"o":"m 933 972 l 661 542 l 835 542 l 835 376 l 579 376 l 579 0 l 372 0 l 372 376 l 111 376 l 111 542 l 289 542 l 11 972 l 262 972 l 478 619 l 693 972 l 933 972 z "},"¦":{"ha":344,"x_min":69,"x_max":275,"o":"m 69 582 l 69 1111 l 275 1111 l 275 582 l 69 582 m 69 -227 l 69 304 l 275 304 l 275 -227 l 69 -227 z "},"§":{"ha":811,"x_min":74,"x_max":739,"o":"m 739 339 q 690 192 739 260 q 739 37 739 132 q 648 -156 739 -75 q 411 -237 557 -237 q 169 -150 264 -237 q 74 72 74 -63 l 244 72 q 291 -34 244 7 q 411 -75 338 -75 q 523 -44 479 -75 q 567 37 567 -12 q 550 87 567 66 q 506 122 534 109 q 442 146 478 136 q 365 168 406 157 q 285 191 325 178 q 209 223 245 203 q 144 270 172 243 q 100 338 117 296 q 83 432 83 379 q 134 581 83 513 q 83 730 83 640 q 171 919 83 845 q 390 993 258 993 q 531 969 469 993 q 632 904 593 945 q 690 811 670 863 q 710 700 710 760 l 532 700 q 490 794 530 758 q 386 831 450 831 q 289 804 326 831 q 253 732 253 777 q 270 686 253 705 q 314 654 286 666 q 379 632 342 642 q 456 612 416 623 q 536 590 496 602 q 613 557 576 578 q 678 509 650 536 q 723 438 706 481 q 739 339 739 395 m 253 432 q 270 385 253 405 q 318 353 286 366 q 384 331 351 340 q 465 310 416 322 q 546 286 513 298 q 567 339 567 307 q 554 383 567 363 q 523 414 542 402 q 473 437 504 426 q 415 455 443 448 q 348 473 387 462 q 281 493 309 484 q 253 432 253 467 z "},"¨":{"ha":671,"x_min":69,"x_max":602,"o":"m 105 978 q 123 995 105 978 q 189 1013 140 1013 q 273 978 238 1013 q 309 895 309 943 q 273 810 309 846 q 189 775 238 775 q 105 810 140 775 q 69 895 69 846 q 105 978 69 943 m 398 978 q 416 995 398 978 q 482 1013 433 1013 q 566 978 531 1013 q 602 895 602 943 q 566 810 602 846 q 482 775 531 775 q 398 810 433 775 q 363 895 363 846 q 398 978 363 943 z "},"©":{"ha":1094,"x_min":47,"x_max":1047,"o":"m 546 -14 q 297 54 412 -14 q 115 236 182 121 q 47 486 47 351 q 115 737 47 622 q 297 919 182 852 q 546 986 412 986 q 798 919 682 986 q 980 737 913 852 q 1047 486 1047 622 q 980 236 1047 351 q 798 54 913 121 q 546 -14 682 -14 m 337 121 q 386 92 337 121 q 547 64 434 64 q 757 121 661 64 q 910 275 854 178 q 966 486 966 372 q 910 697 966 600 q 757 851 854 795 q 547 908 661 908 q 385 874 463 908 q 251 784 307 841 q 161 650 195 728 q 127 486 127 572 q 184 275 127 372 q 337 121 240 178 m 553 210 q 357 290 435 210 q 278 489 278 370 q 357 688 278 608 q 553 768 435 768 q 725 711 650 768 q 812 570 801 654 l 679 570 q 633 630 669 606 q 553 653 598 653 q 443 606 487 653 q 399 489 399 559 q 443 372 399 419 q 553 325 487 325 q 635 350 599 325 q 681 416 671 376 l 814 416 q 726 267 798 325 q 553 210 653 210 z "},"ª":{"ha":501,"x_min":24,"x_max":463,"o":"m 339 978 l 463 978 l 463 568 l 339 568 l 339 624 q 212 559 296 559 q 79 622 134 559 q 24 772 24 685 q 79 924 24 861 q 212 986 134 986 q 339 922 295 986 l 339 978 m 173 706 q 187 692 173 706 q 241 677 201 677 q 311 705 282 677 q 339 772 339 732 q 311 841 339 813 q 241 868 282 868 q 173 840 201 868 q 144 772 144 812 q 173 706 144 734 z "},"«":{"ha":989,"x_min":68,"x_max":916,"o":"m 464 56 l 68 329 l 68 457 l 464 732 l 464 532 l 249 393 l 464 258 l 464 56 m 916 56 l 519 329 l 519 457 l 916 732 l 916 532 l 700 393 l 916 258 l 916 56 z "},"¬":{"ha":812,"x_min":69,"x_max":743,"o":"m 743 534 l 743 56 l 558 56 l 558 351 l 69 351 l 69 534 l 743 534 z "},"­":{"ha":519,"x_min":35,"x_max":485,"o":"m 35 269 l 35 453 l 485 453 l 485 269 l 35 269 z "},"®":{"ha":1088,"x_min":47,"x_max":1047,"o":"m 546 986 q 798 919 682 986 q 980 737 913 852 q 1047 486 1047 622 q 980 236 1047 351 q 798 54 913 121 q 546 -14 682 -14 q 297 54 412 -14 q 115 236 182 121 q 47 486 47 351 q 115 737 47 622 q 297 919 182 852 q 546 986 412 986 m 337 121 q 386 92 337 121 q 547 64 434 64 q 757 121 661 64 q 910 275 854 178 q 966 486 966 372 q 910 697 966 600 q 757 851 854 795 q 547 908 661 908 q 385 874 463 908 q 251 784 307 841 q 161 650 195 728 q 127 486 127 572 q 184 275 127 372 q 337 121 240 178 m 739 591 q 717 500 739 540 q 654 441 694 461 l 796 218 l 653 218 l 532 422 l 476 422 l 476 218 l 357 218 l 357 760 l 567 760 q 688 710 636 760 q 739 591 739 661 m 475 646 l 476 525 l 555 525 q 601 543 583 525 q 619 586 619 560 q 600 628 619 611 q 555 646 581 646 l 475 646 z "},"¯":{"ha":583,"x_min":69,"x_max":514,"o":"m 69 764 l 69 921 l 514 921 l 514 764 l 69 764 z "},"°":{"ha":573,"x_min":72,"x_max":500,"o":"m 500 775 q 437 622 500 686 q 286 558 374 558 q 135 622 198 558 q 72 775 72 686 q 135 924 72 862 q 286 986 198 986 q 437 924 374 986 q 500 775 500 862 m 379 775 q 352 840 379 813 q 286 867 325 867 q 220 840 248 867 q 193 775 193 813 q 220 708 193 736 q 286 681 248 681 q 352 708 325 681 q 379 775 379 736 z "},"±":{"ha":823,"x_min":69,"x_max":754,"o":"m 504 715 l 754 715 l 754 532 l 504 532 l 504 281 l 319 281 l 319 532 l 69 532 l 69 715 l 319 715 l 319 966 l 504 966 l 504 715 m 69 0 l 69 183 l 754 183 l 754 0 l 69 0 z "},"²":{"ha":475,"x_min":22,"x_max":444,"o":"m 36 389 l 36 482 l 221 661 q 291 732 279 716 q 311 790 311 760 q 289 836 311 817 q 236 854 267 854 q 174 827 195 854 q 157 751 153 800 l 26 751 q 82 917 22 853 q 239 981 142 981 q 386 928 328 981 q 444 793 444 875 q 411 686 444 736 q 313 579 378 636 l 249 515 l 444 515 l 444 389 l 36 389 z "},"³":{"ha":462,"x_min":9,"x_max":440,"o":"m 146 734 l 252 848 l 28 848 l 28 972 l 435 972 l 435 888 l 301 750 q 401 696 362 743 q 440 583 440 648 q 379 437 440 494 q 224 380 318 380 q 76 432 136 380 q 9 564 16 483 l 140 564 q 168 523 146 539 q 224 507 189 507 q 283 529 260 507 q 306 586 306 551 q 257 653 306 635 q 146 652 208 672 l 146 734 z "},"´":{"ha":488,"x_min":69,"x_max":419,"o":"m 419 974 l 250 757 l 69 757 l 189 974 l 419 974 z "},"µ":{"ha":798,"x_min":69,"x_max":730,"o":"m 534 682 l 730 682 l 730 0 l 534 0 l 534 90 q 350 -14 470 -14 q 265 -3 307 -14 l 265 -227 l 69 -227 l 69 682 l 265 682 l 265 322 q 302 214 265 254 q 400 174 338 174 q 497 214 460 174 q 534 322 534 254 l 534 682 z "},"¶":{"ha":1105,"x_min":36,"x_max":1076,"o":"m 1076 972 l 1076 775 l 939 775 l 939 -227 l 753 -227 l 753 775 l 621 775 l 621 -227 l 435 -227 l 435 346 l 370 346 q 131 435 225 346 q 36 660 36 524 q 129 884 36 795 q 366 972 222 972 l 1076 972 m 435 543 l 435 775 l 359 775 q 275 742 309 775 q 241 660 241 709 q 276 577 241 611 q 359 543 310 543 l 435 543 z "},"·":{"ha":395,"x_min":71,"x_max":325,"o":"m 197 293 q 107 329 144 293 q 71 418 71 366 q 107 506 71 469 q 197 542 144 542 q 288 506 251 542 q 325 418 325 470 q 288 329 325 366 q 197 293 251 293 z "},"¸":{"ha":430,"x_min":69,"x_max":361,"o":"m 127 33 l 275 33 q 338 -53 317 -9 q 360 -136 359 -97 q 345 -208 361 -174 q 297 -265 328 -242 q 219 -299 266 -288 q 115 -304 172 -310 l 69 -165 q 171 -149 135 -166 q 211 -102 208 -131 q 193 -37 214 -73 q 127 33 172 -1 z "},"¹":{"ha":328,"x_min":29,"x_max":288,"o":"m 288 972 l 288 389 l 158 389 l 158 794 l 29 696 l 29 850 l 200 972 l 288 972 z "},"º":{"ha":473,"x_min":24,"x_max":450,"o":"m 236 986 q 389 924 327 986 q 450 772 450 863 q 389 621 450 682 q 236 559 327 559 q 85 621 146 559 q 24 772 24 682 q 85 925 24 863 q 236 986 146 986 m 236 867 q 171 840 197 867 q 144 772 144 813 q 171 705 144 732 q 236 677 197 677 q 301 705 275 677 q 328 772 328 732 q 301 840 328 813 q 236 867 275 867 z "},"»":{"ha":989,"x_min":74,"x_max":922,"o":"m 74 56 l 74 258 l 290 393 l 74 532 l 74 732 l 471 457 l 471 329 l 74 56 m 525 56 l 525 258 l 742 393 l 525 532 l 525 732 l 922 457 l 922 329 l 525 56 z "},"¼":{"ha":1173,"x_min":29,"x_max":1157,"o":"m 288 389 l 158 389 l 158 794 l 29 696 l 29 850 l 200 972 l 288 972 l 288 389 m 819 972 l 975 972 l 329 0 l 174 0 l 819 972 m 1157 239 l 1157 119 l 1096 119 l 1096 0 l 966 0 l 966 119 l 682 119 l 682 199 l 884 583 l 1031 583 l 848 239 l 966 239 l 966 368 l 1096 368 l 1096 239 l 1157 239 z "},"½":{"ha":1184,"x_min":29,"x_max":1187,"o":"m 288 972 l 288 389 l 158 389 l 158 794 l 29 696 l 29 850 l 200 972 l 288 972 m 819 972 l 975 972 l 329 0 l 174 0 l 819 972 m 779 0 l 779 93 l 962 272 q 1016 324 1004 311 q 1041 358 1029 337 q 1053 401 1053 379 q 1031 447 1053 428 q 979 465 1010 465 q 918 438 939 465 q 899 363 897 411 l 768 363 q 825 528 764 464 q 981 591 885 591 q 1128 539 1070 591 q 1186 404 1186 486 q 1153 297 1186 347 q 1054 191 1120 248 l 990 126 l 1187 126 l 1187 0 l 779 0 z "},"¾":{"ha":1229,"x_min":9,"x_max":1213,"o":"m 440 583 q 379 437 440 494 q 224 380 318 380 q 76 432 136 380 q 9 564 16 483 l 140 564 q 168 523 146 539 q 224 507 189 507 q 283 529 260 507 q 306 586 306 551 q 257 653 306 635 q 146 652 208 672 l 146 734 l 252 848 l 28 848 l 28 972 l 435 972 l 435 888 l 301 750 q 401 696 362 743 q 440 583 440 648 m 876 972 l 1032 972 l 386 0 l 231 0 l 876 972 m 1213 239 l 1213 119 l 1153 119 l 1153 0 l 1022 0 l 1022 119 l 737 119 l 737 199 l 939 583 l 1086 583 l 905 239 l 1022 239 l 1022 368 l 1153 368 l 1153 239 l 1213 239 z "},"¿":{"ha":722,"x_min":22,"x_max":711,"o":"m 370 986 q 459 950 422 986 q 496 861 496 913 q 459 773 496 809 q 370 737 422 737 q 279 773 316 737 q 241 861 241 809 q 279 950 241 913 q 370 986 316 986 m 357 -14 q 119 71 215 -14 q 22 279 22 155 q 36 377 22 332 q 72 452 50 422 q 120 507 94 482 q 173 552 146 532 q 222 590 200 572 q 258 628 244 608 q 272 672 272 649 l 473 672 q 460 581 473 621 q 426 515 447 541 q 379 468 405 489 q 328 430 353 447 q 281 395 302 412 q 247 354 260 378 q 233 301 233 330 q 269 216 233 247 q 361 186 304 186 q 464 230 427 186 q 501 340 501 273 l 708 340 q 665 161 711 242 q 538 33 620 79 q 357 -14 456 -14 z "},"À":{"ha":957,"x_min":8,"x_max":949,"o":"m 586 1047 l 406 1047 l 236 1264 l 467 1264 l 586 1047 m 725 0 l 664 163 l 289 163 l 227 0 l 8 0 l 395 972 l 561 972 l 949 0 l 725 0 m 357 339 l 596 339 l 478 650 l 357 339 z "},"Á":{"ha":957,"x_min":8,"x_max":949,"o":"m 730 1264 l 561 1047 l 380 1047 l 500 1264 l 730 1264 m 725 0 l 664 163 l 289 163 l 227 0 l 8 0 l 395 972 l 561 972 l 949 0 l 725 0 m 357 339 l 596 339 l 478 650 l 357 339 z "},"Â":{"ha":957,"x_min":8,"x_max":949,"o":"m 479 1147 l 411 1051 l 237 1051 l 372 1268 l 586 1268 l 722 1051 l 549 1051 l 479 1147 m 725 0 l 664 163 l 289 163 l 227 0 l 8 0 l 395 972 l 561 972 l 949 0 l 725 0 m 357 339 l 596 339 l 478 650 l 357 339 z "},"Ã":{"ha":957,"x_min":8,"x_max":949,"o":"m 385 1117 q 353 1098 365 1117 q 342 1048 340 1078 l 183 1076 q 244 1225 191 1168 q 370 1283 297 1283 q 451 1265 410 1283 q 524 1228 493 1246 q 568 1210 554 1210 q 603 1228 590 1210 q 618 1276 616 1246 l 777 1250 q 713 1100 766 1158 q 589 1042 659 1042 q 504 1061 546 1042 q 432 1098 463 1080 q 385 1117 401 1117 m 725 0 l 664 163 l 289 163 l 227 0 l 8 0 l 395 972 l 561 972 l 949 0 l 725 0 m 357 339 l 596 339 l 478 650 l 357 339 z "},"Ä":{"ha":957,"x_min":8,"x_max":949,"o":"m 418 1077 q 400 1059 418 1077 q 334 1042 382 1042 q 249 1077 285 1042 q 214 1161 214 1112 q 249 1244 214 1209 q 334 1279 285 1279 q 418 1244 382 1279 q 453 1161 453 1209 q 418 1077 453 1112 m 625 1042 q 541 1077 577 1042 q 505 1161 505 1112 q 541 1244 505 1208 q 625 1279 577 1279 q 709 1244 674 1279 q 745 1161 745 1209 q 709 1077 745 1112 q 625 1042 674 1042 m 725 0 l 664 163 l 289 163 l 227 0 l 8 0 l 395 972 l 561 972 l 949 0 l 725 0 m 357 339 l 596 339 l 478 650 l 357 339 z "},"Å":{"ha":957,"x_min":8,"x_max":949,"o":"m 622 1094 q 593 1066 622 1094 q 481 1039 565 1039 q 340 1094 397 1039 q 283 1229 283 1148 q 340 1365 283 1310 q 481 1421 397 1421 q 622 1365 565 1421 q 679 1229 679 1310 q 622 1094 679 1148 m 537 1284 q 526 1296 537 1284 q 481 1307 515 1307 q 424 1284 447 1307 q 401 1229 401 1262 q 425 1175 401 1197 q 481 1153 448 1153 q 537 1175 514 1153 q 559 1229 559 1197 q 537 1284 559 1262 m 725 0 l 664 163 l 289 163 l 227 0 l 8 0 l 395 972 l 561 972 l 949 0 l 725 0 m 357 339 l 596 339 l 478 650 l 357 339 z "},"Æ":{"ha":1307,"x_min":8,"x_max":1254,"o":"m 1254 775 l 871 775 l 871 600 l 1213 600 l 1213 403 l 871 403 l 871 197 l 1254 197 l 1254 0 l 668 0 l 668 207 l 353 207 l 241 0 l 8 0 l 553 972 l 1254 972 l 1254 775 m 450 390 l 668 390 l 668 799 l 450 390 z "},"Ç":{"ha":1051,"x_min":47,"x_max":1006,"o":"m 1006 354 q 869 106 980 206 q 602 -11 758 7 q 648 -126 644 -68 q 626 -224 653 -183 q 539 -289 598 -266 q 404 -304 481 -312 l 358 -165 q 469 -144 433 -167 q 501 -85 505 -121 q 461 -8 497 -50 q 163 157 279 19 q 47 486 47 294 q 112 741 47 627 q 289 921 176 856 q 541 986 401 986 q 755 940 654 986 q 923 813 856 895 q 1003 631 989 731 l 774 631 q 689 743 754 699 q 541 786 625 786 q 339 700 420 786 q 258 486 258 614 q 339 272 258 358 q 541 186 420 186 q 691 233 625 186 q 775 354 756 281 l 1006 354 z "},"È":{"ha":722,"x_min":74,"x_max":669,"o":"m 136 1264 l 367 1264 l 486 1047 l 306 1047 l 136 1264 m 74 972 l 669 972 l 669 775 l 279 775 l 279 600 l 627 600 l 627 403 l 279 403 l 279 197 l 669 197 l 669 0 l 74 0 l 74 972 z "},"É":{"ha":722,"x_min":74,"x_max":669,"o":"m 632 1264 l 463 1047 l 282 1047 l 401 1264 l 632 1264 m 74 972 l 669 972 l 669 775 l 279 775 l 279 600 l 627 600 l 627 403 l 279 403 l 279 197 l 669 197 l 669 0 l 74 0 l 74 972 z "},"Ê":{"ha":722,"x_min":74,"x_max":669,"o":"m 380 1147 l 313 1051 l 139 1051 l 273 1268 l 488 1268 l 624 1051 l 450 1051 l 380 1147 m 669 775 l 279 775 l 279 600 l 627 600 l 627 403 l 279 403 l 279 197 l 669 197 l 669 0 l 74 0 l 74 972 l 669 972 l 669 775 z "},"Ë":{"ha":722,"x_min":74,"x_max":669,"o":"m 151 1244 q 168 1262 151 1244 q 235 1279 186 1279 q 319 1244 283 1279 q 354 1161 354 1209 q 319 1077 354 1112 q 235 1042 283 1042 q 151 1077 186 1042 q 115 1161 115 1112 q 151 1244 115 1209 m 526 1279 q 610 1244 575 1279 q 646 1161 646 1209 q 610 1077 646 1112 q 526 1042 575 1042 q 443 1077 478 1042 q 407 1161 407 1112 q 443 1244 407 1208 q 526 1279 478 1279 m 74 972 l 669 972 l 669 775 l 279 775 l 279 600 l 627 600 l 627 403 l 279 403 l 279 197 l 669 197 l 669 0 l 74 0 l 74 972 z "},"Ì":{"ha":353,"x_min":-69,"x_max":282,"o":"m -69 1264 l 163 1264 l 282 1047 l 102 1047 l -69 1264 m 74 972 l 279 972 l 279 0 l 74 0 l 74 972 z "},"Í":{"ha":353,"x_min":74,"x_max":428,"o":"m 428 1264 l 258 1047 l 78 1047 l 197 1264 l 428 1264 m 74 972 l 279 972 l 279 0 l 74 0 l 74 972 z "},"Î":{"ha":353,"x_min":-66,"x_max":418,"o":"m 175 1147 l 107 1051 l -66 1051 l 68 1268 l 282 1268 l 418 1051 l 244 1051 l 175 1147 m 74 0 l 74 972 l 279 972 l 279 0 l 74 0 z "},"Ï":{"ha":353,"x_min":-89,"x_max":441,"o":"m -54 1244 q -36 1262 -54 1244 q 31 1279 -18 1279 q 115 1244 79 1279 q 150 1161 150 1209 q 115 1077 150 1112 q 31 1042 79 1042 q -54 1077 -18 1042 q -89 1161 -89 1112 q -54 1244 -89 1209 m 322 1279 q 406 1244 371 1279 q 441 1161 441 1209 q 406 1077 441 1112 q 322 1042 371 1042 q 238 1077 274 1042 q 203 1161 203 1112 q 238 1244 203 1208 q 322 1279 274 1279 m 74 972 l 279 972 l 279 0 l 74 0 l 74 972 z "},"Ð":{"ha":945,"x_min":-46,"x_max":900,"o":"m 407 972 q 658 910 545 972 q 836 737 771 848 q 900 490 900 627 q 836 239 900 351 q 658 63 771 127 q 407 0 545 0 l 74 0 l 74 425 l -46 425 l -46 555 l 74 555 l 74 972 l 407 972 m 421 197 q 612 281 536 197 q 688 490 688 364 q 613 695 688 614 q 421 775 538 775 l 279 775 l 279 555 l 419 555 l 419 425 l 279 425 l 279 197 l 421 197 z "},"Ñ":{"ha":923,"x_min":74,"x_max":850,"o":"m 170 1076 q 230 1225 178 1168 q 355 1283 283 1283 q 437 1265 395 1283 q 509 1228 479 1246 q 554 1210 540 1210 q 589 1228 576 1210 q 604 1276 603 1246 l 762 1250 q 699 1100 752 1158 q 575 1042 646 1042 q 491 1061 532 1042 q 418 1098 449 1080 q 371 1117 387 1117 q 339 1098 351 1117 q 328 1048 327 1078 l 170 1076 m 74 972 l 249 972 l 644 406 l 644 972 l 850 972 l 850 0 l 677 0 l 279 567 l 279 0 l 74 0 l 74 972 z "},"Ò":{"ha":1086,"x_min":47,"x_max":1040,"o":"m 298 1264 l 529 1264 l 648 1047 l 468 1047 l 298 1264 m 290 921 q 347 954 290 921 q 543 986 404 986 q 797 921 683 986 q 976 741 911 856 q 1040 486 1040 627 q 976 231 1040 346 q 797 52 911 117 q 543 -14 683 -14 q 290 52 404 -14 q 112 231 176 117 q 47 486 47 346 q 112 741 47 627 q 290 921 176 856 m 747 700 q 706 743 747 700 q 543 786 665 786 q 340 700 421 786 q 258 486 258 614 q 340 272 258 358 q 543 186 421 186 q 747 272 665 186 q 828 486 828 358 q 747 700 828 614 z "},"Ó":{"ha":1086,"x_min":47,"x_max":1040,"o":"m 794 1264 l 625 1047 l 444 1047 l 564 1264 l 794 1264 m 290 921 q 347 954 290 921 q 543 986 404 986 q 797 921 683 986 q 976 741 911 856 q 1040 486 1040 627 q 976 231 1040 346 q 797 52 911 117 q 543 -14 683 -14 q 290 52 404 -14 q 112 231 176 117 q 47 486 47 346 q 112 741 47 627 q 290 921 176 856 m 747 700 q 706 743 747 700 q 543 786 665 786 q 340 700 421 786 q 258 486 258 614 q 340 272 258 358 q 543 186 421 186 q 747 272 665 186 q 828 486 828 358 q 747 700 828 614 z "},"Ô":{"ha":1086,"x_min":47,"x_max":1040,"o":"m 543 1147 l 475 1051 l 301 1051 l 436 1268 l 650 1268 l 786 1051 l 612 1051 l 543 1147 m 290 921 q 347 954 290 921 q 543 986 404 986 q 797 921 683 986 q 976 741 911 856 q 1040 486 1040 627 q 976 231 1040 346 q 797 52 911 117 q 543 -14 683 -14 q 290 52 404 -14 q 112 231 176 117 q 47 486 47 346 q 112 741 47 627 q 290 921 176 856 m 340 272 q 380 229 340 272 q 543 186 421 186 q 747 272 665 186 q 828 486 828 358 q 747 700 828 614 q 543 786 665 786 q 340 700 421 786 q 258 486 258 614 q 340 272 258 358 z "},"Õ":{"ha":1086,"x_min":47,"x_max":1040,"o":"m 248 1076 q 308 1225 256 1168 q 433 1283 361 1283 q 515 1265 473 1283 q 587 1228 557 1246 q 632 1210 618 1210 q 667 1228 654 1210 q 682 1276 681 1246 l 840 1250 q 777 1100 830 1158 q 653 1042 724 1042 q 569 1061 610 1042 q 496 1098 527 1080 q 449 1117 465 1117 q 417 1098 429 1117 q 406 1048 405 1078 l 248 1076 m 290 921 q 347 954 290 921 q 543 986 404 986 q 797 921 683 986 q 976 741 911 856 q 1040 486 1040 627 q 976 231 1040 346 q 797 52 911 117 q 543 -14 683 -14 q 290 52 404 -14 q 112 231 176 117 q 47 486 47 346 q 112 741 47 627 q 290 921 176 856 m 747 700 q 706 743 747 700 q 543 786 665 786 q 340 700 421 786 q 258 486 258 614 q 340 272 258 358 q 543 186 421 186 q 747 272 665 186 q 828 486 828 358 q 747 700 828 614 z "},"Ö":{"ha":1086,"x_min":47,"x_max":1040,"o":"m 313 1244 q 331 1262 313 1244 q 397 1279 349 1279 q 481 1244 446 1279 q 517 1161 517 1209 q 481 1077 517 1112 q 397 1042 446 1042 q 313 1077 349 1042 q 278 1161 278 1112 q 313 1244 278 1209 m 689 1279 q 773 1244 738 1279 q 808 1161 808 1209 q 773 1077 808 1112 q 689 1042 738 1042 q 605 1077 641 1042 q 570 1161 570 1112 q 605 1244 570 1208 q 689 1279 641 1279 m 290 921 q 347 954 290 921 q 543 986 404 986 q 797 921 683 986 q 976 741 911 856 q 1040 486 1040 627 q 976 231 1040 346 q 797 52 911 117 q 543 -14 683 -14 q 290 52 404 -14 q 112 231 176 117 q 47 486 47 346 q 112 741 47 627 q 290 921 176 856 m 747 700 q 706 743 747 700 q 543 786 665 786 q 340 700 421 786 q 258 486 258 614 q 340 272 258 358 q 543 186 421 186 q 747 272 665 186 q 828 486 828 358 q 747 700 828 614 z "},"×":{"ha":790,"x_min":69,"x_max":721,"o":"m 721 657 l 525 461 l 721 265 l 591 135 l 396 330 l 200 135 l 69 265 l 264 461 l 69 656 l 200 786 l 395 591 l 590 787 l 721 657 z "},"Ø":{"ha":1086,"x_min":47,"x_max":1040,"o":"m 290 921 q 347 954 290 921 q 543 986 404 986 q 797 921 683 986 q 976 741 911 856 q 1040 486 1040 627 q 976 231 1040 346 q 797 52 911 117 q 543 -14 683 -14 q 290 52 404 -14 q 112 231 176 117 q 47 486 47 346 q 112 741 47 627 q 290 921 176 856 m 543 786 q 340 700 421 786 q 258 486 258 614 q 298 329 258 397 l 657 762 q 543 786 604 786 m 543 186 q 747 272 665 186 q 828 486 828 358 q 786 646 828 572 l 428 210 q 543 186 481 186 z "},"Ù":{"ha":918,"x_min":74,"x_max":844,"o":"m 215 1264 l 446 1264 l 566 1047 l 385 1047 l 215 1264 m 460 -12 q 262 38 350 -12 q 124 177 174 88 q 74 376 74 266 l 74 972 l 279 972 l 279 376 q 331 241 279 295 q 460 187 382 187 q 588 241 537 187 q 639 376 639 295 l 639 972 l 844 972 l 844 376 q 794 177 844 266 q 657 38 745 88 q 460 -12 569 -12 z "},"Ú":{"ha":918,"x_min":74,"x_max":844,"o":"m 711 1264 l 542 1047 l 361 1047 l 481 1264 l 711 1264 m 460 -12 q 262 38 350 -12 q 124 177 174 88 q 74 376 74 266 l 74 972 l 279 972 l 279 376 q 331 241 279 295 q 460 187 382 187 q 588 241 537 187 q 639 376 639 295 l 639 972 l 844 972 l 844 376 q 794 177 844 266 q 657 38 745 88 q 460 -12 569 -12 z "},"Û":{"ha":918,"x_min":74,"x_max":844,"o":"m 458 1147 l 390 1051 l 216 1051 l 351 1268 l 566 1268 l 701 1051 l 528 1051 l 458 1147 m 639 972 l 844 972 l 844 376 q 794 177 844 266 q 657 38 745 88 q 460 -12 569 -12 q 262 38 350 -12 q 124 177 174 88 q 74 376 74 266 l 74 972 l 279 972 l 279 376 q 331 241 279 295 q 460 187 382 187 q 588 241 537 187 q 639 376 639 295 l 639 972 z "},"Ü":{"ha":918,"x_min":74,"x_max":844,"o":"m 230 1244 q 248 1262 230 1244 q 314 1279 265 1279 q 398 1244 363 1279 q 433 1161 433 1209 q 398 1077 433 1112 q 314 1042 363 1042 q 230 1077 265 1042 q 195 1161 195 1112 q 230 1244 195 1209 m 606 1279 q 690 1244 654 1279 q 725 1161 725 1209 q 690 1077 725 1112 q 606 1042 654 1042 q 522 1077 557 1042 q 486 1161 486 1112 q 522 1244 486 1208 q 606 1279 557 1279 m 460 -12 q 262 38 350 -12 q 124 177 174 88 q 74 376 74 266 l 74 972 l 279 972 l 279 376 q 331 241 279 295 q 460 187 382 187 q 588 241 537 187 q 639 376 639 295 l 639 972 l 844 972 l 844 376 q 794 177 844 266 q 657 38 745 88 q 460 -12 569 -12 z "},"Ý":{"ha":945,"x_min":11,"x_max":933,"o":"m 726 1264 l 557 1047 l 376 1047 l 496 1264 l 726 1264 m 11 972 l 262 972 l 478 619 l 693 972 l 933 972 l 579 411 l 579 0 l 372 0 l 372 411 l 11 972 z "},"Þ":{"ha":805,"x_min":74,"x_max":774,"o":"m 444 800 q 681 712 587 800 q 774 488 774 623 q 681 262 774 351 q 444 174 587 174 l 279 174 l 279 0 l 74 0 l 74 972 l 279 972 l 279 800 l 444 800 m 444 371 q 532 404 497 371 q 567 488 567 437 q 532 570 567 537 q 444 603 497 603 l 279 603 l 279 371 l 444 371 z "},"ß":{"ha":823,"x_min":66,"x_max":785,"o":"m 66 0 l 66 597 q 163 883 66 779 q 428 986 260 986 q 545 965 488 986 q 645 906 602 943 q 714 816 688 869 q 741 703 741 762 q 713 601 741 646 q 644 532 685 555 q 746 442 707 500 q 785 311 785 384 q 695 91 785 181 q 476 0 605 0 l 353 0 l 353 197 l 464 197 q 543 229 511 197 q 575 307 575 261 q 541 385 575 354 q 453 416 507 416 l 353 416 l 353 602 l 432 602 q 503 628 475 602 q 530 692 530 654 q 501 761 530 734 q 424 789 471 789 q 314 736 356 789 q 272 597 272 684 l 272 0 l 66 0 z "},"à":{"ha":837,"x_min":40,"x_max":770,"o":"m 567 757 l 386 757 l 216 974 l 447 974 l 567 757 m 574 682 l 770 682 l 770 0 l 574 0 l 574 97 q 357 -14 499 -14 q 197 34 270 -14 q 82 164 124 82 q 40 342 40 245 q 82 520 40 438 q 197 649 124 602 q 357 696 270 696 q 574 585 499 696 l 574 682 m 403 174 q 524 222 475 174 q 574 342 574 271 q 524 461 574 412 q 403 510 475 510 q 282 461 332 510 q 232 342 232 412 q 282 222 232 271 q 403 174 332 174 z "},"á":{"ha":837,"x_min":40,"x_max":770,"o":"m 713 974 l 543 757 l 363 757 l 481 974 l 713 974 m 574 682 l 770 682 l 770 0 l 574 0 l 574 97 q 357 -14 499 -14 q 197 34 270 -14 q 82 164 124 82 q 40 342 40 245 q 82 520 40 438 q 197 649 124 602 q 357 696 270 696 q 574 585 499 696 l 574 682 m 403 174 q 524 222 475 174 q 574 342 574 271 q 524 461 574 412 q 403 510 475 510 q 282 461 332 510 q 232 342 232 412 q 282 222 232 271 q 403 174 332 174 z "},"â":{"ha":837,"x_min":40,"x_max":770,"o":"m 461 859 l 392 761 l 218 761 l 354 978 l 567 978 l 703 761 l 529 761 l 461 859 m 574 682 l 770 682 l 770 0 l 574 0 l 574 97 q 357 -14 499 -14 q 197 34 270 -14 q 82 164 124 82 q 40 342 40 245 q 82 520 40 438 q 197 649 124 602 q 357 696 270 696 q 574 585 499 696 l 574 682 m 403 174 q 524 222 475 174 q 574 342 574 271 q 524 461 574 412 q 403 510 475 510 q 282 461 332 510 q 232 342 232 412 q 282 222 232 271 q 403 174 332 174 z "},"ã":{"ha":837,"x_min":40,"x_max":770,"o":"m 366 827 q 334 807 346 827 q 322 758 321 788 l 164 786 q 225 935 172 878 q 350 993 277 993 q 432 975 390 993 q 504 938 473 956 q 549 920 534 920 q 584 938 570 920 q 599 986 597 956 l 757 960 q 693 810 747 868 q 570 751 640 751 q 485 770 527 751 q 413 808 444 789 q 366 827 382 827 m 574 682 l 770 682 l 770 0 l 574 0 l 574 97 q 357 -14 499 -14 q 197 34 270 -14 q 82 164 124 82 q 40 342 40 245 q 82 520 40 438 q 197 649 124 602 q 357 696 270 696 q 574 585 499 696 l 574 682 m 403 174 q 524 222 475 174 q 574 342 574 271 q 524 461 574 412 q 403 510 475 510 q 282 461 332 510 q 232 342 232 412 q 282 222 232 271 q 403 174 332 174 z "},"ä":{"ha":837,"x_min":40,"x_max":770,"o":"m 398 810 q 380 793 398 810 q 314 775 363 775 q 230 810 265 775 q 195 895 195 846 q 230 978 195 943 q 314 1013 265 1013 q 398 978 363 1013 q 433 895 433 943 q 398 810 433 846 m 691 810 q 673 793 691 810 q 607 775 656 775 q 523 810 558 775 q 488 895 488 846 q 523 978 488 943 q 607 1013 558 1013 q 691 978 656 1013 q 726 895 726 943 q 691 810 726 846 m 574 682 l 770 682 l 770 0 l 574 0 l 574 97 q 357 -14 499 -14 q 197 34 270 -14 q 82 164 124 82 q 40 342 40 245 q 82 520 40 438 q 197 649 124 602 q 357 696 270 696 q 574 585 499 696 l 574 682 m 403 174 q 524 222 475 174 q 574 342 574 271 q 524 461 574 412 q 403 510 475 510 q 282 461 332 510 q 232 342 232 412 q 282 222 232 271 q 403 174 332 174 z "},"å":{"ha":837,"x_min":40,"x_max":770,"o":"m 461 749 q 321 804 378 749 q 264 939 264 859 q 321 1075 264 1020 q 461 1131 378 1131 q 603 1075 545 1131 q 660 939 660 1020 q 603 803 660 858 q 461 749 545 749 m 461 1017 q 405 995 427 1017 q 383 939 383 972 q 406 885 383 907 q 461 863 428 863 q 519 885 496 863 q 542 939 542 907 q 519 994 542 972 q 461 1017 496 1017 m 574 682 l 770 682 l 770 0 l 574 0 l 574 97 q 357 -14 499 -14 q 197 34 270 -14 q 82 164 124 82 q 40 342 40 245 q 82 520 40 438 q 197 649 124 602 q 357 696 270 696 q 574 585 499 696 l 574 682 m 403 174 q 524 222 475 174 q 574 342 574 271 q 524 461 574 412 q 403 510 475 510 q 282 461 332 510 q 232 342 232 412 q 282 222 232 271 q 403 174 332 174 z "},"æ":{"ha":1361,"x_min":40,"x_max":1321,"o":"m 1321 371 q 1315 297 1321 339 l 821 297 q 881 190 834 227 q 1000 153 928 153 q 1089 172 1046 153 q 1149 222 1131 192 l 1301 129 q 1186 27 1267 68 q 1017 -14 1105 -14 q 770 97 851 -14 l 770 0 l 574 0 l 574 97 q 357 -14 499 -14 q 197 34 270 -14 q 82 164 124 82 q 40 342 40 245 q 82 520 40 438 q 197 649 124 602 q 357 696 270 696 q 574 585 499 696 l 574 682 l 770 682 l 770 587 q 1013 696 852 696 q 1231 601 1141 696 q 1321 371 1321 506 m 822 418 l 1128 418 q 1079 503 1121 469 q 982 538 1036 538 q 877 507 918 538 q 822 418 837 475 m 403 174 q 524 222 475 174 q 574 342 574 271 q 524 461 574 412 q 403 510 475 510 q 282 461 332 510 q 232 342 232 412 q 282 222 232 271 q 403 174 332 174 z "},"ç":{"ha":769,"x_min":40,"x_max":729,"o":"m 729 265 q 647 87 720 161 q 465 -7 573 14 q 514 -123 509 -65 q 493 -223 520 -181 q 407 -289 465 -265 q 271 -304 348 -312 l 225 -165 q 336 -144 300 -167 q 368 -85 372 -121 q 328 -8 363 -50 q 121 110 201 14 q 40 340 40 206 q 142 594 40 492 q 395 696 243 696 q 618 618 523 696 q 728 422 714 540 l 529 422 q 481 485 519 460 q 395 509 444 509 q 278 461 325 509 q 232 340 232 413 q 278 222 232 270 q 395 174 325 174 q 482 199 444 174 q 530 265 520 225 l 729 265 z "},"è":{"ha":770,"x_min":40,"x_max":730,"o":"m 492 757 l 311 757 l 142 974 l 372 974 l 492 757 m 730 364 q 726 294 730 328 l 220 294 q 277 188 230 228 q 393 149 325 149 q 485 171 450 149 q 529 229 521 193 l 721 229 q 616 53 704 119 q 399 -14 528 -14 q 217 34 300 -14 q 87 163 135 81 q 40 345 40 245 q 143 594 40 493 q 395 696 245 696 q 563 652 486 696 q 685 532 640 609 q 730 364 730 456 m 229 419 l 526 419 q 481 504 522 470 q 386 538 441 538 q 288 508 328 538 q 229 419 247 478 z "},"é":{"ha":770,"x_min":40,"x_max":730,"o":"m 637 974 l 468 757 l 288 757 l 407 974 l 637 974 m 730 364 q 726 294 730 328 l 220 294 q 277 188 230 228 q 393 149 325 149 q 485 171 450 149 q 529 229 521 193 l 721 229 q 616 53 704 119 q 399 -14 528 -14 q 217 34 300 -14 q 87 163 135 81 q 40 345 40 245 q 143 594 40 493 q 395 696 245 696 q 563 652 486 696 q 685 532 640 609 q 730 364 730 456 m 229 419 l 526 419 q 481 504 522 470 q 386 538 441 538 q 288 508 328 538 q 229 419 247 478 z "},"ê":{"ha":770,"x_min":40,"x_max":730,"o":"m 386 857 l 318 761 l 144 761 l 279 978 l 493 978 l 629 761 l 456 761 l 386 857 m 730 364 q 726 294 730 328 l 220 294 q 277 188 230 228 q 393 149 325 149 q 485 171 450 149 q 529 229 521 193 l 721 229 q 616 53 704 119 q 399 -14 528 -14 q 217 34 300 -14 q 87 163 135 81 q 40 345 40 245 q 143 594 40 493 q 395 696 245 696 q 563 652 486 696 q 685 532 640 609 q 730 364 730 456 m 229 419 l 526 419 q 481 504 522 470 q 386 538 441 538 q 288 508 328 538 q 229 419 247 478 z "},"ë":{"ha":770,"x_min":40,"x_max":730,"o":"m 324 810 q 307 793 324 810 q 240 775 289 775 q 156 810 191 775 q 121 895 121 846 q 156 978 121 943 q 240 1013 191 1013 q 324 978 289 1013 q 359 895 359 943 q 324 810 359 846 m 532 775 q 448 810 484 775 q 412 895 412 846 q 448 977 412 942 q 532 1013 484 1013 q 616 978 581 1013 q 652 895 652 943 q 616 810 652 846 q 532 775 581 775 m 730 364 q 726 294 730 328 l 220 294 q 277 188 230 228 q 393 149 325 149 q 485 171 450 149 q 529 229 521 193 l 721 229 q 616 53 704 119 q 399 -14 528 -14 q 217 34 300 -14 q 87 163 135 81 q 40 345 40 245 q 143 594 40 493 q 395 696 245 696 q 563 652 486 696 q 685 532 640 609 q 730 364 730 456 m 229 419 l 526 419 q 481 504 522 470 q 386 538 441 538 q 288 508 328 538 q 229 419 247 478 z "},"ì":{"ha":334,"x_min":-78,"x_max":273,"o":"m -78 974 l 154 974 l 273 757 l 93 757 l -78 974 m 69 682 l 265 682 l 265 0 l 69 0 l 69 682 z "},"í":{"ha":334,"x_min":68,"x_max":418,"o":"m 418 974 l 249 757 l 68 757 l 187 974 l 418 974 m 69 682 l 265 682 l 265 0 l 69 0 l 69 682 z "},"î":{"ha":334,"x_min":-75,"x_max":410,"o":"m 167 857 l 98 761 l -75 761 l 60 978 l 273 978 l 410 761 l 236 761 l 167 857 m 69 0 l 69 682 l 265 682 l 265 0 l 69 0 z "},"ï":{"ha":334,"x_min":-98,"x_max":432,"o":"m -63 978 q -45 995 -63 978 q 21 1013 -28 1013 q 105 978 70 1013 q 140 895 140 943 q 105 810 140 846 q 21 775 70 775 q -63 810 -28 775 q -98 895 -98 846 q -63 978 -98 943 m 313 1013 q 397 978 361 1013 q 432 895 432 943 q 397 810 432 846 q 313 775 361 775 q 229 810 264 775 q 193 895 193 846 q 229 977 193 942 q 313 1013 264 1013 m 69 682 l 265 682 l 265 0 l 69 0 l 69 682 z "},"ð":{"ha":859,"x_min":40,"x_max":925,"o":"m 925 899 l 925 768 l 770 768 l 770 408 q 741 234 770 313 q 663 100 712 154 q 546 16 613 46 q 403 -14 479 -14 q 211 35 294 -14 q 84 163 127 83 q 40 342 40 243 q 82 520 40 438 q 197 649 124 602 q 357 696 270 696 q 485 665 429 696 q 574 579 541 635 l 574 768 l 414 768 l 414 899 l 574 899 l 574 972 l 770 972 l 770 899 l 925 899 m 403 174 q 524 222 475 174 q 574 342 574 271 q 524 461 574 412 q 403 510 475 510 q 282 461 332 510 q 232 342 232 412 q 282 222 232 271 q 403 174 332 174 z "},"ñ":{"ha":798,"x_min":69,"x_max":730,"o":"m 294 827 q 262 808 274 827 q 252 758 250 789 l 93 786 q 154 935 101 878 q 279 993 207 993 q 361 975 319 993 q 433 938 403 956 q 478 920 464 920 q 513 938 499 920 q 528 986 527 956 l 686 960 q 622 810 676 868 q 497 751 568 751 q 414 770 455 751 q 341 808 372 789 q 294 827 311 827 m 450 696 q 656 613 581 696 q 730 386 730 531 l 730 0 l 534 0 l 534 361 q 497 468 534 427 q 400 509 460 509 q 302 468 339 509 q 265 361 265 428 l 265 0 l 69 0 l 69 682 l 265 682 l 265 593 q 450 696 333 696 z "},"ò":{"ha":789,"x_min":40,"x_max":749,"o":"m 150 974 l 380 974 l 500 757 l 319 757 l 150 974 m 395 696 q 534 669 469 696 q 647 594 600 642 q 721 481 694 547 q 749 340 749 415 q 702 159 749 241 q 575 32 656 78 q 395 -14 494 -14 q 142 87 243 -14 q 40 340 40 189 q 142 594 40 492 q 395 696 243 696 m 395 509 q 278 461 325 509 q 232 340 232 413 q 278 222 232 270 q 395 174 325 174 q 510 222 463 174 q 557 340 557 270 q 510 461 557 413 q 395 509 464 509 z "},"ó":{"ha":789,"x_min":40,"x_max":749,"o":"m 646 974 l 476 757 l 296 757 l 415 974 l 646 974 m 395 696 q 534 669 469 696 q 647 594 600 642 q 721 481 694 547 q 749 340 749 415 q 702 159 749 241 q 575 32 656 78 q 395 -14 494 -14 q 142 87 243 -14 q 40 340 40 189 q 142 594 40 492 q 395 696 243 696 m 395 509 q 278 461 325 509 q 232 340 232 413 q 278 222 232 270 q 395 174 325 174 q 510 222 463 174 q 557 340 557 270 q 510 461 557 413 q 395 509 464 509 z "},"ô":{"ha":789,"x_min":40,"x_max":749,"o":"m 395 857 l 326 761 l 153 761 l 288 978 l 501 978 l 637 761 l 464 761 l 395 857 m 395 696 q 534 669 469 696 q 647 594 600 642 q 721 481 694 547 q 749 340 749 415 q 702 159 749 241 q 575 32 656 78 q 395 -14 494 -14 q 142 87 243 -14 q 40 340 40 189 q 142 594 40 492 q 395 696 243 696 m 395 174 q 510 222 463 174 q 557 340 557 270 q 510 461 557 413 q 395 509 464 509 q 278 461 325 509 q 232 340 232 413 q 278 222 232 270 q 395 174 325 174 z "},"õ":{"ha":789,"x_min":40,"x_max":749,"o":"m 97 786 q 158 935 105 878 q 283 993 211 993 q 365 975 323 993 q 437 938 407 956 q 482 920 468 920 q 517 938 504 920 q 532 986 530 956 l 690 960 q 627 810 680 868 q 503 751 573 751 q 418 770 460 751 q 346 808 376 789 q 298 827 315 827 q 267 807 279 827 q 256 758 254 788 l 97 786 m 395 696 q 534 669 469 696 q 647 594 600 642 q 721 481 694 547 q 749 340 749 415 q 702 159 749 241 q 575 32 656 78 q 395 -14 494 -14 q 142 87 243 -14 q 40 340 40 189 q 142 594 40 492 q 395 696 243 696 m 395 509 q 278 461 325 509 q 232 340 232 413 q 278 222 232 270 q 395 174 325 174 q 510 222 463 174 q 557 340 557 270 q 510 461 557 413 q 395 509 464 509 z "},"ö":{"ha":789,"x_min":40,"x_max":749,"o":"m 164 978 q 182 995 164 978 q 249 1013 200 1013 q 333 978 298 1013 q 368 895 368 943 q 333 810 368 846 q 249 775 298 775 q 164 810 200 775 q 129 895 129 846 q 164 978 129 943 m 541 1013 q 625 978 589 1013 q 660 895 660 943 q 625 810 660 846 q 541 775 589 775 q 457 810 492 775 q 421 895 421 846 q 457 977 421 942 q 541 1013 492 1013 m 395 696 q 534 669 469 696 q 647 594 600 642 q 721 481 694 547 q 749 340 749 415 q 702 159 749 241 q 575 32 656 78 q 395 -14 494 -14 q 142 87 243 -14 q 40 340 40 189 q 142 594 40 492 q 395 696 243 696 m 395 509 q 278 461 325 509 q 232 340 232 413 q 278 222 232 270 q 395 174 325 174 q 510 222 463 174 q 557 340 557 270 q 510 461 557 413 q 395 509 464 509 z "},"÷":{"ha":823,"x_min":69,"x_max":754,"o":"m 412 606 q 323 642 359 606 q 286 730 286 678 q 323 819 286 783 q 412 854 359 854 q 503 819 466 854 q 539 730 539 783 q 503 642 539 678 q 412 606 466 606 m 754 538 l 754 353 l 69 353 l 69 538 l 754 538 m 412 35 q 323 71 359 35 q 286 160 286 108 q 323 248 286 212 q 412 283 359 283 q 503 248 466 283 q 539 160 539 212 q 503 71 539 108 q 412 35 466 35 z "},"ø":{"ha":790,"x_min":41,"x_max":746,"o":"m 395 696 q 645 594 545 696 q 746 340 746 492 q 719 200 746 266 q 646 87 692 134 q 534 14 599 41 q 395 -14 469 -14 q 142 87 243 -14 q 41 340 41 189 q 142 594 41 492 q 395 696 243 696 m 395 529 q 261 475 314 529 q 208 340 208 422 q 228 253 208 293 q 283 187 248 212 l 414 528 q 395 529 407 529 m 395 153 q 526 207 473 153 q 579 340 579 260 q 559 429 579 389 q 503 494 538 469 l 372 154 q 395 153 379 153 z "},"ù":{"ha":798,"x_min":69,"x_max":730,"o":"m 503 757 l 322 757 l 153 974 l 383 974 l 503 757 m 534 682 l 730 682 l 730 0 l 534 0 l 534 90 q 350 -14 470 -14 q 144 69 219 -14 q 69 297 69 152 l 69 682 l 265 682 l 265 322 q 302 214 265 254 q 400 174 338 174 q 497 214 460 174 q 534 322 534 254 l 534 682 z "},"ú":{"ha":798,"x_min":69,"x_max":730,"o":"m 648 974 l 479 757 l 298 757 l 416 974 l 648 974 m 534 682 l 730 682 l 730 0 l 534 0 l 534 90 q 350 -14 470 -14 q 144 69 219 -14 q 69 297 69 152 l 69 682 l 265 682 l 265 322 q 302 214 265 254 q 400 174 338 174 q 497 214 460 174 q 534 322 534 254 l 534 682 z "},"û":{"ha":798,"x_min":69,"x_max":730,"o":"m 397 859 l 328 761 l 154 761 l 290 978 l 503 978 l 639 761 l 465 761 l 397 859 m 534 682 l 730 682 l 730 0 l 534 0 l 534 90 q 350 -14 470 -14 q 144 69 219 -14 q 69 297 69 152 l 69 682 l 265 682 l 265 322 q 302 214 265 254 q 400 174 338 174 q 497 214 460 174 q 534 322 534 254 l 534 682 z "},"ü":{"ha":798,"x_min":69,"x_max":730,"o":"m 334 810 q 317 793 334 810 q 250 775 299 775 q 166 810 201 775 q 131 895 131 846 q 166 978 131 943 q 250 1013 201 1013 q 334 978 299 1013 q 370 895 370 943 q 334 810 370 846 m 627 810 q 610 793 627 810 q 543 775 592 775 q 459 810 494 775 q 424 895 424 846 q 459 978 424 943 q 543 1013 494 1013 q 627 978 592 1013 q 663 895 663 943 q 627 810 663 846 m 534 682 l 730 682 l 730 0 l 534 0 l 534 90 q 350 -14 470 -14 q 144 69 219 -14 q 69 297 69 152 l 69 682 l 265 682 l 265 322 q 302 214 265 254 q 400 174 338 174 q 497 214 460 174 q 534 322 534 254 l 534 682 z "},"ý":{"ha":747,"x_min":11,"x_max":736,"o":"m 637 974 l 468 757 l 288 757 l 407 974 l 637 974 m 525 682 l 736 682 l 357 -227 l 147 -227 l 273 56 l 11 682 l 222 682 l 374 283 l 525 682 z "},"þ":{"ha":837,"x_min":69,"x_max":798,"o":"m 479 696 q 640 648 567 696 q 755 519 713 601 q 798 342 798 438 q 755 164 798 245 q 640 34 713 82 q 479 -14 567 -14 q 264 97 338 -14 l 264 -227 l 69 -227 l 69 972 l 264 972 l 264 585 q 479 696 338 696 m 435 174 q 556 222 506 174 q 606 342 606 271 q 555 461 606 412 q 435 510 505 510 q 313 461 363 510 q 264 342 264 412 q 313 222 264 271 q 435 174 363 174 z "},"ÿ":{"ha":747,"x_min":11,"x_max":736,"o":"m 324 810 q 307 793 324 810 q 240 775 289 775 q 156 810 191 775 q 121 895 121 846 q 156 978 121 943 q 240 1013 191 1013 q 324 978 289 1013 q 359 895 359 943 q 324 810 359 846 m 532 775 q 448 810 484 775 q 412 895 412 846 q 448 977 412 942 q 532 1013 484 1013 q 616 978 581 1013 q 652 895 652 943 q 616 810 652 846 q 532 775 581 775 m 525 682 l 736 682 l 357 -227 l 147 -227 l 273 56 l 11 682 l 222 682 l 374 283 l 525 682 z "},"Ā":{"ha":957,"x_min":8,"x_max":949,"o":"m 701 1211 l 701 1054 l 257 1054 l 257 1211 l 701 1211 m 725 0 l 664 163 l 289 163 l 227 0 l 8 0 l 395 972 l 561 972 l 949 0 l 725 0 m 357 339 l 596 339 l 478 650 l 357 339 z "},"ā":{"ha":785,"x_min":40,"x_max":770,"o":"m 639 921 l 639 764 l 195 764 l 195 921 l 639 921 m 574 682 l 770 682 l 770 0 l 574 0 l 574 97 q 357 -14 499 -14 q 197 34 270 -14 q 82 164 124 82 q 40 342 40 245 q 82 520 40 438 q 197 649 124 602 q 357 696 270 696 q 574 585 499 696 l 574 682 m 403 174 q 524 222 475 174 q 574 342 574 271 q 524 461 574 412 q 403 510 475 510 q 282 461 332 510 q 232 342 232 412 q 282 222 232 271 q 403 174 332 174 z "},"Ă":{"ha":957,"x_min":8,"x_max":949,"o":"m 646 1095 q 614 1064 646 1095 q 479 1034 581 1034 q 313 1095 378 1034 q 248 1258 248 1156 l 396 1258 q 419 1189 396 1215 q 479 1162 443 1162 q 539 1189 516 1162 q 562 1258 562 1215 l 711 1258 q 646 1095 711 1156 m 725 0 l 664 163 l 289 163 l 227 0 l 8 0 l 395 972 l 561 972 l 949 0 l 725 0 m 357 339 l 596 339 l 478 650 l 357 339 z "},"ă":{"ha":790,"x_min":40,"x_max":770,"o":"m 553 804 q 520 774 553 804 q 386 743 488 743 q 219 804 284 743 q 154 968 154 865 l 302 968 q 326 899 302 925 q 386 872 349 872 q 446 899 422 872 q 469 968 469 925 l 618 968 q 553 804 618 865 m 574 682 l 770 682 l 770 0 l 574 0 l 574 97 q 357 -14 499 -14 q 197 34 270 -14 q 82 164 124 82 q 40 342 40 245 q 82 520 40 438 q 197 649 124 602 q 357 696 270 696 q 574 585 499 696 l 574 682 m 403 174 q 524 222 475 174 q 574 342 574 271 q 524 461 574 412 q 403 510 475 510 q 282 461 332 510 q 232 342 232 412 q 282 222 232 271 q 403 174 332 174 z "},"Ą":{"ha":957,"x_min":8,"x_max":964,"o":"m 916 -111 l 964 -235 q 891 -259 937 -250 q 802 -268 846 -268 q 685 -227 730 -268 q 640 -122 640 -186 q 715 26 640 -39 l 664 163 l 289 163 l 227 0 l 8 0 l 395 972 l 561 972 l 949 0 l 901 0 q 834 -30 859 -9 q 810 -77 810 -51 q 825 -109 810 -96 q 865 -121 840 -121 q 916 -111 890 -121 m 357 339 l 596 339 l 478 650 l 357 339 z "},"ą":{"ha":837,"x_min":40,"x_max":832,"o":"m 783 -111 l 832 -235 q 760 -259 805 -250 q 669 -268 714 -268 q 553 -227 598 -268 q 509 -122 509 -186 q 574 18 509 -45 l 574 97 q 357 -14 499 -14 q 197 34 270 -14 q 82 164 124 82 q 40 342 40 245 q 82 520 40 438 q 197 649 124 602 q 357 696 270 696 q 574 585 499 696 l 574 682 l 770 682 l 770 0 q 703 -30 728 -9 q 677 -77 677 -51 q 693 -109 677 -96 q 733 -121 708 -121 q 783 -111 758 -121 m 403 174 q 524 222 475 174 q 574 342 574 271 q 524 461 574 412 q 403 510 475 510 q 282 461 332 510 q 232 342 232 412 q 282 222 232 271 q 403 174 332 174 z "},"Ć":{"ha":1051,"x_min":47,"x_max":1006,"o":"m 786 1264 l 616 1047 l 436 1047 l 555 1264 l 786 1264 m 541 -14 q 289 52 401 -14 q 112 231 176 117 q 47 486 47 346 q 112 741 47 627 q 289 921 176 856 q 541 986 401 986 q 755 940 654 986 q 923 813 856 895 q 1003 631 989 731 l 774 631 q 689 743 754 699 q 541 786 625 786 q 339 700 420 786 q 258 486 258 614 q 339 272 258 358 q 541 186 420 186 q 691 233 625 186 q 775 354 756 281 l 1006 354 q 848 89 978 192 q 541 -14 718 -14 z "},"ć":{"ha":769,"x_min":40,"x_max":729,"o":"m 646 974 l 476 757 l 296 757 l 415 974 l 646 974 m 395 -14 q 142 87 243 -14 q 40 340 40 189 q 142 594 40 492 q 395 696 243 696 q 618 618 523 696 q 728 422 714 540 l 529 422 q 481 485 519 460 q 395 509 444 509 q 278 461 325 509 q 232 340 232 413 q 278 222 232 270 q 395 174 325 174 q 482 199 444 174 q 530 265 520 225 l 729 265 q 675 121 722 185 q 554 22 628 57 q 395 -14 481 -14 z "},"Ĉ":{"ha":1051,"x_min":47,"x_max":1006,"o":"m 534 1147 l 467 1051 l 293 1051 l 428 1268 l 642 1268 l 778 1051 l 604 1051 l 534 1147 m 775 354 l 1006 354 q 848 89 978 192 q 541 -14 718 -14 q 289 52 401 -14 q 112 231 176 117 q 47 486 47 346 q 112 741 47 627 q 289 921 176 856 q 541 986 401 986 q 755 940 654 986 q 923 813 856 895 q 1003 631 989 731 l 774 631 q 689 743 754 699 q 541 786 625 786 q 339 700 420 786 q 258 486 258 614 q 339 272 258 358 q 541 186 420 186 q 691 233 625 186 q 775 354 756 281 z "},"ĉ":{"ha":769,"x_min":40,"x_max":729,"o":"m 393 857 l 325 761 l 151 761 l 286 978 l 500 978 l 636 761 l 463 761 l 393 857 m 530 265 l 729 265 q 675 121 722 185 q 554 22 628 57 q 395 -14 481 -14 q 142 87 243 -14 q 40 340 40 189 q 142 594 40 492 q 395 696 243 696 q 618 618 523 696 q 728 422 714 540 l 529 422 q 481 485 519 460 q 395 509 444 509 q 278 461 325 509 q 232 340 232 413 q 278 222 232 270 q 395 174 325 174 q 482 199 444 174 q 530 265 520 225 z "},"Ċ":{"ha":1051,"x_min":47,"x_max":1006,"o":"m 450 1244 q 468 1262 450 1244 q 534 1279 486 1279 q 619 1244 583 1279 q 654 1161 654 1209 q 619 1077 654 1112 q 534 1042 583 1042 q 450 1077 486 1042 q 415 1161 415 1112 q 450 1244 415 1209 m 541 -14 q 289 52 401 -14 q 112 231 176 117 q 47 486 47 346 q 112 741 47 627 q 289 921 176 856 q 541 986 401 986 q 755 940 654 986 q 923 813 856 895 q 1003 631 989 731 l 774 631 q 689 743 754 699 q 541 786 625 786 q 339 700 420 786 q 258 486 258 614 q 339 272 258 358 q 541 186 420 186 q 691 233 625 186 q 775 354 756 281 l 1006 354 q 848 89 978 192 q 541 -14 718 -14 z "},"ċ":{"ha":769,"x_min":40,"x_max":729,"o":"m 311 978 q 328 995 311 978 q 395 1013 346 1013 q 479 978 444 1013 q 514 895 514 943 q 479 810 514 846 q 395 775 444 775 q 311 810 346 775 q 275 895 275 846 q 311 978 275 943 m 395 -14 q 142 87 243 -14 q 40 340 40 189 q 142 594 40 492 q 395 696 243 696 q 618 618 523 696 q 728 422 714 540 l 529 422 q 481 485 519 460 q 395 509 444 509 q 278 461 325 509 q 232 340 232 413 q 278 222 232 270 q 395 174 325 174 q 482 199 444 174 q 530 265 520 225 l 729 265 q 675 121 722 185 q 554 22 628 57 q 395 -14 481 -14 z "},"Č":{"ha":1051,"x_min":47,"x_max":1006,"o":"m 428 1047 l 293 1264 l 467 1264 l 534 1168 l 604 1264 l 778 1264 l 642 1047 l 428 1047 m 775 354 l 1006 354 q 848 89 978 192 q 541 -14 718 -14 q 289 52 401 -14 q 112 231 176 117 q 47 486 47 346 q 112 741 47 627 q 289 921 176 856 q 541 986 401 986 q 755 940 654 986 q 923 813 856 895 q 1003 631 989 731 l 774 631 q 689 743 754 699 q 541 786 625 786 q 339 700 420 786 q 258 486 258 614 q 339 272 258 358 q 541 186 420 186 q 691 233 625 186 q 775 354 756 281 z "},"č":{"ha":769,"x_min":40,"x_max":729,"o":"m 286 757 l 151 974 l 325 974 l 393 878 l 463 974 l 636 974 l 500 757 l 286 757 m 530 265 l 729 265 q 675 121 722 185 q 554 22 628 57 q 395 -14 481 -14 q 142 87 243 -14 q 40 340 40 189 q 142 594 40 492 q 395 696 243 696 q 618 618 523 696 q 728 422 714 540 l 529 422 q 481 485 519 460 q 395 509 444 509 q 278 461 325 509 q 232 340 232 413 q 278 222 232 270 q 395 174 325 174 q 482 199 444 174 q 530 265 520 225 z "},"Ď":{"ha":945,"x_min":74,"x_max":900,"o":"m 301 1047 l 167 1264 l 340 1264 l 408 1168 l 478 1264 l 652 1264 l 515 1047 l 301 1047 m 407 972 q 658 910 545 972 q 836 737 771 848 q 900 490 900 627 q 836 239 900 351 q 658 63 771 127 q 407 0 545 0 l 74 0 l 74 972 l 407 972 m 421 197 q 612 281 536 197 q 688 490 688 364 q 613 695 688 614 q 421 775 538 775 l 279 775 l 279 197 l 421 197 z "},"ď":{"ha":1047,"x_min":40,"x_max":1063,"o":"m 857 1053 l 1063 1053 l 993 757 l 831 757 l 857 1053 m 574 585 l 574 972 l 770 972 l 770 0 l 574 0 l 574 97 q 357 -14 499 -14 q 197 34 270 -14 q 82 164 124 82 q 40 342 40 245 q 82 520 40 438 q 197 649 124 602 q 357 696 270 696 q 574 585 499 696 m 403 174 q 524 222 475 174 q 574 342 574 271 q 524 461 574 412 q 403 510 475 510 q 282 461 332 510 q 232 342 232 412 q 282 222 232 271 q 403 174 332 174 z "},"Đ":{"ha":945,"x_min":-46,"x_max":900,"o":"m 407 972 q 658 910 545 972 q 836 737 771 848 q 900 490 900 627 q 836 239 900 351 q 658 63 771 127 q 407 0 545 0 l 74 0 l 74 425 l -46 425 l -46 555 l 74 555 l 74 972 l 407 972 m 421 197 q 612 281 536 197 q 688 490 688 364 q 613 695 688 614 q 421 775 538 775 l 279 775 l 279 555 l 419 555 l 419 425 l 279 425 l 279 197 l 421 197 z "},"đ":{"ha":837,"x_min":40,"x_max":904,"o":"m 904 892 l 904 775 l 770 775 l 770 0 l 574 0 l 574 97 q 357 -14 499 -14 q 197 34 270 -14 q 82 164 124 82 q 40 342 40 245 q 82 520 40 438 q 197 649 124 602 q 357 696 270 696 q 574 585 499 696 l 574 775 l 439 775 l 439 892 l 574 892 l 574 972 l 770 972 l 770 892 l 904 892 m 403 174 q 524 222 475 174 q 574 342 574 271 q 524 461 574 412 q 403 510 475 510 q 282 461 332 510 q 232 342 232 412 q 282 222 232 271 q 403 174 332 174 z "},"Ē":{"ha":722,"x_min":74,"x_max":669,"o":"m 158 1054 l 158 1211 l 603 1211 l 603 1054 l 158 1054 m 74 972 l 669 972 l 669 775 l 279 775 l 279 600 l 627 600 l 627 403 l 279 403 l 279 197 l 669 197 l 669 0 l 74 0 l 74 972 z "},"ē":{"ha":770,"x_min":40,"x_max":730,"o":"m 608 921 l 608 764 l 164 764 l 164 921 l 608 921 m 730 364 q 726 294 730 328 l 220 294 q 277 188 230 228 q 393 149 325 149 q 485 171 450 149 q 529 229 521 193 l 721 229 q 616 53 704 119 q 399 -14 528 -14 q 217 34 300 -14 q 87 163 135 81 q 40 345 40 245 q 143 594 40 493 q 395 696 245 696 q 563 652 486 696 q 685 532 640 609 q 730 364 730 456 m 229 419 l 526 419 q 481 504 522 470 q 386 538 441 538 q 288 508 328 538 q 229 419 247 478 z "},"Ĕ":{"ha":722,"x_min":74,"x_max":669,"o":"m 612 1258 q 547 1095 612 1156 q 380 1034 482 1034 q 214 1095 279 1034 q 149 1258 149 1156 l 297 1258 q 320 1189 297 1215 q 380 1162 344 1162 q 440 1189 417 1162 q 464 1258 464 1215 l 612 1258 m 74 972 l 669 972 l 669 775 l 279 775 l 279 600 l 627 600 l 627 403 l 279 403 l 279 197 l 669 197 l 669 0 l 74 0 l 74 972 z "},"ĕ":{"ha":770,"x_min":40,"x_max":730,"o":"m 553 804 q 520 774 553 804 q 386 743 488 743 q 219 804 284 743 q 154 968 154 865 l 302 968 q 326 899 302 925 q 386 872 349 872 q 446 899 422 872 q 469 968 469 925 l 618 968 q 553 804 618 865 m 730 364 q 726 294 730 328 l 220 294 q 277 188 230 228 q 393 149 325 149 q 485 171 450 149 q 529 229 521 193 l 721 229 q 616 53 704 119 q 399 -14 528 -14 q 217 34 300 -14 q 87 163 135 81 q 40 345 40 245 q 143 594 40 493 q 395 696 245 696 q 563 652 486 696 q 685 532 640 609 q 730 364 730 456 m 229 419 l 526 419 q 481 504 522 470 q 386 538 441 538 q 288 508 328 538 q 229 419 247 478 z "},"Ė":{"ha":722,"x_min":74,"x_max":669,"o":"m 296 1244 q 314 1262 296 1244 q 380 1279 332 1279 q 465 1244 429 1279 q 500 1161 500 1209 q 465 1077 500 1112 q 380 1042 429 1042 q 296 1077 332 1042 q 261 1161 261 1112 q 296 1244 261 1209 m 74 972 l 669 972 l 669 775 l 279 775 l 279 600 l 627 600 l 627 403 l 279 403 l 279 197 l 669 197 l 669 0 l 74 0 l 74 972 z "},"ė":{"ha":770,"x_min":40,"x_max":730,"o":"m 470 810 q 452 793 470 810 q 386 775 435 775 q 302 810 337 775 q 267 895 267 846 q 302 978 267 943 q 386 1013 337 1013 q 470 978 435 1013 q 505 895 505 943 q 470 810 505 846 m 730 364 q 726 294 730 328 l 220 294 q 277 188 230 228 q 393 149 325 149 q 485 171 450 149 q 529 229 521 193 l 721 229 q 616 53 704 119 q 399 -14 528 -14 q 217 34 300 -14 q 87 163 135 81 q 40 345 40 245 q 143 594 40 493 q 395 696 245 696 q 563 652 486 696 q 685 532 640 609 q 730 364 730 456 m 229 419 l 526 419 q 481 504 522 470 q 386 538 441 538 q 288 508 328 538 q 229 419 247 478 z "},"Ę":{"ha":722,"x_min":74,"x_max":669,"o":"m 669 775 l 279 775 l 279 600 l 627 600 l 627 403 l 279 403 l 279 197 l 669 197 l 669 0 l 576 0 q 510 -30 534 -9 q 485 -77 485 -51 q 500 -109 485 -96 q 541 -121 515 -121 q 590 -111 564 -121 l 639 -235 q 566 -259 612 -250 q 476 -268 521 -268 q 360 -227 405 -268 q 315 -122 315 -186 q 364 0 315 -58 l 74 0 l 74 972 l 669 972 l 669 775 z "},"ę":{"ha":770,"x_min":40,"x_max":730,"o":"m 730 364 q 726 294 730 328 l 220 294 q 277 188 230 228 q 393 149 325 149 q 485 171 450 149 q 529 229 521 193 l 721 229 q 637 71 707 134 l 640 57 q 558 -14 583 18 q 533 -77 533 -45 q 548 -109 533 -96 q 589 -121 564 -121 q 639 -111 613 -121 l 688 -235 q 615 -259 661 -250 q 525 -268 570 -268 q 409 -227 454 -268 q 364 -122 364 -186 q 401 -14 364 -63 l 399 -14 q 217 34 300 -14 q 87 163 135 81 q 40 345 40 245 q 143 594 40 493 q 395 696 245 696 q 563 652 486 696 q 685 532 640 609 q 730 364 730 456 m 229 419 l 526 419 q 481 504 522 470 q 386 538 441 538 q 288 508 328 538 q 229 419 247 478 z "},"Ě":{"ha":722,"x_min":74,"x_max":669,"o":"m 273 1047 l 139 1264 l 313 1264 l 380 1168 l 450 1264 l 624 1264 l 488 1047 l 273 1047 m 669 775 l 279 775 l 279 600 l 627 600 l 627 403 l 279 403 l 279 197 l 669 197 l 669 0 l 74 0 l 74 972 l 669 972 l 669 775 z "},"ě":{"ha":770,"x_min":40,"x_max":730,"o":"m 279 757 l 144 974 l 318 974 l 386 878 l 456 974 l 629 974 l 493 757 l 279 757 m 730 364 q 726 294 730 328 l 220 294 q 277 188 230 228 q 393 149 325 149 q 485 171 450 149 q 529 229 521 193 l 721 229 q 616 53 704 119 q 399 -14 528 -14 q 217 34 300 -14 q 87 163 135 81 q 40 345 40 245 q 143 594 40 493 q 395 696 245 696 q 563 652 486 696 q 685 532 640 609 q 730 364 730 456 m 229 419 l 526 419 q 481 504 522 470 q 386 538 441 538 q 288 508 328 538 q 229 419 247 478 z "},"Ĝ":{"ha":1063,"x_min":47,"x_max":1017,"o":"m 536 1147 l 468 1051 l 294 1051 l 429 1268 l 643 1268 l 779 1051 l 606 1051 l 536 1147 m 1011 549 q 1017 454 1017 508 q 980 269 1017 356 q 881 120 944 182 q 730 22 819 58 q 542 -14 642 -14 q 290 52 403 -14 q 112 231 176 117 q 47 486 47 346 q 112 741 47 627 q 290 921 176 856 q 543 986 404 986 q 760 939 657 986 q 928 815 862 892 q 1007 650 994 738 l 775 650 q 686 749 751 711 q 543 786 621 786 q 340 700 421 786 q 258 486 258 614 q 340 272 258 358 q 542 186 421 186 q 723 242 654 186 q 798 380 792 299 l 798 382 l 528 382 l 528 549 l 1011 549 z "},"ĝ":{"ha":837,"x_min":40,"x_max":770,"o":"m 450 857 l 382 761 l 208 761 l 343 978 l 557 978 l 693 761 l 519 761 l 450 857 m 574 684 l 770 684 l 770 29 q 722 -136 770 -65 q 595 -244 675 -208 q 416 -281 515 -281 q 332 -275 374 -281 q 241 -251 290 -269 q 155 -206 192 -233 q 91 -133 117 -179 q 61 -26 64 -86 l 257 -26 q 304 -94 261 -71 q 410 -118 348 -118 q 525 -79 475 -118 q 574 21 574 -39 l 574 119 q 357 12 500 12 q 197 58 270 12 q 82 183 124 104 q 40 354 40 262 q 82 526 40 447 q 197 650 124 604 q 357 696 270 696 q 574 589 500 696 l 574 684 m 403 193 q 524 239 475 193 q 574 354 574 286 q 524 470 574 422 q 403 517 475 517 q 282 469 332 517 q 232 354 232 422 q 282 240 232 287 q 403 193 332 193 z "},"Ğ":{"ha":1063,"x_min":47,"x_max":1017,"o":"m 703 1095 q 671 1064 703 1095 q 536 1034 638 1034 q 370 1095 435 1034 q 304 1258 304 1156 l 453 1258 q 476 1189 453 1215 q 536 1162 500 1162 q 596 1189 573 1162 q 619 1258 619 1215 l 768 1258 q 703 1095 768 1156 m 1011 549 q 1017 454 1017 508 q 980 269 1017 356 q 881 120 944 182 q 730 22 819 58 q 542 -14 642 -14 q 290 52 403 -14 q 112 231 176 117 q 47 486 47 346 q 112 741 47 627 q 290 921 176 856 q 543 986 404 986 q 760 939 657 986 q 928 815 862 892 q 1007 650 994 738 l 775 650 q 686 749 751 711 q 543 786 621 786 q 340 700 421 786 q 258 486 258 614 q 340 272 258 358 q 542 186 421 186 q 723 242 654 186 q 798 380 792 299 l 798 382 l 528 382 l 528 549 l 1011 549 z "},"ğ":{"ha":837,"x_min":40,"x_max":770,"o":"m 617 804 q 585 774 617 804 q 450 743 552 743 q 283 804 349 743 q 218 968 218 865 l 367 968 q 390 899 367 925 q 450 872 414 872 q 510 899 487 872 q 533 968 533 925 l 682 968 q 617 804 682 865 m 574 684 l 770 684 l 770 29 q 722 -136 770 -65 q 595 -244 675 -208 q 416 -281 515 -281 q 332 -275 374 -281 q 241 -251 290 -269 q 155 -206 192 -233 q 91 -133 117 -179 q 61 -26 64 -86 l 257 -26 q 304 -94 261 -71 q 410 -118 348 -118 q 525 -79 475 -118 q 574 21 574 -39 l 574 119 q 357 12 500 12 q 197 58 270 12 q 82 183 124 104 q 40 354 40 262 q 82 526 40 447 q 197 650 124 604 q 357 696 270 696 q 574 589 500 696 l 574 684 m 403 193 q 524 239 475 193 q 574 354 574 286 q 524 470 574 422 q 403 517 475 517 q 282 469 332 517 q 232 354 232 422 q 282 240 232 287 q 403 193 332 193 z "},"Ġ":{"ha":1063,"x_min":47,"x_max":1017,"o":"m 621 1077 q 603 1059 621 1077 q 536 1042 585 1042 q 452 1077 488 1042 q 416 1161 416 1112 q 452 1244 416 1209 q 536 1279 488 1279 q 621 1244 585 1279 q 656 1161 656 1209 q 621 1077 656 1112 m 1011 549 q 1017 454 1017 508 q 980 269 1017 356 q 881 120 944 182 q 730 22 819 58 q 542 -14 642 -14 q 290 52 403 -14 q 112 231 176 117 q 47 486 47 346 q 112 741 47 627 q 290 921 176 856 q 543 986 404 986 q 760 939 657 986 q 928 815 862 892 q 1007 650 994 738 l 775 650 q 686 749 751 711 q 543 786 621 786 q 340 700 421 786 q 258 486 258 614 q 340 272 258 358 q 542 186 421 186 q 723 242 654 186 q 798 380 792 299 l 798 382 l 528 382 l 528 549 l 1011 549 z "},"ġ":{"ha":837,"x_min":40,"x_max":770,"o":"m 534 810 q 517 793 534 810 q 450 775 499 775 q 366 810 401 775 q 330 895 330 846 q 366 978 330 943 q 450 1013 401 1013 q 534 978 499 1013 q 570 895 570 943 q 534 810 570 846 m 574 684 l 770 684 l 770 29 q 722 -136 770 -65 q 595 -244 675 -208 q 416 -281 515 -281 q 332 -275 374 -281 q 241 -251 290 -269 q 155 -206 192 -233 q 91 -133 117 -179 q 61 -26 64 -86 l 257 -26 q 304 -94 261 -71 q 410 -118 348 -118 q 525 -79 475 -118 q 574 21 574 -39 l 574 119 q 357 12 500 12 q 197 58 270 12 q 82 183 124 104 q 40 354 40 262 q 82 526 40 447 q 197 650 124 604 q 357 696 270 696 q 574 589 500 696 l 574 684 m 403 193 q 524 239 475 193 q 574 354 574 286 q 524 470 574 422 q 403 517 475 517 q 282 469 332 517 q 232 354 232 422 q 282 240 232 287 q 403 193 332 193 z "},"Ģ":{"ha":1063,"x_min":47,"x_max":1017,"o":"m 1011 549 q 1017 454 1017 508 q 980 269 1017 356 q 881 120 944 182 q 730 22 819 58 q 542 -14 642 -14 q 290 52 403 -14 q 112 231 176 117 q 47 486 47 346 q 112 741 47 627 q 290 921 176 856 q 543 986 404 986 q 760 939 657 986 q 928 815 862 892 q 1007 650 994 738 l 775 650 q 686 749 751 711 q 543 786 621 786 q 340 700 421 786 q 258 486 258 614 q 340 272 258 358 q 542 186 421 186 q 723 242 654 186 q 798 380 792 299 l 798 382 l 528 382 l 528 549 l 1011 549 m 307 -307 l 425 -89 l 657 -89 l 488 -307 l 307 -307 z "},"ģ":{"ha":837,"x_min":40,"x_max":770,"o":"m 703 985 l 583 768 l 353 768 l 522 985 l 703 985 m 574 684 l 770 684 l 770 29 q 722 -136 770 -65 q 595 -244 675 -208 q 416 -281 515 -281 q 332 -275 374 -281 q 241 -251 290 -269 q 155 -206 192 -233 q 91 -133 117 -179 q 61 -26 64 -86 l 257 -26 q 304 -94 261 -71 q 410 -118 348 -118 q 525 -79 475 -118 q 574 21 574 -39 l 574 119 q 357 12 500 12 q 197 58 270 12 q 82 183 124 104 q 40 354 40 262 q 82 526 40 447 q 197 650 124 604 q 357 696 270 696 q 574 589 500 696 l 574 684 m 403 193 q 524 239 475 193 q 574 354 574 286 q 524 470 574 422 q 403 517 475 517 q 282 469 332 517 q 232 354 232 422 q 282 240 232 287 q 403 193 332 193 z "},"Ĥ":{"ha":972,"x_min":74,"x_max":900,"o":"m 486 1147 l 418 1051 l 244 1051 l 379 1268 l 593 1268 l 729 1051 l 555 1051 l 486 1147 m 693 972 l 900 972 l 900 0 l 693 0 l 693 404 l 279 404 l 279 0 l 74 0 l 74 972 l 279 972 l 279 602 l 693 602 l 693 972 z "},"ĥ":{"ha":798,"x_min":-75,"x_max":730,"o":"m 168 1146 l 100 1050 l -75 1050 l 61 1268 l 275 1268 l 410 1050 l 236 1050 l 168 1146 m 450 696 q 656 613 581 696 q 730 386 730 531 l 730 0 l 534 0 l 534 361 q 497 468 534 427 q 400 509 460 509 q 302 468 339 509 q 265 361 265 428 l 265 0 l 69 0 l 69 972 l 265 972 l 265 593 q 450 696 333 696 z "},"Ħ":{"ha":972,"x_min":-16,"x_max":986,"o":"m 986 878 l 986 711 l 900 711 l 900 0 l 693 0 l 693 404 l 279 404 l 279 0 l 74 0 l 74 711 l -16 711 l -16 878 l 74 878 l 74 972 l 279 972 l 279 878 l 693 878 l 693 972 l 900 972 l 900 878 l 986 878 m 693 602 l 693 711 l 279 711 l 279 602 l 693 602 z "},"ħ":{"ha":798,"x_min":-64,"x_max":730,"o":"m 450 696 q 656 613 581 696 q 730 386 730 531 l 730 0 l 534 0 l 534 361 q 497 468 534 427 q 400 509 460 509 q 302 468 339 509 q 265 361 265 428 l 265 0 l 69 0 l 69 775 l -64 775 l -64 892 l 69 892 l 69 972 l 265 972 l 265 892 l 403 892 l 403 775 l 265 775 l 265 593 q 450 696 333 696 z "},"Ĩ":{"ha":353,"x_min":-121,"x_max":472,"o":"m -121 1076 q -60 1225 -113 1168 q 65 1283 -7 1283 q 147 1265 105 1283 q 219 1228 189 1246 q 264 1210 250 1210 q 299 1228 286 1210 q 314 1276 313 1246 l 472 1250 q 409 1100 462 1158 q 285 1042 355 1042 q 200 1061 242 1042 q 128 1098 159 1080 q 81 1117 97 1117 q 49 1098 61 1117 q 37 1048 37 1078 l -121 1076 m 74 972 l 279 972 l 279 0 l 74 0 l 74 972 z "},"ĩ":{"ha":334,"x_min":-129,"x_max":464,"o":"m -129 786 q -68 935 -121 878 q 57 993 -16 993 q 139 975 97 993 q 211 938 180 956 q 256 920 241 920 q 291 938 277 920 q 306 986 304 956 l 464 960 q 400 810 454 868 q 277 751 347 751 q 192 770 234 751 q 119 808 151 789 q 72 827 88 827 q 40 807 52 827 q 29 758 28 788 l -129 786 m 69 682 l 265 682 l 265 0 l 69 0 l 69 682 z "},"Ī":{"ha":353,"x_min":-46,"x_max":399,"o":"m -46 1054 l -46 1211 l 399 1211 l 399 1054 l -46 1054 m 74 972 l 279 972 l 279 0 l 74 0 l 74 972 z "},"ī":{"ha":334,"x_min":-56,"x_max":389,"o":"m -56 764 l -56 921 l 389 921 l 389 764 l -56 764 m 69 682 l 265 682 l 265 0 l 69 0 l 69 682 z "},"Ĭ":{"ha":353,"x_min":-56,"x_max":408,"o":"m 408 1258 q 343 1095 408 1156 q 176 1034 278 1034 q 9 1095 75 1034 q -56 1258 -56 1156 l 93 1258 q 116 1189 93 1215 q 176 1162 140 1162 q 236 1189 213 1162 q 260 1258 260 1215 l 408 1258 m 74 972 l 279 972 l 279 0 l 74 0 l 74 972 z "},"ĭ":{"ha":334,"x_min":-65,"x_max":399,"o":"m 399 968 q 334 804 399 865 q 167 743 269 743 q 0 804 65 743 q -65 968 -65 865 l 83 968 q 107 899 83 925 q 167 872 130 872 q 227 899 203 872 q 250 968 250 925 l 399 968 m 69 682 l 265 682 l 265 0 l 69 0 l 69 682 z "},"Į":{"ha":353,"x_min":18,"x_max":342,"o":"m 293 -111 l 342 -235 q 269 -259 315 -250 q 179 -268 224 -268 q 63 -227 108 -268 q 18 -122 18 -186 q 74 8 18 -54 l 74 972 l 279 972 l 279 0 q 212 -30 237 -9 q 187 -77 187 -51 q 202 -109 187 -96 q 243 -121 218 -121 q 293 -111 267 -121 z "},"į":{"ha":334,"x_min":4,"x_max":328,"o":"m 251 810 q 233 793 251 810 q 167 775 216 775 q 83 810 118 775 q 47 895 47 846 q 83 978 47 943 q 167 1013 118 1013 q 251 978 216 1013 q 286 895 286 943 q 251 810 286 846 m 279 -111 l 328 -235 q 255 -259 300 -250 q 165 -268 210 -268 q 49 -227 94 -268 q 4 -122 4 -186 q 69 18 4 -45 l 69 682 l 265 682 l 265 0 q 198 -30 223 -9 q 174 -77 174 -51 q 189 -109 174 -96 q 229 -121 204 -121 q 279 -111 254 -121 z "},"İ":{"ha":353,"x_min":57,"x_max":296,"o":"m 92 1244 q 110 1262 92 1244 q 176 1279 127 1279 q 260 1244 225 1279 q 296 1161 296 1209 q 260 1077 296 1112 q 176 1042 225 1042 q 92 1077 127 1042 q 57 1161 57 1112 q 92 1244 57 1209 m 74 972 l 279 972 l 279 0 l 74 0 l 74 972 z "},"ı":{"ha":334,"x_min":69,"x_max":265,"o":"m 69 682 l 265 682 l 265 0 l 69 0 l 69 682 z "},"Ĳ":{"ha":821,"x_min":74,"x_max":754,"o":"m 74 972 l 279 972 l 279 0 l 74 0 l 74 972 m 392 186 q 427 184 400 184 q 516 216 486 184 q 547 318 547 247 l 547 972 l 754 972 l 754 262 q 679 64 754 140 q 489 -11 604 -11 q 392 -4 430 -11 l 392 186 z "},"ĳ":{"ha":669,"x_min":47,"x_max":621,"o":"m 83 978 q 100 995 83 978 q 167 1013 118 1013 q 251 978 216 1013 q 286 895 286 943 q 251 810 286 846 q 167 775 216 775 q 83 810 118 775 q 47 895 47 846 q 83 978 47 943 m 501 1013 q 585 978 550 1013 q 621 895 621 943 q 585 810 621 846 q 501 775 550 775 q 417 810 453 775 q 382 895 382 846 q 417 977 382 942 q 501 1013 453 1013 m 69 682 l 265 682 l 265 0 l 69 0 l 69 682 m 306 -86 q 315 -87 308 -86 q 328 -87 323 -87 q 404 -1 404 -87 l 404 682 l 600 682 l 600 -21 q 531 -200 600 -134 q 345 -265 463 -265 q 306 -262 337 -265 l 306 -86 z "},"Ĵ":{"ha":468,"x_min":39,"x_max":539,"o":"m 296 1147 l 228 1051 l 54 1051 l 189 1268 l 403 1268 l 539 1051 l 366 1051 l 296 1147 m 195 318 l 195 972 l 401 972 l 401 262 q 326 64 401 140 q 136 -11 251 -11 q 39 -4 77 -11 l 39 186 q 74 184 47 184 q 164 216 133 184 q 195 318 195 247 z "},"ĵ":{"ha":334,"x_min":-75,"x_max":410,"o":"m 167 857 l 98 761 l -75 761 l 60 978 l 273 978 l 410 761 l 236 761 l 167 857 m 69 -1 l 69 682 l 265 682 l 265 -21 q 196 -200 265 -134 q 9 -265 127 -265 q -31 -262 1 -265 l -31 -86 q -19 -87 -27 -86 q -7 -87 -11 -87 q 69 -1 69 -87 z "},"Ķ":{"ha":951,"x_min":74,"x_max":920,"o":"m 494 514 l 920 0 l 650 0 l 279 464 l 279 0 l 74 0 l 74 972 l 279 972 l 279 561 l 625 972 l 885 972 l 494 514 m 220 -307 l 338 -89 l 570 -89 l 400 -307 l 220 -307 z "},"ķ":{"ha":773,"x_min":69,"x_max":764,"o":"m 265 306 l 265 0 l 69 0 l 69 972 l 265 972 l 265 400 l 501 682 l 742 682 l 458 353 l 764 0 l 513 0 l 265 306 m 165 -307 l 283 -89 l 515 -89 l 346 -307 l 165 -307 z "},"ĸ":{"ha":774,"x_min":69,"x_max":764,"o":"m 764 0 l 513 0 l 264 321 l 264 0 l 69 0 l 69 682 l 264 682 l 264 387 l 501 682 l 742 682 l 469 353 l 764 0 z "},"Ĺ":{"ha":760,"x_min":74,"x_max":725,"o":"m 427 1264 l 257 1047 l 77 1047 l 196 1264 l 427 1264 m 74 972 l 279 972 l 279 197 l 725 197 l 725 0 l 74 0 l 74 972 z "},"ĺ":{"ha":334,"x_min":69,"x_max":444,"o":"m 444 1264 l 275 1047 l 94 1047 l 214 1264 l 444 1264 m 265 972 l 265 0 l 69 0 l 69 972 l 265 972 z "},"Ļ":{"ha":760,"x_min":74,"x_max":725,"o":"m 74 972 l 279 972 l 279 197 l 725 197 l 725 0 l 74 0 l 74 972 m 493 -89 l 323 -307 l 143 -307 l 261 -89 l 493 -89 z "},"ļ":{"ha":334,"x_min":-37,"x_max":313,"o":"m 265 972 l 265 0 l 69 0 l 69 972 l 265 972 m 313 -89 l 143 -307 l -37 -307 l 81 -89 l 313 -89 z "},"Ľ":{"ha":760,"x_min":74,"x_max":725,"o":"m 400 757 l 427 1053 l 631 1053 l 561 757 l 400 757 m 74 972 l 279 972 l 279 197 l 725 197 l 725 0 l 74 0 l 74 972 z "},"ľ":{"ha":536,"x_min":69,"x_max":553,"o":"m 321 757 l 347 1053 l 553 1053 l 484 757 l 321 757 m 265 972 l 265 0 l 69 0 l 69 972 l 265 972 z "},"Ŀ":{"ha":769,"x_min":74,"x_max":725,"o":"m 74 972 l 279 972 l 279 197 l 725 197 l 725 0 l 74 0 l 74 972 m 549 427 q 459 463 496 427 q 422 551 422 499 q 459 639 422 603 q 549 675 496 675 q 638 639 602 675 q 675 551 675 604 q 638 463 675 499 q 549 427 602 427 z "},"ŀ":{"ha":553,"x_min":46,"x_max":555,"o":"m 241 972 l 241 0 l 46 0 l 46 972 l 241 972 m 428 399 q 338 435 375 399 q 301 524 301 471 q 338 611 301 575 q 428 647 375 647 q 518 611 481 647 q 555 524 555 576 q 518 435 555 471 q 428 399 481 399 z "},"Ł":{"ha":760,"x_min":-37,"x_max":725,"o":"m 279 197 l 725 197 l 725 0 l 74 0 l 74 385 l -37 334 l -37 511 l 74 562 l 74 972 l 279 972 l 279 659 l 503 762 l 503 586 l 279 482 l 279 197 z "},"ł":{"ha":334,"x_min":-16,"x_max":347,"o":"m 347 705 l 347 525 l 265 488 l 265 0 l 69 0 l 69 396 l -16 357 l -16 538 l 69 576 l 69 972 l 265 972 l 265 668 l 347 705 z "},"Ń":{"ha":923,"x_min":74,"x_max":850,"o":"m 717 1264 l 547 1047 l 367 1047 l 486 1264 l 717 1264 m 74 972 l 249 972 l 644 406 l 644 972 l 850 972 l 850 0 l 677 0 l 279 567 l 279 0 l 74 0 l 74 972 z "},"ń":{"ha":798,"x_min":69,"x_max":730,"o":"m 640 974 l 471 757 l 290 757 l 410 974 l 640 974 m 450 696 q 656 613 581 696 q 730 386 730 531 l 730 0 l 534 0 l 534 361 q 497 468 534 427 q 400 509 460 509 q 302 468 339 509 q 265 361 265 428 l 265 0 l 69 0 l 69 682 l 265 682 l 265 593 q 450 696 333 696 z "},"Ņ":{"ha":923,"x_min":74,"x_max":850,"o":"m 74 972 l 249 972 l 644 406 l 644 972 l 850 972 l 850 0 l 677 0 l 279 567 l 279 0 l 74 0 l 74 972 m 607 -89 l 437 -307 l 257 -307 l 375 -89 l 607 -89 z "},"ņ":{"ha":798,"x_min":69,"x_max":730,"o":"m 450 696 q 656 613 581 696 q 730 386 730 531 l 730 0 l 534 0 l 534 361 q 497 468 534 427 q 400 509 460 509 q 302 468 339 509 q 265 361 265 428 l 265 0 l 69 0 l 69 682 l 265 682 l 265 593 q 450 696 333 696 m 183 -307 l 302 -89 l 533 -89 l 364 -307 l 183 -307 z "},"Ň":{"ha":923,"x_min":74,"x_max":850,"o":"m 358 1047 l 224 1264 l 397 1264 l 465 1168 l 534 1264 l 708 1264 l 572 1047 l 358 1047 m 644 972 l 850 972 l 850 0 l 677 0 l 279 567 l 279 0 l 74 0 l 74 972 l 249 972 l 644 406 l 644 972 z "},"ň":{"ha":798,"x_min":69,"x_max":730,"o":"m 282 757 l 147 974 l 321 974 l 389 878 l 458 974 l 632 974 l 496 757 l 282 757 m 450 696 q 656 613 581 696 q 730 386 730 531 l 730 0 l 534 0 l 534 361 q 497 468 534 427 q 400 509 460 509 q 302 468 339 509 q 265 361 265 428 l 265 0 l 69 0 l 69 682 l 265 682 l 265 593 q 450 696 333 696 z "},"ŉ":{"ha":797,"x_min":69,"x_max":730,"o":"m 143 860 q 98 902 115 875 q 81 964 81 930 q 115 1046 81 1013 q 197 1080 149 1080 q 280 1046 246 1080 q 314 964 314 1013 q 307 920 314 941 q 278 861 300 898 l 218 757 l 93 757 l 143 860 m 450 696 q 656 613 581 696 q 730 386 730 531 l 730 0 l 534 0 l 534 361 q 497 468 534 427 q 400 509 460 509 q 302 468 339 509 q 265 361 265 428 l 265 0 l 69 0 l 69 682 l 265 682 l 265 593 q 450 696 333 696 z "},"Ŋ":{"ha":923,"x_min":74,"x_max":850,"o":"m 644 972 l 850 972 l 850 33 q 774 -165 850 -90 q 585 -240 699 -240 q 488 -233 528 -240 l 488 -45 l 524 -45 q 642 52 627 -45 l 279 567 l 279 0 l 74 0 l 74 972 l 249 972 l 644 406 l 644 972 z "},"ŋ":{"ha":797,"x_min":69,"x_max":730,"o":"m 730 386 l 730 0 l 729 0 l 729 -21 q 660 -200 729 -134 q 472 -265 591 -265 q 433 -262 465 -265 l 433 -86 q 445 -87 437 -86 q 457 -87 453 -87 q 533 -1 533 -87 l 533 180 l 534 180 l 534 361 q 497 468 534 427 q 400 509 460 509 q 302 468 339 509 q 265 361 265 428 l 265 0 l 69 0 l 69 682 l 265 682 l 265 593 q 450 696 333 696 q 656 613 581 696 q 730 386 730 531 z "},"Ō":{"ha":1086,"x_min":47,"x_max":1040,"o":"m 321 1054 l 321 1211 l 765 1211 l 765 1054 l 321 1054 m 290 921 q 347 954 290 921 q 543 986 404 986 q 797 921 683 986 q 976 741 911 856 q 1040 486 1040 627 q 976 231 1040 346 q 797 52 911 117 q 543 -14 683 -14 q 290 52 404 -14 q 112 231 176 117 q 47 486 47 346 q 112 741 47 627 q 290 921 176 856 m 747 700 q 706 743 747 700 q 543 786 665 786 q 340 700 421 786 q 258 486 258 614 q 340 272 258 358 q 543 186 421 186 q 747 272 665 186 q 828 486 828 358 q 747 700 828 614 z "},"ō":{"ha":789,"x_min":40,"x_max":749,"o":"m 172 764 l 172 921 l 616 921 l 616 764 l 172 764 m 395 696 q 534 669 469 696 q 647 594 600 642 q 721 481 694 547 q 749 340 749 415 q 702 159 749 241 q 575 32 656 78 q 395 -14 494 -14 q 142 87 243 -14 q 40 340 40 189 q 142 594 40 492 q 395 696 243 696 m 395 509 q 278 461 325 509 q 232 340 232 413 q 278 222 232 270 q 395 174 325 174 q 510 222 463 174 q 557 340 557 270 q 510 461 557 413 q 395 509 464 509 z "},"Ŏ":{"ha":1086,"x_min":47,"x_max":1040,"o":"m 775 1258 q 710 1095 775 1156 q 543 1034 645 1034 q 376 1095 441 1034 q 311 1258 311 1156 l 460 1258 q 483 1189 460 1215 q 543 1162 507 1162 q 603 1189 580 1162 q 627 1258 627 1215 l 775 1258 m 290 921 q 347 954 290 921 q 543 986 404 986 q 797 921 683 986 q 976 741 911 856 q 1040 486 1040 627 q 976 231 1040 346 q 797 52 911 117 q 543 -14 683 -14 q 290 52 404 -14 q 112 231 176 117 q 47 486 47 346 q 112 741 47 627 q 290 921 176 856 m 747 700 q 706 743 747 700 q 543 786 665 786 q 340 700 421 786 q 258 486 258 614 q 340 272 258 358 q 543 186 421 186 q 747 272 665 186 q 828 486 828 358 q 747 700 828 614 z "},"ŏ":{"ha":789,"x_min":40,"x_max":749,"o":"m 627 968 q 562 804 627 865 q 395 743 496 743 q 228 804 293 743 q 163 968 163 865 l 311 968 q 335 899 311 925 q 395 872 358 872 q 455 899 431 872 q 478 968 478 925 l 627 968 m 395 696 q 534 669 469 696 q 647 594 600 642 q 721 481 694 547 q 749 340 749 415 q 702 159 749 241 q 575 32 656 78 q 395 -14 494 -14 q 142 87 243 -14 q 40 340 40 189 q 142 594 40 492 q 395 696 243 696 m 395 509 q 278 461 325 509 q 232 340 232 413 q 278 222 232 270 q 395 174 325 174 q 510 222 463 174 q 557 340 557 270 q 510 461 557 413 q 395 509 464 509 z "},"Ő":{"ha":1086,"x_min":47,"x_max":1040,"o":"m 488 1047 l 572 1268 l 371 1268 l 288 1047 l 488 1047 m 789 1047 l 873 1268 l 672 1268 l 587 1047 l 789 1047 m 290 921 q 347 954 290 921 q 543 986 404 986 q 797 921 683 986 q 976 741 911 856 q 1040 486 1040 627 q 976 231 1040 346 q 797 52 911 117 q 543 -14 683 -14 q 290 52 404 -14 q 112 231 176 117 q 47 486 47 346 q 112 741 47 627 q 290 921 176 856 m 747 700 q 706 743 747 700 q 543 786 665 786 q 340 700 421 786 q 258 486 258 614 q 340 272 258 358 q 543 186 421 186 q 747 272 665 186 q 828 486 828 358 q 747 700 828 614 z "},"ő":{"ha":789,"x_min":40,"x_max":749,"o":"m 339 757 l 424 978 l 222 978 l 139 757 l 339 757 m 640 757 l 725 978 l 524 978 l 439 757 l 640 757 m 395 696 q 534 669 469 696 q 647 594 600 642 q 721 481 694 547 q 749 340 749 415 q 702 159 749 241 q 575 32 656 78 q 395 -14 494 -14 q 142 87 243 -14 q 40 340 40 189 q 142 594 40 492 q 395 696 243 696 m 395 509 q 278 461 325 509 q 232 340 232 413 q 278 222 232 270 q 395 174 325 174 q 510 222 463 174 q 557 340 557 270 q 510 461 557 413 q 395 509 464 509 z "},"Œ":{"ha":1315,"x_min":47,"x_max":1263,"o":"m 1263 775 l 873 775 l 873 600 l 1221 600 l 1221 403 l 873 403 l 873 197 l 1263 197 l 1263 0 l 541 0 q 289 63 402 0 q 112 239 176 127 q 47 490 47 351 q 112 737 47 627 q 289 910 176 848 q 541 972 402 972 l 1263 972 l 1263 775 m 667 197 l 667 775 l 525 775 q 333 695 408 775 q 258 490 258 614 q 334 281 258 364 q 525 197 410 197 l 667 197 z "},"œ":{"ha":1293,"x_min":40,"x_max":1253,"o":"m 1249 294 l 746 294 q 743 278 746 289 q 804 183 758 218 q 914 149 850 149 q 1006 171 970 149 q 1051 229 1042 193 l 1243 229 q 1138 53 1226 119 q 920 -14 1049 -14 q 774 16 842 -14 q 657 98 707 45 q 541 16 609 45 q 395 -14 473 -14 q 142 87 243 -14 q 40 340 40 189 q 142 594 40 492 q 395 696 243 696 q 539 667 472 696 q 656 585 607 637 q 772 667 705 637 q 917 696 839 696 q 1085 652 1008 696 q 1207 532 1162 609 q 1253 364 1253 456 q 1249 294 1253 361 m 907 538 q 808 508 849 538 q 750 419 768 478 l 1048 419 q 1003 504 1044 471 q 907 538 962 538 m 395 174 q 510 222 463 174 q 557 340 557 270 q 510 461 557 413 q 395 509 464 509 q 278 461 325 509 q 232 340 232 413 q 278 222 232 270 q 395 174 325 174 z "},"Ŕ":{"ha":878,"x_min":74,"x_max":854,"o":"m 625 1264 l 456 1047 l 275 1047 l 395 1264 l 625 1264 m 854 0 l 604 0 l 385 371 l 279 371 l 279 0 l 74 0 l 74 972 l 449 972 q 601 932 530 972 q 713 823 671 892 q 755 672 755 753 q 714 509 755 580 q 600 403 673 439 l 854 0 m 279 774 l 279 549 l 428 549 q 513 581 478 549 q 547 663 547 614 q 513 742 547 709 q 428 774 478 774 l 279 774 z "},"ŕ":{"ha":532,"x_min":69,"x_max":545,"o":"m 545 974 l 375 757 l 195 757 l 314 974 l 545 974 m 265 604 q 441 696 328 696 q 507 688 463 696 l 507 510 q 436 519 466 519 q 313 473 361 519 q 265 336 265 427 l 265 0 l 69 0 l 69 682 l 265 682 l 265 604 z "},"Ŗ":{"ha":878,"x_min":74,"x_max":854,"o":"m 600 403 l 854 0 l 604 0 l 385 371 l 279 371 l 279 0 l 74 0 l 74 972 l 449 972 q 601 932 530 972 q 713 823 671 892 q 755 672 755 753 q 714 509 755 580 q 600 403 673 439 m 279 774 l 279 549 l 428 549 q 513 581 478 549 q 547 663 547 614 q 513 742 547 709 q 428 774 478 774 l 279 774 m 211 -307 l 329 -89 l 561 -89 l 392 -307 l 211 -307 z "},"ŗ":{"ha":532,"x_min":-39,"x_max":507,"o":"m 441 696 q 507 688 463 696 l 507 510 q 436 519 466 519 q 313 473 361 519 q 265 336 265 427 l 265 0 l 69 0 l 69 682 l 265 682 l 265 604 q 441 696 328 696 m -39 -307 l 79 -89 l 311 -89 l 142 -307 l -39 -307 z "},"Ř":{"ha":878,"x_min":74,"x_max":854,"o":"m 267 1047 l 132 1264 l 306 1264 l 374 1168 l 443 1264 l 616 1264 l 481 1047 l 267 1047 m 854 0 l 604 0 l 385 371 l 279 371 l 279 0 l 74 0 l 74 972 l 449 972 q 601 932 530 972 q 713 823 671 892 q 755 672 755 753 q 714 509 755 580 q 600 403 673 439 l 854 0 m 279 774 l 279 549 l 428 549 q 513 581 478 549 q 547 663 547 614 q 513 742 547 709 q 428 774 478 774 l 279 774 z "},"ř":{"ha":532,"x_min":50,"x_max":534,"o":"m 184 757 l 50 974 l 224 974 l 292 878 l 361 974 l 534 974 l 399 757 l 184 757 m 265 604 q 441 696 328 696 q 507 688 463 696 l 507 510 q 436 519 466 519 q 313 473 361 519 q 265 336 265 427 l 265 0 l 69 0 l 69 682 l 265 682 l 265 604 z "},"Ś":{"ha":826,"x_min":54,"x_max":779,"o":"m 652 1264 l 482 1047 l 301 1047 l 421 1264 l 652 1264 m 422 -14 q 159 81 263 -14 q 54 322 54 176 l 257 322 q 303 219 257 258 q 422 180 349 180 q 533 210 490 180 q 575 286 575 239 q 557 334 575 313 q 510 367 540 354 q 443 390 481 380 q 362 412 404 401 q 277 437 319 423 q 196 472 235 450 q 129 523 158 494 q 81 596 99 551 q 64 699 64 642 q 159 905 64 823 q 399 986 254 986 q 527 969 469 986 q 626 921 585 951 q 694 850 667 891 q 735 762 722 809 q 749 663 749 715 l 536 663 q 496 755 535 720 q 392 791 457 791 q 299 767 334 791 q 265 700 265 743 q 283 655 265 674 q 330 625 300 637 q 398 603 360 613 q 479 583 437 593 q 565 558 522 572 q 646 522 608 545 q 714 470 684 500 q 762 393 744 439 q 779 286 779 346 q 678 72 779 157 q 422 -14 576 -14 z "},"ś":{"ha":662,"x_min":31,"x_max":618,"o":"m 566 975 l 396 758 l 215 758 l 335 975 l 566 975 m 346 -14 q 126 51 211 -14 q 31 231 41 116 l 218 231 q 254 175 221 196 q 336 154 288 154 q 404 168 380 154 q 428 205 428 181 q 407 242 428 228 q 352 263 386 256 q 277 277 318 271 q 195 296 236 284 q 121 328 155 309 q 66 384 87 347 q 45 472 45 420 q 118 632 45 569 q 315 696 192 696 q 515 636 432 696 q 611 468 599 576 l 414 468 q 384 514 412 495 q 311 533 356 533 q 255 521 276 533 q 233 486 233 509 q 255 453 233 465 q 310 434 276 440 q 385 422 344 428 q 466 403 425 416 q 541 369 507 390 q 596 306 575 347 q 618 207 618 264 q 539 50 618 113 q 346 -14 461 -14 z "},"Ŝ":{"ha":826,"x_min":54,"x_max":779,"o":"m 400 1147 l 332 1051 l 158 1051 l 293 1268 l 507 1268 l 643 1051 l 469 1051 l 400 1147 m 265 700 q 283 655 265 674 q 330 625 300 637 q 398 603 360 613 q 479 583 437 593 q 565 558 522 572 q 646 522 608 545 q 714 470 684 500 q 762 393 744 439 q 779 286 779 346 q 678 72 779 157 q 422 -14 576 -14 q 159 81 263 -14 q 54 322 54 176 l 257 322 q 303 219 257 258 q 422 180 349 180 q 533 210 490 180 q 575 286 575 239 q 557 334 575 313 q 510 367 540 354 q 443 390 481 380 q 362 412 404 401 q 277 437 319 423 q 196 472 235 450 q 129 523 158 494 q 81 596 99 551 q 64 699 64 642 q 159 905 64 823 q 399 986 254 986 q 527 969 469 986 q 626 921 585 951 q 694 850 667 891 q 735 762 722 809 q 749 663 749 715 l 536 663 q 496 755 535 720 q 392 791 457 791 q 299 767 334 791 q 265 700 265 743 z "},"ŝ":{"ha":662,"x_min":31,"x_max":618,"o":"m 314 859 l 245 762 l 72 762 l 207 979 l 421 979 l 555 762 l 382 762 l 314 859 m 233 486 q 255 453 233 465 q 310 434 276 440 q 385 422 344 428 q 466 403 425 416 q 541 369 507 390 q 596 306 575 347 q 618 207 618 264 q 539 50 618 113 q 346 -14 461 -14 q 126 51 211 -14 q 31 231 41 116 l 218 231 q 254 175 221 196 q 336 154 288 154 q 404 168 380 154 q 428 205 428 181 q 407 242 428 228 q 352 263 386 256 q 277 277 318 271 q 195 296 236 284 q 121 328 155 309 q 66 384 87 347 q 45 472 45 420 q 118 632 45 569 q 315 696 192 696 q 515 636 432 696 q 611 468 599 576 l 414 468 q 384 514 412 495 q 311 533 356 533 q 255 521 276 533 q 233 486 233 509 z "},"Ş":{"ha":826,"x_min":54,"x_max":779,"o":"m 779 286 q 701 94 779 174 q 498 -8 623 13 q 544 -101 533 -54 q 542 -187 555 -149 q 497 -254 528 -225 q 415 -296 467 -283 q 302 -304 364 -310 l 257 -165 q 368 -144 332 -167 q 400 -86 404 -122 q 361 -9 396 -51 q 140 100 225 8 q 54 322 54 191 l 257 322 q 303 219 257 258 q 422 180 349 180 q 533 210 490 180 q 575 286 575 239 q 557 334 575 313 q 510 367 540 354 q 443 390 481 380 q 362 412 404 401 q 277 437 319 423 q 196 472 235 450 q 129 523 158 494 q 81 596 99 551 q 64 699 64 642 q 159 905 64 823 q 399 986 254 986 q 527 969 469 986 q 626 921 585 951 q 694 850 667 891 q 735 762 722 809 q 749 663 749 715 l 536 663 q 496 755 535 720 q 392 791 457 791 q 299 767 334 791 q 265 700 265 743 q 283 655 265 674 q 330 625 300 637 q 398 603 360 613 q 479 583 437 593 q 565 558 522 572 q 646 522 608 545 q 714 470 684 500 q 762 393 744 439 q 779 286 779 346 z "},"ş":{"ha":662,"x_min":31,"x_max":618,"o":"m 618 207 q 559 68 618 127 q 410 -8 501 9 q 454 -102 444 -55 q 452 -188 465 -149 q 408 -255 439 -226 q 327 -297 378 -283 q 214 -304 276 -310 l 168 -165 q 279 -144 243 -167 q 311 -85 315 -121 q 271 -8 307 -50 q 103 71 166 9 q 31 231 39 133 l 218 231 q 254 175 221 196 q 336 154 288 154 q 404 168 380 154 q 428 205 428 181 q 407 242 428 228 q 352 263 386 256 q 277 277 318 271 q 195 296 236 284 q 121 328 155 309 q 66 384 87 347 q 45 472 45 420 q 118 632 45 569 q 315 696 192 696 q 515 636 432 696 q 611 468 599 576 l 414 468 q 384 514 412 495 q 311 533 356 533 q 255 521 276 533 q 233 486 233 509 q 255 453 233 465 q 310 434 276 440 q 385 422 344 428 q 466 403 425 416 q 541 369 507 390 q 596 306 575 347 q 618 207 618 264 z "},"Š":{"ha":826,"x_min":54,"x_max":779,"o":"m 293 1047 l 158 1264 l 332 1264 l 400 1168 l 469 1264 l 643 1264 l 507 1047 l 293 1047 m 265 700 q 283 655 265 674 q 330 625 300 637 q 398 603 360 613 q 479 583 437 593 q 565 558 522 572 q 646 522 608 545 q 714 470 684 500 q 762 393 744 439 q 779 286 779 346 q 678 72 779 157 q 422 -14 576 -14 q 159 81 263 -14 q 54 322 54 176 l 257 322 q 303 219 257 258 q 422 180 349 180 q 533 210 490 180 q 575 286 575 239 q 557 334 575 313 q 510 367 540 354 q 443 390 481 380 q 362 412 404 401 q 277 437 319 423 q 196 472 235 450 q 129 523 158 494 q 81 596 99 551 q 64 699 64 642 q 159 905 64 823 q 399 986 254 986 q 527 969 469 986 q 626 921 585 951 q 694 850 667 891 q 735 762 722 809 q 749 663 749 715 l 536 663 q 496 755 535 720 q 392 791 457 791 q 299 767 334 791 q 265 700 265 743 z "},"š":{"ha":662,"x_min":31,"x_max":618,"o":"m 207 758 l 72 975 l 245 975 l 314 879 l 382 975 l 555 975 l 421 758 l 207 758 m 233 486 q 255 453 233 465 q 310 434 276 440 q 385 422 344 428 q 466 403 425 416 q 541 369 507 390 q 596 306 575 347 q 618 207 618 264 q 539 50 618 113 q 346 -14 461 -14 q 126 51 211 -14 q 31 231 41 116 l 218 231 q 254 175 221 196 q 336 154 288 154 q 404 168 380 154 q 428 205 428 181 q 407 242 428 228 q 352 263 386 256 q 277 277 318 271 q 195 296 236 284 q 121 328 155 309 q 66 384 87 347 q 45 472 45 420 q 118 632 45 569 q 315 696 192 696 q 515 636 432 696 q 611 468 599 576 l 414 468 q 384 514 412 495 q 311 533 356 533 q 255 521 276 533 q 233 486 233 509 z "},"Ţ":{"ha":831,"x_min":31,"x_max":804,"o":"m 804 775 l 519 775 l 519 18 q 574 -65 556 -22 q 591 -145 592 -108 q 572 -214 590 -182 q 524 -268 555 -246 q 446 -300 492 -290 q 345 -304 399 -310 l 300 -165 q 393 -152 358 -166 q 438 -115 429 -138 q 436 -62 447 -92 q 395 0 425 -32 l 314 0 l 314 775 l 31 775 l 31 972 l 804 972 l 804 775 z "},"ţ":{"ha":543,"x_min":14,"x_max":504,"o":"m 504 496 l 336 496 l 336 281 q 369 201 336 228 q 454 175 401 175 q 504 180 483 175 l 504 0 q 439 -9 469 -7 q 483 -102 473 -56 q 479 -188 493 -149 q 435 -255 466 -226 q 354 -297 405 -283 q 241 -304 303 -310 l 196 -165 q 296 -150 260 -166 q 337 -105 332 -133 q 324 -44 342 -78 q 267 24 306 -10 q 173 123 206 59 q 140 278 140 188 l 140 496 l 14 496 l 14 682 l 140 682 l 140 861 l 336 861 l 336 682 l 504 682 l 504 496 z "},"Ť":{"ha":833,"x_min":31,"x_max":804,"o":"m 309 1047 l 174 1264 l 347 1264 l 415 1168 l 485 1264 l 659 1264 l 522 1047 l 309 1047 m 804 972 l 804 775 l 519 775 l 519 0 l 314 0 l 314 775 l 31 775 l 31 972 l 804 972 z "},"ť":{"ha":543,"x_min":14,"x_max":621,"o":"m 416 1053 l 621 1053 l 551 757 l 390 757 l 416 1053 m 336 861 l 336 682 l 504 682 l 504 496 l 336 496 l 336 281 q 369 201 336 228 q 454 175 401 175 q 504 180 483 175 l 504 0 q 410 -11 462 -11 q 214 66 287 -11 q 140 278 140 142 l 140 496 l 14 496 l 14 682 l 140 682 l 140 861 l 336 861 z "},"Ŧ":{"ha":833,"x_min":31,"x_max":804,"o":"m 804 775 l 519 775 l 519 551 l 648 551 l 648 421 l 519 421 l 519 0 l 314 0 l 314 421 l 183 421 l 183 551 l 314 551 l 314 775 l 31 775 l 31 972 l 804 972 l 804 775 z "},"ŧ":{"ha":543,"x_min":14,"x_max":504,"o":"m 504 496 l 336 496 l 336 393 l 479 393 l 479 286 l 336 286 l 336 281 q 369 201 336 228 q 454 175 401 175 q 504 180 483 175 l 504 0 q 410 -11 462 -11 q 214 66 287 -11 q 140 278 140 142 l 140 286 l 14 286 l 14 393 l 140 393 l 140 496 l 14 496 l 14 682 l 140 682 l 140 861 l 336 861 l 336 682 l 504 682 l 504 496 z "},"Ũ":{"ha":918,"x_min":74,"x_max":844,"o":"m 163 1076 q 223 1225 171 1168 q 349 1283 276 1283 q 430 1265 389 1283 q 503 1228 472 1246 q 547 1210 533 1210 q 583 1228 569 1210 q 597 1276 596 1246 l 755 1250 q 692 1100 745 1158 q 568 1042 639 1042 q 484 1061 526 1042 q 411 1098 442 1080 q 364 1117 380 1117 q 332 1098 345 1117 q 321 1048 320 1078 l 163 1076 m 460 -12 q 262 38 350 -12 q 124 177 174 88 q 74 376 74 266 l 74 972 l 279 972 l 279 376 q 331 241 279 295 q 460 187 382 187 q 588 241 537 187 q 639 376 639 295 l 639 972 l 844 972 l 844 376 q 794 177 844 266 q 657 38 745 88 q 460 -12 569 -12 z "},"ũ":{"ha":798,"x_min":69,"x_max":730,"o":"m 301 827 q 270 808 281 827 q 260 758 258 789 l 100 786 q 161 935 108 878 q 286 993 214 993 q 368 975 326 993 q 440 938 410 956 q 486 920 471 920 q 521 938 507 920 q 536 986 534 956 l 693 960 q 630 810 684 868 q 505 751 576 751 q 421 770 463 751 q 349 808 380 789 q 301 827 317 827 m 534 682 l 730 682 l 730 0 l 534 0 l 534 90 q 350 -14 470 -14 q 144 69 219 -14 q 69 297 69 152 l 69 682 l 265 682 l 265 322 q 302 214 265 254 q 400 174 338 174 q 497 214 460 174 q 534 322 534 254 l 534 682 z "},"Ū":{"ha":918,"x_min":74,"x_max":844,"o":"m 237 1054 l 237 1211 l 682 1211 l 682 1054 l 237 1054 m 460 -12 q 262 38 350 -12 q 124 177 174 88 q 74 376 74 266 l 74 972 l 279 972 l 279 376 q 331 241 279 295 q 460 187 382 187 q 588 241 537 187 q 639 376 639 295 l 639 972 l 844 972 l 844 376 q 794 177 844 266 q 657 38 745 88 q 460 -12 569 -12 z "},"ū":{"ha":798,"x_min":69,"x_max":730,"o":"m 619 921 l 619 764 l 175 764 l 175 921 l 619 921 m 534 682 l 730 682 l 730 0 l 534 0 l 534 90 q 350 -14 470 -14 q 144 69 219 -14 q 69 297 69 152 l 69 682 l 265 682 l 265 322 q 302 214 265 254 q 400 174 338 174 q 497 214 460 174 q 534 322 534 254 l 534 682 z "},"Ŭ":{"ha":918,"x_min":74,"x_max":844,"o":"m 692 1258 q 627 1095 692 1156 q 460 1034 562 1034 q 293 1095 358 1034 q 228 1258 228 1156 l 376 1258 q 400 1189 376 1215 q 460 1162 423 1162 q 520 1189 496 1162 q 543 1258 543 1215 l 692 1258 m 460 -12 q 262 38 350 -12 q 124 177 174 88 q 74 376 74 266 l 74 972 l 279 972 l 279 376 q 331 241 279 295 q 460 187 382 187 q 588 241 537 187 q 639 376 639 295 l 639 972 l 844 972 l 844 376 q 794 177 844 266 q 657 38 745 88 q 460 -12 569 -12 z "},"ŭ":{"ha":798,"x_min":69,"x_max":730,"o":"m 397 743 q 231 804 296 743 q 165 968 165 865 l 314 968 q 337 899 314 925 q 397 872 361 872 q 457 899 433 872 q 481 968 481 926 l 629 968 q 564 804 629 865 q 397 743 498 743 m 534 682 l 730 682 l 730 0 l 534 0 l 534 90 q 350 -14 470 -14 q 144 69 219 -14 q 69 297 69 152 l 69 682 l 265 682 l 265 322 q 302 214 265 254 q 400 174 338 174 q 497 214 460 174 q 534 322 534 254 l 534 682 z "},"Ů":{"ha":918,"x_min":74,"x_max":844,"o":"m 601 1094 q 573 1066 601 1094 q 460 1039 544 1039 q 319 1094 376 1039 q 262 1229 262 1148 q 319 1365 262 1310 q 460 1421 376 1421 q 601 1365 544 1421 q 659 1229 659 1310 q 601 1094 659 1148 m 404 1175 q 415 1164 404 1175 q 460 1153 427 1153 q 516 1175 493 1153 q 539 1229 539 1197 q 516 1284 539 1262 q 460 1307 494 1307 q 403 1284 426 1307 q 380 1229 380 1262 q 404 1175 380 1197 m 460 -12 q 262 38 350 -12 q 124 177 174 88 q 74 376 74 266 l 74 972 l 279 972 l 279 376 q 331 241 279 295 q 460 187 382 187 q 588 241 537 187 q 639 376 639 295 l 639 972 l 844 972 l 844 376 q 794 177 844 266 q 657 38 745 88 q 460 -12 569 -12 z "},"ů":{"ha":798,"x_min":69,"x_max":730,"o":"m 397 749 q 257 804 314 749 q 200 939 200 859 q 257 1075 200 1020 q 397 1131 314 1131 q 539 1075 481 1131 q 596 939 596 1020 q 539 803 596 858 q 397 749 481 749 m 397 1017 q 341 995 363 1017 q 319 939 319 972 q 342 885 319 907 q 397 863 364 863 q 455 885 432 863 q 478 939 478 907 q 455 994 478 972 q 397 1017 432 1017 m 534 682 l 730 682 l 730 0 l 534 0 l 534 90 q 350 -14 470 -14 q 144 69 219 -14 q 69 297 69 152 l 69 682 l 265 682 l 265 322 q 302 214 265 254 q 400 174 338 174 q 497 214 460 174 q 534 322 534 254 l 534 682 z "},"Ű":{"ha":918,"x_min":74,"x_max":844,"o":"m 403 1047 l 488 1268 l 286 1268 l 203 1047 l 403 1047 m 704 1047 l 789 1268 l 587 1268 l 503 1047 l 704 1047 m 460 -12 q 262 38 350 -12 q 124 177 174 88 q 74 376 74 266 l 74 972 l 279 972 l 279 376 q 331 241 279 295 q 460 187 382 187 q 588 241 537 187 q 639 376 639 295 l 639 972 l 844 972 l 844 376 q 794 177 844 266 q 657 38 745 88 q 460 -12 569 -12 z "},"ű":{"ha":798,"x_min":69,"x_max":730,"o":"m 425 978 l 342 757 l 140 757 l 225 978 l 425 978 m 726 978 l 642 757 l 441 757 l 526 978 l 726 978 m 534 682 l 730 682 l 730 0 l 534 0 l 534 90 q 350 -14 470 -14 q 144 69 219 -14 q 69 297 69 152 l 69 682 l 265 682 l 265 322 q 302 214 265 254 q 400 174 338 174 q 497 214 460 174 q 534 322 534 254 l 534 682 z "},"Ų":{"ha":918,"x_min":74,"x_max":844,"o":"m 639 972 l 844 972 l 844 376 q 763 130 844 233 q 550 -3 681 26 q 491 -33 513 -13 q 469 -77 469 -53 q 485 -109 469 -96 q 525 -121 500 -121 q 575 -111 549 -121 l 624 -235 q 551 -259 597 -250 q 461 -268 506 -268 q 345 -227 390 -268 q 300 -122 300 -186 q 350 1 300 -55 q 150 137 226 35 q 74 376 74 239 l 74 972 l 279 972 l 279 376 q 331 241 279 295 q 460 187 382 187 q 588 241 537 187 q 639 376 639 295 l 639 972 z "},"ų":{"ha":798,"x_min":69,"x_max":791,"o":"m 743 -111 l 791 -235 q 719 -259 764 -250 q 629 -268 674 -268 q 513 -227 558 -268 q 468 -122 468 -186 q 534 20 468 -45 l 534 90 q 350 -14 470 -14 q 144 69 219 -14 q 69 297 69 152 l 69 682 l 265 682 l 265 322 q 302 214 265 254 q 400 174 338 174 q 497 214 460 174 q 534 322 534 254 l 534 682 l 730 682 l 730 0 l 729 0 q 662 -30 687 -9 q 637 -77 637 -51 q 653 -109 637 -96 q 693 -121 668 -121 q 743 -111 718 -121 z "},"Ŵ":{"ha":1409,"x_min":11,"x_max":1397,"o":"m 704 1147 l 636 1051 l 463 1051 l 597 1268 l 811 1268 l 947 1051 l 774 1051 l 704 1147 m 1182 974 l 1397 974 l 1075 0 l 909 0 l 705 625 l 503 0 l 336 0 l 11 974 l 231 974 l 424 347 l 625 974 l 790 974 l 991 347 l 1182 974 z "},"ŵ":{"ha":1095,"x_min":11,"x_max":1084,"o":"m 549 857 l 481 761 l 307 761 l 441 978 l 656 978 l 791 761 l 618 761 l 549 857 m 873 682 l 1084 682 l 839 0 l 685 0 l 547 374 l 408 0 l 257 0 l 11 682 l 221 682 l 335 309 l 471 682 l 624 682 l 761 309 l 873 682 z "},"Ŷ":{"ha":945,"x_min":11,"x_max":933,"o":"m 473 1147 l 406 1051 l 232 1051 l 367 1268 l 581 1268 l 717 1051 l 543 1051 l 473 1147 m 693 972 l 933 972 l 579 411 l 579 0 l 372 0 l 372 411 l 11 972 l 262 972 l 478 619 l 693 972 z "},"ŷ":{"ha":747,"x_min":11,"x_max":736,"o":"m 386 857 l 318 761 l 144 761 l 279 978 l 493 978 l 629 761 l 456 761 l 386 857 m 525 682 l 736 682 l 357 -227 l 147 -227 l 273 56 l 11 682 l 222 682 l 374 283 l 525 682 z "},"Ÿ":{"ha":945,"x_min":11,"x_max":933,"o":"m 245 1244 q 262 1262 245 1244 q 329 1279 280 1279 q 413 1244 378 1279 q 449 1161 449 1209 q 413 1077 449 1112 q 329 1042 378 1042 q 245 1077 280 1042 q 210 1161 210 1112 q 245 1244 210 1209 m 621 1279 q 705 1244 669 1279 q 741 1161 741 1209 q 705 1077 741 1112 q 621 1042 669 1042 q 537 1077 572 1042 q 501 1161 501 1112 q 537 1244 501 1208 q 621 1279 572 1279 m 11 972 l 262 972 l 478 619 l 693 972 l 933 972 l 579 411 l 579 0 l 372 0 l 372 411 l 11 972 z "},"Ź":{"ha":829,"x_min":35,"x_max":787,"o":"m 665 1264 l 496 1047 l 315 1047 l 435 1264 l 665 1264 m 62 972 l 783 972 l 783 833 l 315 197 l 787 197 l 787 0 l 35 0 l 35 139 l 504 775 l 62 775 l 62 972 z "},"ź":{"ha":700,"x_min":32,"x_max":652,"o":"m 593 974 l 424 757 l 243 757 l 363 974 l 593 974 m 647 682 l 647 543 l 317 187 l 652 187 l 652 0 l 32 0 l 32 139 l 364 496 l 57 496 l 57 682 l 647 682 z "},"Ż":{"ha":829,"x_min":35,"x_max":787,"o":"m 330 1244 q 347 1262 330 1244 q 414 1279 365 1279 q 498 1244 463 1279 q 533 1161 533 1209 q 498 1077 533 1112 q 414 1042 463 1042 q 330 1077 365 1042 q 294 1161 294 1112 q 330 1244 294 1209 m 62 972 l 783 972 l 783 833 l 315 197 l 787 197 l 787 0 l 35 0 l 35 139 l 504 775 l 62 775 l 62 972 z "},"ż":{"ha":700,"x_min":32,"x_max":652,"o":"m 258 978 q 275 995 258 978 q 342 1013 293 1013 q 426 978 391 1013 q 461 895 461 943 q 426 810 461 846 q 342 775 391 775 q 258 810 293 775 q 222 895 222 846 q 258 978 222 943 m 647 682 l 647 543 l 317 187 l 652 187 l 652 0 l 32 0 l 32 139 l 364 496 l 57 496 l 57 682 l 647 682 z "},"Ž":{"ha":829,"x_min":35,"x_max":787,"o":"m 306 1047 l 171 1264 l 345 1264 l 412 1168 l 482 1264 l 656 1264 l 519 1047 l 306 1047 m 315 197 l 787 197 l 787 0 l 35 0 l 35 139 l 504 775 l 62 775 l 62 972 l 783 972 l 783 833 l 315 197 z "},"ž":{"ha":700,"x_min":32,"x_max":652,"o":"m 235 757 l 100 974 l 273 974 l 342 878 l 411 974 l 585 974 l 449 757 l 235 757 m 317 187 l 652 187 l 652 0 l 32 0 l 32 139 l 364 496 l 57 496 l 57 682 l 647 682 l 647 543 l 317 187 z "},"ſ":{"ha":503,"x_min":33,"x_max":524,"o":"m 429 1007 q 524 996 479 1007 l 524 815 q 473 821 505 821 q 388 794 420 821 q 355 715 355 768 l 355 0 l 160 0 l 160 496 l 33 496 l 33 682 l 160 682 l 160 720 q 234 930 160 854 q 429 1007 307 1007 z "},"ƀ":{"ha":837,"x_min":-65,"x_max":798,"o":"m 481 696 q 641 649 568 696 q 755 520 713 602 q 798 342 798 438 q 755 164 798 245 q 641 34 713 82 q 481 -14 568 -14 q 265 96 338 -14 l 265 0 l 69 0 l 69 765 l -65 765 l -65 896 l 69 896 l 69 972 l 265 972 l 265 896 l 400 896 l 400 765 l 265 765 l 265 586 q 481 696 339 696 m 436 174 q 556 222 507 174 q 606 342 606 271 q 556 461 606 412 q 436 510 507 510 q 315 461 364 510 q 265 342 265 412 q 315 222 265 271 q 436 174 364 174 z "},"ƒ":{"ha":536,"x_min":-31,"x_max":503,"o":"m 453 821 q 367 794 399 821 q 335 715 335 768 l 335 682 l 503 682 l 503 496 l 335 496 l 335 49 q 261 -163 335 -86 q 65 -240 187 -240 q -31 -229 12 -240 l -31 -49 q 21 -54 -9 -54 q 106 -28 74 -54 q 139 52 139 -1 l 139 496 l 12 496 l 12 682 l 139 682 l 139 720 q 212 930 139 854 q 407 1007 286 1007 q 503 996 458 1007 l 503 815 q 453 821 481 821 z "},"Ǫ":{"ha":1086,"x_min":47,"x_max":1040,"o":"m 623 -8 q 576 -37 593 -18 q 558 -77 558 -55 q 573 -109 558 -96 q 614 -121 589 -121 q 664 -111 638 -121 l 713 -235 q 640 -259 686 -250 q 550 -268 595 -268 q 434 -227 479 -268 q 389 -122 389 -186 q 435 -3 389 -60 q 155 168 262 33 q 47 486 47 302 q 112 741 47 627 q 290 921 176 856 q 543 986 404 986 q 797 921 683 986 q 976 741 911 856 q 1040 486 1040 627 q 923 157 1040 294 q 623 -8 806 19 m 340 700 q 299 657 340 700 q 258 486 258 614 q 340 272 258 358 q 543 186 421 186 q 747 272 665 186 q 828 486 828 358 q 747 700 828 614 q 543 786 665 786 q 340 700 421 786 z "},"ǫ":{"ha":789,"x_min":40,"x_max":749,"o":"m 479 -4 q 425 -34 445 -14 q 404 -77 404 -54 q 419 -109 404 -96 q 460 -121 435 -121 q 510 -111 484 -121 l 558 -235 q 486 -259 531 -250 q 396 -268 441 -268 q 280 -227 325 -268 q 235 -122 235 -186 q 285 1 235 -55 q 107 127 175 35 q 40 340 40 219 q 142 594 40 492 q 395 696 243 696 q 534 669 469 696 q 647 594 600 642 q 721 481 694 547 q 749 340 749 415 q 674 117 749 212 q 479 -4 599 23 m 232 340 q 278 222 232 270 q 395 174 325 174 q 510 222 463 174 q 557 340 557 270 q 510 461 557 413 q 395 509 464 509 q 278 461 325 509 q 232 340 232 413 z "},"Ǻ":{"ha":957,"x_min":8,"x_max":949,"o":"m 622 1094 q 593 1066 622 1094 q 481 1039 565 1039 q 340 1094 397 1039 q 283 1229 283 1148 q 311 1329 283 1284 q 385 1398 338 1374 l 500 1607 l 730 1607 l 570 1401 q 649 1332 620 1378 q 679 1229 679 1286 q 622 1094 679 1148 m 425 1175 q 436 1164 425 1175 q 481 1153 448 1153 q 537 1175 514 1153 q 559 1229 559 1197 q 537 1284 559 1262 q 481 1307 515 1307 q 424 1284 447 1307 q 401 1229 401 1262 q 425 1175 401 1197 m 725 0 l 664 163 l 289 163 l 227 0 l 8 0 l 395 972 l 561 972 l 949 0 l 725 0 m 357 339 l 596 339 l 478 650 l 357 339 z "},"ǻ":{"ha":837,"x_min":40,"x_max":770,"o":"m 461 749 q 321 804 378 749 q 264 939 264 859 q 292 1039 264 994 q 367 1108 319 1084 l 481 1318 l 713 1318 l 550 1111 q 630 1042 600 1088 q 660 939 660 996 q 603 803 660 858 q 461 749 545 749 m 461 863 q 519 885 496 863 q 542 939 542 907 q 519 994 542 972 q 461 1017 496 1017 q 405 995 427 1017 q 383 939 383 972 q 406 885 383 907 q 461 863 428 863 m 574 682 l 770 682 l 770 0 l 574 0 l 574 97 q 357 -14 499 -14 q 197 34 270 -14 q 82 164 124 82 q 40 342 40 245 q 82 520 40 438 q 197 649 124 602 q 357 696 270 696 q 574 585 499 696 l 574 682 m 403 174 q 524 222 475 174 q 574 342 574 271 q 524 461 574 412 q 403 510 475 510 q 282 461 332 510 q 232 342 232 412 q 282 222 232 271 q 403 174 332 174 z "},"Ǽ":{"ha":1307,"x_min":8,"x_max":1254,"o":"m 1121 1264 l 951 1047 l 771 1047 l 890 1264 l 1121 1264 m 1254 775 l 871 775 l 871 600 l 1213 600 l 1213 403 l 871 403 l 871 197 l 1254 197 l 1254 0 l 668 0 l 668 207 l 353 207 l 241 0 l 8 0 l 553 972 l 1254 972 l 1254 775 m 450 390 l 668 390 l 668 799 l 450 390 z "},"ǽ":{"ha":1361,"x_min":40,"x_max":1321,"o":"m 932 974 l 762 757 l 582 757 l 701 974 l 932 974 m 1321 371 q 1315 297 1321 339 l 821 297 q 881 190 834 227 q 1000 153 928 153 q 1089 172 1046 153 q 1149 222 1131 192 l 1301 129 q 1186 27 1267 68 q 1017 -14 1105 -14 q 770 97 851 -14 l 770 0 l 574 0 l 574 97 q 357 -14 499 -14 q 197 34 270 -14 q 82 164 124 82 q 40 342 40 245 q 82 520 40 438 q 197 649 124 602 q 357 696 270 696 q 574 585 499 696 l 574 682 l 770 682 l 770 587 q 1013 696 852 696 q 1231 601 1141 696 q 1321 371 1321 506 m 822 418 l 1128 418 q 1079 503 1121 469 q 982 538 1036 538 q 877 507 918 538 q 822 418 837 475 m 403 174 q 524 222 475 174 q 574 342 574 271 q 524 461 574 412 q 403 510 475 510 q 282 461 332 510 q 232 342 232 412 q 282 222 232 271 q 403 174 332 174 z "},"Ș":{"ha":826,"x_min":54,"x_max":779,"o":"m 422 -14 q 159 81 263 -14 q 54 322 54 176 l 257 322 q 303 219 257 258 q 422 180 349 180 q 533 210 490 180 q 575 286 575 239 q 557 334 575 313 q 510 367 540 354 q 443 390 481 380 q 362 412 404 401 q 277 437 319 423 q 196 472 235 450 q 129 523 158 494 q 81 596 99 551 q 64 699 64 642 q 159 905 64 823 q 399 986 254 986 q 527 969 469 986 q 626 921 585 951 q 694 850 667 891 q 735 762 722 809 q 749 663 749 715 l 536 663 q 496 755 535 720 q 392 791 457 791 q 299 767 334 791 q 265 700 265 743 q 283 655 265 674 q 330 625 300 637 q 398 603 360 613 q 479 583 437 593 q 565 558 522 572 q 646 522 608 545 q 714 470 684 500 q 762 393 744 439 q 779 286 779 346 q 678 72 779 157 q 422 -14 576 -14 m 558 -89 l 389 -307 l 208 -307 l 326 -89 l 558 -89 z "},"ș":{"ha":662,"x_min":31,"x_max":618,"o":"m 346 -14 q 126 51 211 -14 q 31 231 41 116 l 218 231 q 254 175 221 196 q 336 154 288 154 q 404 168 380 154 q 428 205 428 181 q 407 242 428 228 q 352 263 386 256 q 277 277 318 271 q 195 296 236 284 q 121 328 155 309 q 66 384 87 347 q 45 472 45 420 q 118 632 45 569 q 315 696 192 696 q 515 636 432 696 q 611 468 599 576 l 414 468 q 384 514 412 495 q 311 533 356 533 q 255 521 276 533 q 233 486 233 509 q 255 453 233 465 q 310 434 276 440 q 385 422 344 428 q 466 403 425 416 q 541 369 507 390 q 596 306 575 347 q 618 207 618 264 q 539 50 618 113 q 346 -14 461 -14 m 469 -89 l 300 -307 l 119 -307 l 237 -89 l 469 -89 z "},"Ț":{"ha":833,"x_min":31,"x_max":804,"o":"m 804 972 l 804 775 l 519 775 l 519 0 l 314 0 l 314 775 l 31 775 l 31 972 l 804 972 m 212 -307 l 330 -89 l 562 -89 l 393 -307 l 212 -307 z "},"ț":{"ha":543,"x_min":14,"x_max":504,"o":"m 504 496 l 336 496 l 336 281 q 369 201 336 228 q 454 175 401 175 q 504 180 483 175 l 504 0 q 410 -11 462 -11 q 214 66 287 -11 q 140 278 140 142 l 140 496 l 14 496 l 14 682 l 140 682 l 140 861 l 336 861 l 336 682 l 504 682 l 504 496 m 147 -307 l 265 -89 l 497 -89 l 328 -307 l 147 -307 z "},"ȷ":{"ha":334,"x_min":-31,"x_max":265,"o":"m -31 -86 q -19 -87 -27 -86 q -7 -87 -11 -87 q 69 -1 69 -87 l 69 682 l 265 682 l 265 -21 q 196 -200 265 -134 q 9 -265 127 -265 q -31 -262 1 -265 l -31 -86 z "},"Ƀ":{"ha":818,"x_min":-56,"x_max":786,"o":"m 607 514 q 735 433 685 498 q 786 278 786 367 q 696 81 786 161 q 481 0 607 0 l 74 0 l 74 239 l -56 239 l -56 370 l 74 370 l 74 972 l 439 972 q 653 896 564 972 q 742 714 742 820 q 704 591 742 648 q 607 514 665 534 m 279 775 l 279 581 l 429 581 q 503 609 473 581 q 533 679 533 638 q 503 747 533 720 q 429 775 473 775 l 279 775 m 463 197 q 543 230 510 197 q 576 310 576 263 q 544 390 576 357 q 465 424 511 424 l 279 424 l 279 197 l 463 197 z "},"ˆ":{"ha":623,"x_min":69,"x_max":554,"o":"m 554 761 l 380 761 l 311 857 l 243 761 l 69 761 l 204 978 l 418 978 l 554 761 z "},"ˇ":{"ha":623,"x_min":69,"x_max":554,"o":"m 380 974 l 554 974 l 418 757 l 204 757 l 69 974 l 243 974 l 311 878 l 380 974 z "},"˘":{"ha":602,"x_min":69,"x_max":533,"o":"m 533 968 q 467 804 532 865 q 301 743 402 743 q 134 804 199 743 q 69 968 69 865 l 218 968 q 241 899 218 925 q 301 872 264 872 q 361 899 337 872 q 385 968 385 926 l 533 968 z "},"˙":{"ha":378,"x_min":69,"x_max":309,"o":"m 105 978 q 123 995 105 978 q 189 1013 140 1013 q 273 978 238 1013 q 309 895 309 943 q 273 810 309 846 q 189 775 238 775 q 105 810 140 775 q 69 895 69 846 q 105 978 69 943 z "},"˚":{"ha":536,"x_min":69,"x_max":467,"o":"m 267 749 q 126 804 183 749 q 69 939 69 859 q 126 1075 69 1020 q 267 1131 183 1131 q 409 1075 351 1131 q 467 939 467 1020 q 409 804 467 859 q 267 749 351 749 m 267 863 q 324 885 301 863 q 347 939 347 907 q 324 994 347 972 q 267 1017 301 1017 q 211 995 233 1017 q 189 939 189 972 q 211 884 189 906 q 267 863 233 863 z "},"˛":{"ha":462,"x_min":69,"x_max":393,"o":"m 330 114 l 330 0 q 265 -30 290 -9 q 240 -77 240 -51 q 255 -109 240 -97 q 296 -121 270 -121 q 346 -111 318 -121 l 393 -235 q 322 -259 368 -250 q 231 -268 277 -268 q 115 -227 160 -268 q 69 -122 69 -186 q 142 25 69 -40 q 330 114 215 90 z "},"˜":{"ha":732,"x_min":69,"x_max":663,"o":"m 69 786 q 130 935 77 878 q 256 993 183 993 q 337 975 296 993 q 410 938 379 956 q 454 920 440 920 q 489 938 476 920 q 504 986 503 956 l 663 960 q 599 810 652 868 q 475 751 545 751 q 390 770 432 751 q 318 808 349 789 q 271 827 287 827 q 239 807 251 827 q 228 758 227 788 l 69 786 z "},"˝":{"ha":725,"x_min":69,"x_max":656,"o":"m 271 757 l 354 978 l 154 978 l 69 757 l 271 757 m 571 757 l 656 978 l 456 978 l 371 757 l 571 757 z "},"̀":{"ha":0,"x_min":-561,"x_max":-211,"o":"m -561 974 l -330 974 l -211 757 l -392 757 l -561 974 z "},"́":{"ha":0,"x_min":-528,"x_max":-178,"o":"m -178 974 l -347 757 l -528 757 l -408 974 l -178 974 z "},"̂":{"ha":0,"x_min":-549,"x_max":-64,"o":"m -64 761 l -237 761 l -307 857 l -375 761 l -549 761 l -414 978 l -200 978 l -64 761 z "},"̃":{"ha":0,"x_min":-729,"x_max":-136,"o":"m -729 786 q -668 935 -721 878 q -543 993 -616 993 q -461 975 -503 993 q -389 938 -420 956 q -345 920 -359 920 q -309 938 -323 920 q -294 986 -296 956 l -136 960 q -200 810 -146 868 q -323 751 -253 751 q -408 770 -366 751 q -480 808 -450 789 q -528 827 -511 827 q -559 807 -547 827 q -571 758 -572 788 l -729 786 z "},"̄":{"ha":0,"x_min":-611,"x_max":-167,"o":"m -611 764 l -611 921 l -167 921 l -167 764 l -611 764 z "},"̆":{"ha":0,"x_min":-604,"x_max":-140,"o":"m -140 968 q -205 804 -140 865 q -372 743 -271 743 q -539 804 -474 743 q -604 968 -604 865 l -456 968 q -432 899 -456 925 q -372 872 -409 872 q -312 899 -336 872 q -289 968 -289 925 l -140 968 z "},"̇":{"ha":0,"x_min":-456,"x_max":-216,"o":"m -420 978 q -403 995 -420 978 q -336 1013 -385 1013 q -252 978 -288 1013 q -216 895 -216 943 q -252 810 -216 846 q -336 775 -288 775 q -420 810 -385 775 q -456 895 -456 846 q -420 978 -456 943 z "},"̈":{"ha":0,"x_min":-643,"x_max":-113,"o":"m -608 978 q -590 995 -608 978 q -524 1013 -572 1013 q -439 978 -475 1013 q -404 895 -404 943 q -439 810 -404 846 q -524 775 -475 775 q -608 810 -572 775 q -643 895 -643 846 q -608 978 -643 943 m -232 1013 q -148 978 -183 1013 q -113 895 -113 943 q -148 810 -113 846 q -232 775 -183 775 q -316 810 -280 775 q -351 895 -351 846 q -316 977 -351 942 q -232 1013 -280 1013 z "},"̊":{"ha":0,"x_min":-586,"x_max":-191,"o":"m -248 803 q -276 776 -248 803 q -389 749 -304 749 q -529 803 -473 749 q -586 939 -586 858 q -529 1075 -586 1020 q -389 1131 -473 1131 q -248 1075 -304 1131 q -191 939 -191 1020 q -248 803 -191 858 m -445 885 q -433 874 -445 885 q -389 863 -422 863 q -333 885 -355 863 q -310 939 -310 907 q -332 994 -310 972 q -389 1017 -355 1017 q -445 994 -422 1017 q -468 939 -468 972 q -445 885 -468 907 z "},"̋":{"ha":0,"x_min":-661,"x_max":-75,"o":"m -461 757 l -376 978 l -578 978 l -661 757 l -461 757 m -160 757 l -75 978 l -277 978 l -361 757 l -160 757 z "},"̌":{"ha":0,"x_min":-611,"x_max":-126,"o":"m -300 974 l -126 974 l -262 757 l -476 757 l -611 974 l -437 974 l -370 878 l -300 974 z "},"̒":{"ha":0,"x_min":-319,"x_max":31,"o":"m -319 768 l -150 985 l 31 985 l -89 768 l -319 768 z "},"̦":{"ha":0,"x_min":-411,"x_max":-61,"o":"m -61 -89 l -231 -307 l -411 -307 l -293 -89 l -61 -89 z "},"̧":{"ha":0,"x_min":-364,"x_max":-71,"o":"m -304 33 l -158 33 q -95 -53 -117 -9 q -72 -136 -73 -97 q -88 -208 -71 -174 q -136 -265 -104 -242 q -215 -299 -168 -288 q -318 -304 -262 -310 l -364 -165 q -277 -155 -311 -166 q -231 -123 -243 -143 q -223 -78 -219 -103 q -249 -23 -227 -52 q -304 33 -270 5 z "},"̨":{"ha":0,"x_min":-587,"x_max":-264,"o":"m -326 114 l -326 0 q -393 -30 -368 -9 q -418 -77 -418 -51 q -403 -109 -418 -96 q -363 -121 -388 -121 q -313 -111 -338 -121 l -264 -235 q -336 -259 -291 -250 q -427 -268 -382 -268 q -543 -227 -498 -268 q -587 -122 -587 -186 q -514 25 -587 -40 q -326 114 -441 90 z "},"Δ":{"ha":826,"x_min":8,"x_max":818,"o":"m 8 0 l 8 197 l 329 972 l 496 972 l 818 197 l 818 0 l 8 0 m 225 197 l 597 197 l 412 672 l 225 197 z "},"δ":{"ha":826,"x_min":8,"x_max":818,"o":"m 8 0 l 8 197 l 329 972 l 496 972 l 818 197 l 818 0 l 8 0 m 225 197 l 597 197 l 412 672 l 225 197 z "},"Ω":{"ha":1079,"x_min":69,"x_max":1008,"o":"m 74 0 l 74 197 l 243 197 q 115 330 160 244 q 69 525 69 416 q 130 762 69 656 q 299 927 191 867 q 539 986 406 986 q 726 951 639 986 q 875 856 813 916 q 973 709 937 795 q 1008 525 1008 623 q 964 330 1008 415 q 836 197 919 244 l 1007 197 l 1007 0 l 597 0 l 597 197 q 745 329 692 245 q 798 514 798 413 q 727 713 798 640 q 539 786 656 786 q 353 713 423 786 q 282 514 282 640 q 335 330 282 414 q 484 197 388 245 l 484 0 l 74 0 z "},"ω":{"ha":1079,"x_min":69,"x_max":1008,"o":"m 74 0 l 74 197 l 243 197 q 115 330 160 244 q 69 525 69 416 q 130 762 69 656 q 299 927 191 867 q 539 986 406 986 q 726 951 639 986 q 875 856 813 916 q 973 709 937 795 q 1008 525 1008 623 q 964 330 1008 415 q 836 197 919 244 l 1007 197 l 1007 0 l 597 0 l 597 197 q 745 329 692 245 q 798 514 798 413 q 727 713 798 640 q 539 786 656 786 q 353 713 423 786 q 282 514 282 640 q 335 330 282 414 q 484 197 388 245 l 484 0 l 74 0 z "},"μ":{"ha":798,"x_min":69,"x_max":730,"o":"m 534 682 l 730 682 l 730 0 l 534 0 l 534 90 q 350 -14 470 -14 q 265 -3 307 -14 l 265 -227 l 69 -227 l 69 682 l 265 682 l 265 322 q 302 214 265 254 q 400 174 338 174 q 497 214 460 174 q 534 322 534 254 l 534 682 z "},"π":{"ha":1012,"x_min":40,"x_max":974,"o":"m 974 496 l 790 496 l 790 281 q 823 201 790 228 q 908 175 855 175 q 958 180 937 175 l 958 0 q 864 -11 916 -11 q 668 66 742 -11 q 595 278 595 142 l 595 496 l 415 496 l 415 0 l 220 0 l 220 496 l 40 496 l 40 682 l 974 682 l 974 496 z "},"฿":{"ha":913,"x_min":134,"x_max":846,"o":"m 667 514 q 795 433 745 498 q 846 278 846 367 q 804 137 846 201 q 692 37 762 73 q 541 0 623 0 l 518 0 l 518 -167 l 330 -167 l 330 0 l 134 0 l 134 972 l 330 972 l 330 1139 l 518 1139 l 518 972 q 719 891 637 966 q 800 714 800 816 q 762 591 800 648 q 667 514 724 534 m 563 609 q 578 624 563 609 q 593 679 593 638 q 562 747 593 720 q 489 775 532 775 l 339 775 l 339 581 l 489 581 q 563 609 532 581 m 522 197 q 603 230 570 197 q 636 310 636 263 q 603 390 636 357 q 524 424 570 424 l 339 424 l 339 197 l 522 197 z "},"Ẁ":{"ha":1409,"x_min":11,"x_max":1397,"o":"m 460 1264 l 690 1264 l 810 1047 l 629 1047 l 460 1264 m 1182 974 l 1397 974 l 1075 0 l 909 0 l 705 625 l 503 0 l 336 0 l 11 974 l 231 974 l 424 347 l 625 974 l 790 974 l 991 347 l 1182 974 z "},"ẁ":{"ha":1095,"x_min":11,"x_max":1084,"o":"m 304 974 l 534 974 l 654 757 l 473 757 l 304 974 m 257 0 l 11 682 l 221 682 l 335 309 l 471 682 l 624 682 l 761 309 l 873 682 l 1084 682 l 839 0 l 685 0 l 547 374 l 408 0 l 257 0 z "},"Ẃ":{"ha":1409,"x_min":11,"x_max":1397,"o":"m 956 1264 l 786 1047 l 606 1047 l 725 1264 l 956 1264 m 1182 974 l 1397 974 l 1075 0 l 909 0 l 705 625 l 503 0 l 336 0 l 11 974 l 231 974 l 424 347 l 625 974 l 790 974 l 991 347 l 1182 974 z "},"ẃ":{"ha":1095,"x_min":11,"x_max":1084,"o":"m 800 974 l 631 757 l 450 757 l 570 974 l 800 974 m 257 0 l 11 682 l 221 682 l 335 309 l 471 682 l 624 682 l 761 309 l 873 682 l 1084 682 l 839 0 l 685 0 l 547 374 l 408 0 l 257 0 z "},"Ẅ":{"ha":1409,"x_min":11,"x_max":1397,"o":"m 474 1244 q 492 1262 474 1244 q 558 1279 509 1279 q 642 1244 607 1279 q 677 1161 677 1209 q 642 1077 677 1112 q 558 1042 607 1042 q 474 1077 509 1042 q 439 1161 439 1112 q 474 1244 439 1209 m 850 1279 q 934 1244 899 1279 q 970 1161 970 1209 q 934 1077 970 1112 q 850 1042 899 1042 q 766 1077 802 1042 q 730 1161 730 1112 q 766 1244 730 1208 q 850 1279 802 1279 m 1182 974 l 1397 974 l 1075 0 l 909 0 l 705 625 l 503 0 l 336 0 l 11 974 l 231 974 l 424 347 l 625 974 l 790 974 l 991 347 l 1182 974 z "},"ẅ":{"ha":1095,"x_min":11,"x_max":1084,"o":"m 319 978 q 336 995 319 978 q 403 1013 354 1013 q 487 978 452 1013 q 522 895 522 943 q 487 810 522 846 q 403 775 452 775 q 319 810 354 775 q 283 895 283 846 q 319 978 283 943 m 694 1013 q 779 978 743 1013 q 814 895 814 943 q 779 810 814 846 q 694 775 743 775 q 611 810 646 775 q 575 895 575 846 q 611 977 575 942 q 694 1013 646 1013 m 257 0 l 11 682 l 221 682 l 335 309 l 471 682 l 624 682 l 761 309 l 873 682 l 1084 682 l 839 0 l 685 0 l 547 374 l 408 0 l 257 0 z "},"ẞ":{"ha":873,"x_min":74,"x_max":840,"o":"m 433 986 q 688 904 585 986 q 800 701 791 822 l 639 549 q 785 461 729 528 q 840 307 840 394 q 747 91 840 181 q 524 0 654 0 l 357 0 l 357 197 l 522 197 q 599 228 567 197 q 631 302 631 258 q 600 380 631 351 q 519 410 570 410 l 387 410 l 386 538 l 570 720 q 522 767 557 748 q 443 786 487 786 q 326 730 371 786 q 281 582 281 673 l 281 0 l 74 0 l 74 582 q 172 875 74 764 q 433 986 270 986 z "},"Ỳ":{"ha":945,"x_min":11,"x_max":933,"o":"m 231 1264 l 461 1264 l 581 1047 l 400 1047 l 231 1264 m 11 972 l 262 972 l 478 619 l 693 972 l 933 972 l 579 411 l 579 0 l 372 0 l 372 411 l 11 972 z "},"ỳ":{"ha":747,"x_min":11,"x_max":736,"o":"m 492 757 l 311 757 l 142 974 l 372 974 l 492 757 m 525 682 l 736 682 l 357 -227 l 147 -227 l 273 56 l 11 682 l 222 682 l 374 283 l 525 682 z "}," ":{"ha":214,"x_min":0,"x_max":0,"o":""},"–":{"ha":850,"x_min":69,"x_max":781,"o":"m 69 269 l 69 453 l 781 453 l 781 269 l 69 269 z "},"—":{"ha":1527,"x_min":69,"x_max":1458,"o":"m 69 269 l 69 453 l 1458 453 l 1458 269 l 69 269 z "},"‘":{"ha":386,"x_min":69,"x_max":318,"o":"m 69 794 q 106 897 69 826 l 208 1097 l 318 1097 l 240 897 q 286 856 269 883 q 302 794 302 828 q 269 711 302 745 q 186 677 235 677 q 103 711 137 677 q 69 794 69 745 z "},"’":{"ha":386,"x_min":68,"x_max":317,"o":"m 317 982 q 282 879 317 950 l 178 677 l 68 677 l 146 878 q 100 920 117 891 q 83 982 83 948 q 117 1064 83 1031 q 200 1097 151 1097 q 283 1064 250 1097 q 317 982 317 1031 z "},"‚":{"ha":386,"x_min":68,"x_max":317,"o":"m 317 118 q 309 76 317 98 q 282 16 301 55 l 178 -186 l 68 -186 l 146 16 q 100 57 117 30 q 83 118 83 84 q 117 201 83 167 q 200 235 151 235 q 283 201 250 235 q 317 118 317 167 z "},"“":{"ha":684,"x_min":69,"x_max":615,"o":"m 69 794 q 106 897 69 826 l 208 1097 l 318 1097 l 240 897 q 286 856 269 883 q 302 794 302 828 q 269 711 302 745 q 186 677 235 677 q 103 711 137 677 q 69 794 69 745 m 367 794 q 403 897 367 827 l 505 1097 l 615 1097 l 538 897 q 583 856 566 883 q 600 794 600 828 q 567 711 600 745 q 484 677 533 677 q 401 711 435 677 q 367 794 367 745 z "},"”":{"ha":684,"x_min":68,"x_max":615,"o":"m 317 982 q 282 879 317 950 l 178 677 l 68 677 l 146 878 q 100 920 117 891 q 83 982 83 948 q 117 1064 83 1031 q 200 1097 151 1097 q 283 1064 250 1097 q 317 982 317 1031 m 615 982 q 579 879 615 949 l 476 677 l 367 677 l 444 878 q 399 920 416 891 q 382 982 382 948 q 415 1064 382 1031 q 498 1097 449 1097 q 581 1064 547 1097 q 615 982 615 1031 z "},"„":{"ha":684,"x_min":68,"x_max":615,"o":"m 317 118 q 309 76 317 98 q 282 16 301 55 l 178 -186 l 68 -186 l 146 16 q 100 57 117 30 q 83 118 83 84 q 117 201 83 167 q 200 235 151 235 q 283 201 250 235 q 317 118 317 167 m 615 118 q 579 16 615 85 l 476 -186 l 367 -186 l 444 16 q 399 57 416 30 q 382 118 382 84 q 415 201 382 167 q 498 235 449 235 q 581 201 547 235 q 615 118 615 167 z "},"†":{"ha":648,"x_min":69,"x_max":579,"o":"m 579 789 l 579 621 l 414 621 l 414 256 l 237 256 l 237 621 l 69 621 l 69 789 l 237 789 l 237 1000 l 414 1000 l 414 789 l 579 789 z "},"‡":{"ha":663,"x_min":69,"x_max":579,"o":"m 579 621 l 414 621 l 414 379 l 579 379 l 579 212 l 414 212 l 414 0 l 237 0 l 237 212 l 69 212 l 69 379 l 237 379 l 237 621 l 69 621 l 69 789 l 237 789 l 237 1000 l 414 1000 l 414 789 l 579 789 l 579 621 z "},"•":{"ha":529,"x_min":68,"x_max":461,"o":"m 404 203 q 376 174 404 203 q 264 146 347 146 q 124 203 180 146 q 68 343 68 260 q 124 483 68 427 q 264 539 180 539 q 405 483 348 539 q 461 343 461 427 q 404 203 461 260 z "},"…":{"ha":1037,"x_min":71,"x_max":966,"o":"m 197 -14 q 107 23 144 -14 q 71 111 71 59 q 107 199 71 163 q 197 235 144 235 q 288 199 251 235 q 325 111 325 163 q 288 23 325 59 q 197 -14 251 -14 m 525 -14 q 435 23 471 -14 q 399 111 399 59 q 435 199 399 163 q 525 235 471 235 q 615 199 578 235 q 652 111 652 163 q 615 23 652 59 q 525 -14 578 -14 m 839 -14 q 749 23 786 -14 q 713 111 713 59 q 749 199 713 163 q 839 235 786 235 q 929 199 892 235 q 966 111 966 163 q 929 23 966 59 q 839 -14 892 -14 z "},"‰":{"ha":1489,"x_min":69,"x_max":1419,"o":"m 488 774 q 428 620 488 681 q 278 558 368 558 q 129 620 189 558 q 69 774 69 682 q 129 926 69 865 q 278 986 189 986 q 428 926 368 986 q 488 774 488 865 m 757 972 l 913 972 l 267 0 l 111 0 l 757 972 m 338 707 q 350 720 338 707 q 361 774 361 732 q 338 841 361 815 q 278 867 316 867 q 218 841 240 867 q 196 774 196 815 q 218 707 196 732 q 278 681 240 681 q 338 707 316 681 m 956 201 q 896 48 956 109 q 746 -14 836 -14 q 596 48 656 -14 q 536 201 536 109 q 596 353 536 293 q 746 414 656 414 q 896 353 836 414 q 956 201 956 293 m 1419 201 q 1360 47 1419 109 q 1210 -14 1300 -14 q 1061 48 1120 -14 q 1002 201 1002 109 q 1061 353 1002 293 q 1210 414 1120 414 q 1360 353 1300 414 q 1419 201 1419 293 m 806 134 q 817 147 806 134 q 828 201 828 160 q 806 268 828 243 q 746 293 784 293 q 685 268 708 293 q 663 201 663 243 q 685 134 663 160 q 746 107 708 107 q 806 134 784 107 m 1270 134 q 1281 147 1270 134 q 1292 201 1292 160 q 1270 268 1292 243 q 1210 293 1248 293 q 1149 268 1172 293 q 1126 201 1126 243 q 1149 134 1126 160 q 1210 107 1172 107 q 1270 134 1248 107 z "},"‹":{"ha":533,"x_min":68,"x_max":464,"o":"m 464 56 l 68 329 l 68 457 l 464 732 l 464 532 l 249 393 l 464 258 l 464 56 z "},"›":{"ha":537,"x_min":74,"x_max":469,"o":"m 74 56 l 74 258 l 289 393 l 74 532 l 74 732 l 469 457 l 469 329 l 74 56 z "},"⁄":{"ha":336,"x_min":-232,"x_max":570,"o":"m 414 972 l 570 972 l -77 0 l -232 0 l 414 972 z "},"€":{"ha":1190,"x_min":31,"x_max":1143,"o":"m 913 354 l 1143 354 q 986 89 1116 192 q 679 -14 856 -14 q 354 103 490 -14 q 191 404 219 220 l 31 404 l 31 571 l 192 571 q 355 870 220 753 q 679 986 490 986 q 893 940 792 986 q 1060 813 994 895 q 1140 631 1126 731 l 911 631 q 827 742 892 699 q 679 786 763 786 q 506 726 580 786 q 407 571 431 667 l 783 571 l 741 404 l 406 404 q 504 246 430 307 q 679 186 578 186 q 828 233 763 186 q 913 354 894 281 z "},"₽":{"ha":918,"x_min":31,"x_max":884,"o":"m 541 387 l 389 387 l 389 277 l 632 277 l 632 121 l 389 121 l 389 0 l 183 0 l 183 121 l 31 121 l 31 277 l 183 277 l 183 387 l 31 387 l 31 549 l 183 549 l 183 972 l 541 972 q 788 892 692 972 q 884 682 884 811 q 788 470 884 552 q 541 387 692 387 m 389 811 l 389 549 l 541 549 q 637 587 598 549 q 676 682 676 625 q 637 775 676 739 q 541 811 598 811 l 389 811 z "},"№":{"ha":1750,"x_min":74,"x_max":1672,"o":"m 1318 985 q 1498 938 1417 985 q 1626 810 1579 892 q 1672 628 1672 728 q 1626 448 1672 529 q 1498 320 1579 366 q 1318 273 1417 273 q 1138 320 1219 273 q 1010 448 1057 366 q 964 628 964 529 q 1065 882 964 780 q 1318 985 1167 985 m 74 972 l 249 972 l 644 406 l 644 972 l 850 972 l 850 0 l 677 0 l 279 567 l 279 0 l 74 0 l 74 972 m 1318 796 q 1202 748 1249 796 q 1156 628 1156 701 q 1202 510 1156 557 q 1318 463 1249 463 q 1434 510 1387 463 q 1480 628 1480 557 q 1434 748 1480 701 q 1318 796 1388 796 m 1659 182 l 1659 -3 l 974 -3 l 974 182 l 1659 182 z "},"℗":{"ha":1088,"x_min":47,"x_max":1047,"o":"m 546 986 q 798 919 682 986 q 980 737 913 852 q 1047 486 1047 622 q 980 236 1047 351 q 798 54 913 121 q 546 -14 682 -14 q 297 54 412 -14 q 115 236 182 121 q 47 486 47 351 q 115 737 47 622 q 297 919 182 852 q 546 986 412 986 m 337 121 q 386 92 337 121 q 547 64 434 64 q 757 121 661 64 q 910 275 854 178 q 966 486 966 372 q 910 697 966 600 q 757 851 854 795 q 547 908 661 908 q 385 874 463 908 q 251 784 307 841 q 161 650 195 728 q 127 486 127 572 q 184 275 127 372 q 337 121 240 178 m 590 760 q 723 710 671 760 q 775 585 775 661 q 723 458 775 507 q 590 408 671 408 l 501 408 l 501 218 l 383 218 l 383 760 l 590 760 m 590 522 q 637 540 618 522 q 656 585 656 557 q 637 629 656 612 q 590 647 618 647 l 501 647 l 501 522 l 590 522 z "},"™":{"ha":1223,"x_min":18,"x_max":1182,"o":"m 484 972 l 484 848 l 317 848 l 317 389 l 186 389 l 186 848 l 18 848 l 18 972 l 484 972 m 1048 972 l 1182 972 l 1182 389 l 1051 389 l 1051 720 l 908 389 l 815 389 l 676 720 l 676 389 l 546 389 l 546 972 l 703 972 l 871 581 l 1048 972 z "},"Ω":{"ha":1079,"x_min":69,"x_max":1008,"o":"m 74 0 l 74 197 l 243 197 q 115 330 160 244 q 69 525 69 416 q 130 762 69 656 q 299 927 191 867 q 539 986 406 986 q 726 951 639 986 q 875 856 813 916 q 973 709 937 795 q 1008 525 1008 623 q 964 330 1008 415 q 836 197 919 244 l 1007 197 l 1007 0 l 597 0 l 597 197 q 745 329 692 245 q 798 514 798 413 q 727 713 798 640 q 539 786 656 786 q 353 713 423 786 q 282 514 282 640 q 335 330 282 414 q 484 197 388 245 l 484 0 l 74 0 z "},"⅛":{"ha":1190,"x_min":29,"x_max":1171,"o":"m 288 972 l 288 389 l 158 389 l 158 794 l 29 696 l 29 850 l 200 972 l 288 972 m 819 972 l 975 972 l 329 0 l 174 0 l 819 972 m 965 -7 q 817 43 875 -7 q 758 171 758 94 q 783 254 758 215 q 851 315 808 292 q 799 365 819 334 q 779 432 779 397 q 831 545 779 500 q 965 589 884 589 q 1098 545 1046 589 q 1150 432 1150 500 q 1131 366 1150 399 q 1078 315 1111 334 q 1145 256 1120 295 q 1171 171 1171 217 q 1113 43 1171 94 q 965 -7 1055 -7 m 965 367 q 1012 383 994 367 q 1031 424 1031 399 q 1012 465 1031 449 q 965 481 994 481 q 917 465 936 481 q 899 424 899 449 q 917 383 899 399 q 965 367 935 367 m 965 109 q 1025 129 1001 109 q 1048 180 1048 149 q 1025 233 1048 212 q 965 254 1001 254 q 905 233 928 254 q 882 180 882 212 q 905 129 882 149 q 965 109 928 109 z "},"⅜":{"ha":1246,"x_min":9,"x_max":1226,"o":"m 146 734 l 252 848 l 28 848 l 28 972 l 435 972 l 435 888 l 301 750 q 401 696 362 743 q 440 583 440 648 q 379 437 440 494 q 224 380 318 380 q 76 432 136 380 q 9 564 16 483 l 140 564 q 168 523 146 539 q 224 507 189 507 q 283 529 260 507 q 306 586 306 551 q 257 653 306 635 q 146 652 208 672 l 146 734 m 876 972 l 1032 972 l 386 0 l 231 0 l 876 972 m 1021 -7 q 872 43 930 -7 q 814 171 814 94 q 839 254 814 215 q 907 315 863 292 q 854 365 874 334 q 835 432 835 397 q 887 545 835 500 q 1021 589 939 589 q 1154 545 1101 589 q 1206 432 1206 500 q 1186 366 1206 399 q 1133 315 1166 334 q 1201 256 1175 295 q 1226 171 1226 217 q 1168 43 1226 94 q 1021 -7 1110 -7 m 1021 367 q 1068 383 1049 367 q 1086 424 1086 399 q 1068 465 1086 449 q 1021 481 1049 481 q 973 465 991 481 q 954 424 954 449 q 972 383 954 399 q 1021 367 991 367 m 1021 109 q 1080 129 1057 109 q 1104 180 1104 149 q 1080 233 1104 212 q 1021 254 1057 254 q 961 233 984 254 q 937 180 937 212 q 961 129 937 149 q 1021 109 984 109 z "},"⅝":{"ha":1242,"x_min":9,"x_max":1223,"o":"m 225 380 q 76 429 138 380 q 9 564 14 478 l 140 564 q 170 522 147 537 q 225 507 193 507 q 281 531 258 507 q 304 587 304 555 q 282 647 304 624 q 225 671 259 671 q 147 639 172 671 l 33 639 l 60 972 l 399 972 l 399 850 l 176 850 l 167 755 q 243 778 199 778 q 383 726 328 778 q 437 585 437 674 q 376 440 437 499 q 225 380 314 380 m 868 972 l 1023 972 l 378 0 l 222 0 l 868 972 m 1165 43 q 1136 18 1165 43 q 1018 -7 1107 -7 q 870 43 928 -7 q 811 171 811 94 q 836 254 811 215 q 905 315 861 293 q 852 365 873 334 q 832 432 832 397 q 885 545 832 500 q 1018 589 937 589 q 1151 545 1099 589 q 1203 432 1203 500 q 1184 366 1203 398 q 1131 315 1165 334 q 1198 256 1173 295 q 1223 171 1223 217 q 1165 43 1223 94 m 1018 367 q 1066 383 1048 367 q 1084 424 1084 399 q 1066 465 1084 449 q 1018 481 1047 481 q 970 465 989 481 q 951 424 951 448 q 970 383 951 399 q 1018 367 989 367 m 1018 109 q 1078 129 1055 109 q 1101 180 1101 149 q 1078 233 1101 212 q 1018 254 1055 254 q 958 233 982 254 q 935 180 935 212 q 958 129 935 149 q 1018 109 982 109 z "},"⅞":{"ha":1127,"x_min":12,"x_max":1108,"o":"m 12 972 l 422 972 l 422 885 l 184 389 l 40 389 l 262 847 l 12 847 l 12 972 m 758 972 l 914 972 l 268 0 l 113 0 l 758 972 m 903 -7 q 754 43 812 -7 q 696 171 696 94 q 721 254 696 215 q 789 315 745 292 q 736 365 756 334 q 717 432 717 397 q 769 545 717 500 q 903 589 821 589 q 1036 545 983 589 q 1088 432 1088 500 q 1068 366 1088 399 q 1015 315 1048 334 q 1083 256 1057 295 q 1108 171 1108 217 q 1050 43 1108 94 q 903 -7 992 -7 m 903 367 q 949 383 931 367 q 968 424 968 399 q 949 465 968 449 q 903 481 930 481 q 855 465 873 481 q 836 424 836 449 q 854 383 836 399 q 903 367 873 367 m 903 109 q 962 129 939 109 q 986 180 986 149 q 962 233 986 212 q 903 254 939 254 q 843 233 866 254 q 819 180 819 212 q 843 129 819 149 q 903 109 866 109 z "},"←":{"ha":1132,"x_min":69,"x_max":1063,"o":"m 1063 524 l 1063 349 l 401 349 l 663 97 l 538 -28 l 69 436 l 538 901 l 663 777 l 400 524 l 1063 524 z "},"↑":{"ha":1067,"x_min":69,"x_max":999,"o":"m 999 525 l 873 400 l 623 661 l 623 0 l 447 0 l 447 663 l 195 400 l 69 525 l 534 993 l 999 525 z "},"→":{"ha":1132,"x_min":69,"x_max":1063,"o":"m 595 901 l 1063 436 l 595 -28 l 469 97 l 730 349 l 69 349 l 69 524 l 732 524 l 469 777 l 595 901 z "},"↓":{"ha":1067,"x_min":69,"x_max":999,"o":"m 873 578 l 999 453 l 533 -17 l 69 453 l 195 578 l 446 317 l 446 978 l 621 978 l 621 315 l 873 578 z "},"↖":{"ha":903,"x_min":69,"x_max":833,"o":"m 833 167 l 710 45 l 241 513 l 249 149 l 72 149 l 69 808 l 729 806 l 729 629 l 366 635 l 833 167 z "},"↗":{"ha":903,"x_min":69,"x_max":833,"o":"m 174 806 l 833 807 l 829 149 l 653 149 l 660 511 l 192 43 l 69 167 l 538 635 l 174 629 l 174 806 z "},"↘":{"ha":903,"x_min":69,"x_max":833,"o":"m 174 0 l 174 176 l 538 171 l 69 639 l 192 761 l 660 294 l 653 657 l 829 657 l 833 -3 l 174 0 z "},"↙":{"ha":903,"x_min":69,"x_max":833,"o":"m 833 639 l 366 171 l 729 176 l 729 0 l 69 -3 l 72 657 l 249 657 l 241 293 l 710 761 l 833 639 z "},"∂":{"ha":826,"x_min":58,"x_max":755,"o":"m 679 562 q 736 439 717 501 q 755 326 755 377 q 709 156 755 235 q 582 32 662 78 q 407 -14 501 -14 q 233 32 313 -14 q 105 156 153 78 q 58 326 58 235 q 147 557 58 465 q 370 650 236 650 q 395 648 387 650 l 189 972 l 424 972 l 679 562 m 407 182 q 511 224 469 182 q 554 328 554 266 q 512 432 554 390 q 408 475 470 475 q 301 432 345 475 q 258 328 258 390 q 301 224 258 266 q 407 182 345 182 z "},"∅":{"ha":1119,"x_min":69,"x_max":1050,"o":"m 220 4 l 69 155 l 201 288 q 143 493 143 385 q 199 703 143 606 q 352 855 256 799 q 562 911 449 911 q 768 852 677 911 l 900 985 l 1050 833 l 920 703 q 977 493 977 606 q 944 331 977 408 q 856 199 911 254 q 724 111 800 143 q 562 78 647 78 q 353 138 450 78 l 220 4 m 361 414 l 640 694 q 562 717 606 717 q 404 651 469 717 q 338 493 338 585 q 361 414 338 449 m 562 272 q 718 336 654 272 q 782 493 782 401 q 760 575 782 536 l 481 296 q 562 272 520 272 z "},"∆":{"ha":826,"x_min":8,"x_max":818,"o":"m 8 0 l 8 197 l 329 972 l 496 972 l 818 197 l 818 0 l 8 0 m 225 197 l 597 197 l 412 672 l 225 197 z "},"∏":{"ha":964,"x_min":69,"x_max":895,"o":"m 895 972 l 895 0 l 689 0 l 689 775 l 277 775 l 277 0 l 69 0 l 69 972 l 895 972 z "},"∑":{"ha":861,"x_min":69,"x_max":791,"o":"m 791 972 l 791 775 l 351 775 l 561 486 l 351 197 l 791 197 l 791 0 l 69 0 l 69 147 l 319 486 l 69 825 l 69 972 l 791 972 z "},"−":{"ha":823,"x_min":69,"x_max":754,"o":"m 754 543 l 754 359 l 69 359 l 69 543 l 754 543 z "},"√":{"ha":1047,"x_min":69,"x_max":978,"o":"m 761 972 l 978 972 l 615 0 l 446 0 l 264 485 l 69 485 l 69 682 l 408 682 l 532 343 l 761 972 z "},"∞":{"ha":1372,"x_min":69,"x_max":1303,"o":"m 957 815 q 1139 765 1059 815 q 1261 634 1219 715 q 1303 457 1303 553 q 1261 281 1303 362 q 1139 150 1219 200 q 957 100 1059 100 q 795 144 869 100 q 686 250 722 189 q 576 144 650 189 q 415 100 503 100 q 233 150 313 100 q 111 281 153 200 q 69 457 69 362 q 111 633 69 552 q 233 765 153 715 q 415 815 313 815 q 575 771 502 815 q 686 665 648 727 q 797 771 724 728 q 957 815 870 815 m 425 289 q 538 333 488 289 q 607 457 588 376 q 538 583 588 538 q 425 628 488 628 q 313 581 356 628 q 269 457 269 533 q 312 335 269 381 q 425 289 355 289 m 949 289 q 1060 335 1017 289 q 1103 457 1103 381 q 1060 581 1103 533 q 949 628 1017 628 q 845 583 892 628 q 778 457 797 538 q 844 333 797 377 q 949 289 892 289 z "},"∫":{"ha":536,"x_min":-31,"x_max":503,"o":"m 407 1007 q 503 996 458 1007 l 503 815 q 453 821 481 821 q 367 794 399 821 q 335 715 335 768 l 335 49 q 261 -163 335 -86 q 65 -240 187 -240 q -31 -229 12 -240 l -31 -49 q 21 -54 -9 -54 q 106 -28 74 -54 q 139 52 139 -1 l 139 720 q 212 930 139 854 q 407 1007 286 1007 z "},"≈":{"ha":833,"x_min":69,"x_max":765,"o":"m 235 452 l 69 472 q 140 656 84 591 q 282 721 196 721 q 377 701 327 721 q 467 660 427 680 q 529 640 507 640 q 596 739 582 640 l 765 718 q 689 534 746 600 q 549 468 632 468 q 456 488 505 468 q 369 529 408 509 q 304 549 329 549 q 235 452 251 549 m 235 123 l 69 144 q 140 329 84 264 q 282 395 196 395 q 377 374 327 395 q 467 334 427 354 q 529 314 507 314 q 596 411 582 314 l 765 392 q 689 208 746 273 q 549 142 632 142 q 476 154 514 142 q 411 182 437 167 q 354 210 384 197 q 304 222 324 222 q 235 123 251 222 z "},"≠":{"ha":823,"x_min":69,"x_max":754,"o":"m 754 530 l 532 530 l 467 387 l 754 387 l 754 203 l 382 203 l 309 41 l 132 41 l 205 203 l 69 203 l 69 387 l 290 387 l 355 530 l 69 530 l 69 714 l 440 714 l 510 867 l 686 867 l 616 714 l 754 714 l 754 530 z "},"≤":{"ha":745,"x_min":69,"x_max":676,"o":"m 676 267 l 71 541 l 71 692 l 676 965 l 676 766 l 334 616 l 676 468 l 676 267 m 675 0 l 69 0 l 69 183 l 675 183 l 675 0 z "},"≥":{"ha":745,"x_min":69,"x_max":676,"o":"m 69 267 l 69 468 l 412 616 l 69 766 l 69 965 l 675 692 l 675 541 l 69 267 m 71 0 l 71 183 l 676 183 l 676 0 l 71 0 z "},"◊":{"ha":827,"x_min":71,"x_max":758,"o":"m 484 972 l 758 486 l 484 0 l 343 0 l 71 486 l 343 972 l 484 972 m 412 197 l 572 486 l 412 775 l 252 486 l 412 197 z "},"○":{"ha":1094,"x_min":47,"x_max":1047,"o":"m 546 -14 q 297 54 412 -14 q 115 236 182 121 q 47 486 47 351 q 115 737 47 622 q 297 919 182 852 q 546 986 412 986 q 798 919 682 986 q 980 737 913 852 q 1047 486 1047 622 q 980 236 1047 351 q 798 54 913 121 q 546 -14 682 -14 m 337 121 q 386 92 337 121 q 547 64 434 64 q 757 121 661 64 q 910 275 854 178 q 966 486 966 372 q 910 697 966 600 q 757 851 854 795 q 547 908 661 908 q 385 874 463 908 q 251 784 307 841 q 161 650 195 728 q 127 486 127 572 q 184 275 127 372 q 337 121 240 178 z "},"●":{"ha":1094,"x_min":47,"x_max":1047,"o":"m 798 54 q 740 20 798 54 q 547 -14 683 -14 q 297 54 412 -14 q 115 236 182 121 q 47 486 47 351 q 115 737 47 622 q 297 919 182 852 q 547 986 412 986 q 798 919 683 986 q 980 737 913 852 q 1047 486 1047 622 q 980 236 1047 351 q 798 54 913 121 z "}}}
